<?xml version="1.0" encoding="utf-8" standalone="no"?>
<!DOCTYPE svg PUBLIC "-//W3C//DTD SVG 1.1//EN"
  "http://www.w3.org/Graphics/SVG/1.1/DTD/svg11.dtd">
<!-- Created with matplotlib (https://matplotlib.org/) -->
<svg height="720pt" version="1.1" viewBox="0 0 1080 720" width="1080pt" xmlns="http://www.w3.org/2000/svg" xmlns:xlink="http://www.w3.org/1999/xlink">
 <metadata>
  <rdf:RDF xmlns:cc="http://creativecommons.org/ns#" xmlns:dc="http://purl.org/dc/elements/1.1/" xmlns:rdf="http://www.w3.org/1999/02/22-rdf-syntax-ns#">
   <cc:Work>
    <dc:type rdf:resource="http://purl.org/dc/dcmitype/StillImage"/>
    <dc:date>2020-12-09T21:37:48.264194</dc:date>
    <dc:format>image/svg+xml</dc:format>
    <dc:creator>
     <cc:Agent>
      <dc:title>Matplotlib v3.3.3, https://matplotlib.org/</dc:title>
     </cc:Agent>
    </dc:creator>
   </cc:Work>
  </rdf:RDF>
 </metadata>
 <defs>
  <style type="text/css">*{stroke-linecap:butt;stroke-linejoin:round;}</style>
 </defs>
 <g id="figure_1">
  <g id="patch_1">
   <path d="M 0 720 
L 1080 720 
L 1080 0 
L 0 0 
z
" style="fill:none;"/>
  </g>
  <g id="axes_1">
   <g id="patch_2">
    <path d="M 135 246.282353 
L 515.454545 246.282353 
L 515.454545 86.4 
L 135 86.4 
z
" style="fill:#ffffff;"/>
   </g>
   <g id="matplotlib.axis_1">
    <g id="xtick_1">
     <g id="line2d_1">
      <defs>
       <path d="M 0 0 
L 0 3.5 
" id="m9012ff1674" style="stroke:#000000;stroke-width:0.8;"/>
      </defs>
      <g>
       <use style="stroke:#000000;stroke-width:0.8;" x="173.045455" xlink:href="#m9012ff1674" y="246.282353"/>
      </g>
     </g>
     <g id="text_1">
      <!-- 6 -->
      <g transform="translate(169.864205 260.88079)scale(0.1 -0.1)">
       <defs>
        <path d="M 33.015625 40.375 
Q 26.375 40.375 22.484375 35.828125 
Q 18.609375 31.296875 18.609375 23.390625 
Q 18.609375 15.53125 22.484375 10.953125 
Q 26.375 6.390625 33.015625 6.390625 
Q 39.65625 6.390625 43.53125 10.953125 
Q 47.40625 15.53125 47.40625 23.390625 
Q 47.40625 31.296875 43.53125 35.828125 
Q 39.65625 40.375 33.015625 40.375 
z
M 52.59375 71.296875 
L 52.59375 62.3125 
Q 48.875 64.0625 45.09375 64.984375 
Q 41.3125 65.921875 37.59375 65.921875 
Q 27.828125 65.921875 22.671875 59.328125 
Q 17.53125 52.734375 16.796875 39.40625 
Q 19.671875 43.65625 24.015625 45.921875 
Q 28.375 48.1875 33.59375 48.1875 
Q 44.578125 48.1875 50.953125 41.515625 
Q 57.328125 34.859375 57.328125 23.390625 
Q 57.328125 12.15625 50.6875 5.359375 
Q 44.046875 -1.421875 33.015625 -1.421875 
Q 20.359375 -1.421875 13.671875 8.265625 
Q 6.984375 17.96875 6.984375 36.375 
Q 6.984375 53.65625 15.1875 63.9375 
Q 23.390625 74.21875 37.203125 74.21875 
Q 40.921875 74.21875 44.703125 73.484375 
Q 48.484375 72.75 52.59375 71.296875 
z
" id="DejaVuSans-54"/>
       </defs>
       <use xlink:href="#DejaVuSans-54"/>
      </g>
     </g>
    </g>
    <g id="xtick_2">
     <g id="line2d_2">
      <g>
       <use style="stroke:#000000;stroke-width:0.8;" x="249.136364" xlink:href="#m9012ff1674" y="246.282353"/>
      </g>
     </g>
     <g id="text_2">
      <!-- 8 -->
      <g transform="translate(245.955114 260.88079)scale(0.1 -0.1)">
       <defs>
        <path d="M 31.78125 34.625 
Q 24.75 34.625 20.71875 30.859375 
Q 16.703125 27.09375 16.703125 20.515625 
Q 16.703125 13.921875 20.71875 10.15625 
Q 24.75 6.390625 31.78125 6.390625 
Q 38.8125 6.390625 42.859375 10.171875 
Q 46.921875 13.96875 46.921875 20.515625 
Q 46.921875 27.09375 42.890625 30.859375 
Q 38.875 34.625 31.78125 34.625 
z
M 21.921875 38.8125 
Q 15.578125 40.375 12.03125 44.71875 
Q 8.5 49.078125 8.5 55.328125 
Q 8.5 64.0625 14.71875 69.140625 
Q 20.953125 74.21875 31.78125 74.21875 
Q 42.671875 74.21875 48.875 69.140625 
Q 55.078125 64.0625 55.078125 55.328125 
Q 55.078125 49.078125 51.53125 44.71875 
Q 48 40.375 41.703125 38.8125 
Q 48.828125 37.15625 52.796875 32.3125 
Q 56.78125 27.484375 56.78125 20.515625 
Q 56.78125 9.90625 50.3125 4.234375 
Q 43.84375 -1.421875 31.78125 -1.421875 
Q 19.734375 -1.421875 13.25 4.234375 
Q 6.78125 9.90625 6.78125 20.515625 
Q 6.78125 27.484375 10.78125 32.3125 
Q 14.796875 37.15625 21.921875 38.8125 
z
M 18.3125 54.390625 
Q 18.3125 48.734375 21.84375 45.5625 
Q 25.390625 42.390625 31.78125 42.390625 
Q 38.140625 42.390625 41.71875 45.5625 
Q 45.3125 48.734375 45.3125 54.390625 
Q 45.3125 60.0625 41.71875 63.234375 
Q 38.140625 66.40625 31.78125 66.40625 
Q 25.390625 66.40625 21.84375 63.234375 
Q 18.3125 60.0625 18.3125 54.390625 
z
" id="DejaVuSans-56"/>
       </defs>
       <use xlink:href="#DejaVuSans-56"/>
      </g>
     </g>
    </g>
    <g id="xtick_3">
     <g id="line2d_3">
      <g>
       <use style="stroke:#000000;stroke-width:0.8;" x="325.227273" xlink:href="#m9012ff1674" y="246.282353"/>
      </g>
     </g>
     <g id="text_3">
      <!-- 10 -->
      <g transform="translate(318.864773 260.88079)scale(0.1 -0.1)">
       <defs>
        <path d="M 12.40625 8.296875 
L 28.515625 8.296875 
L 28.515625 63.921875 
L 10.984375 60.40625 
L 10.984375 69.390625 
L 28.421875 72.90625 
L 38.28125 72.90625 
L 38.28125 8.296875 
L 54.390625 8.296875 
L 54.390625 0 
L 12.40625 0 
z
" id="DejaVuSans-49"/>
        <path d="M 31.78125 66.40625 
Q 24.171875 66.40625 20.328125 58.90625 
Q 16.5 51.421875 16.5 36.375 
Q 16.5 21.390625 20.328125 13.890625 
Q 24.171875 6.390625 31.78125 6.390625 
Q 39.453125 6.390625 43.28125 13.890625 
Q 47.125 21.390625 47.125 36.375 
Q 47.125 51.421875 43.28125 58.90625 
Q 39.453125 66.40625 31.78125 66.40625 
z
M 31.78125 74.21875 
Q 44.046875 74.21875 50.515625 64.515625 
Q 56.984375 54.828125 56.984375 36.375 
Q 56.984375 17.96875 50.515625 8.265625 
Q 44.046875 -1.421875 31.78125 -1.421875 
Q 19.53125 -1.421875 13.0625 8.265625 
Q 6.59375 17.96875 6.59375 36.375 
Q 6.59375 54.828125 13.0625 64.515625 
Q 19.53125 74.21875 31.78125 74.21875 
z
" id="DejaVuSans-48"/>
       </defs>
       <use xlink:href="#DejaVuSans-49"/>
       <use x="63.623047" xlink:href="#DejaVuSans-48"/>
      </g>
     </g>
    </g>
    <g id="xtick_4">
     <g id="line2d_4">
      <g>
       <use style="stroke:#000000;stroke-width:0.8;" x="401.318182" xlink:href="#m9012ff1674" y="246.282353"/>
      </g>
     </g>
     <g id="text_4">
      <!-- 12 -->
      <g transform="translate(394.955682 260.88079)scale(0.1 -0.1)">
       <defs>
        <path d="M 19.1875 8.296875 
L 53.609375 8.296875 
L 53.609375 0 
L 7.328125 0 
L 7.328125 8.296875 
Q 12.9375 14.109375 22.625 23.890625 
Q 32.328125 33.6875 34.8125 36.53125 
Q 39.546875 41.84375 41.421875 45.53125 
Q 43.3125 49.21875 43.3125 52.78125 
Q 43.3125 58.59375 39.234375 62.25 
Q 35.15625 65.921875 28.609375 65.921875 
Q 23.96875 65.921875 18.8125 64.3125 
Q 13.671875 62.703125 7.8125 59.421875 
L 7.8125 69.390625 
Q 13.765625 71.78125 18.9375 73 
Q 24.125 74.21875 28.421875 74.21875 
Q 39.75 74.21875 46.484375 68.546875 
Q 53.21875 62.890625 53.21875 53.421875 
Q 53.21875 48.921875 51.53125 44.890625 
Q 49.859375 40.875 45.40625 35.40625 
Q 44.1875 33.984375 37.640625 27.21875 
Q 31.109375 20.453125 19.1875 8.296875 
z
" id="DejaVuSans-50"/>
       </defs>
       <use xlink:href="#DejaVuSans-49"/>
       <use x="63.623047" xlink:href="#DejaVuSans-50"/>
      </g>
     </g>
    </g>
    <g id="xtick_5">
     <g id="line2d_5">
      <g>
       <use style="stroke:#000000;stroke-width:0.8;" x="477.409091" xlink:href="#m9012ff1674" y="246.282353"/>
      </g>
     </g>
     <g id="text_5">
      <!-- 14 -->
      <g transform="translate(471.046591 260.88079)scale(0.1 -0.1)">
       <defs>
        <path d="M 37.796875 64.3125 
L 12.890625 25.390625 
L 37.796875 25.390625 
z
M 35.203125 72.90625 
L 47.609375 72.90625 
L 47.609375 25.390625 
L 58.015625 25.390625 
L 58.015625 17.1875 
L 47.609375 17.1875 
L 47.609375 0 
L 37.796875 0 
L 37.796875 17.1875 
L 4.890625 17.1875 
L 4.890625 26.703125 
z
" id="DejaVuSans-52"/>
       </defs>
       <use xlink:href="#DejaVuSans-49"/>
       <use x="63.623047" xlink:href="#DejaVuSans-52"/>
      </g>
     </g>
    </g>
   </g>
   <g id="matplotlib.axis_2">
    <g id="ytick_1">
     <g id="line2d_6">
      <defs>
       <path d="M 0 0 
L -3.5 0 
" id="m6bcc182b6f" style="stroke:#000000;stroke-width:0.8;"/>
      </defs>
      <g>
       <use style="stroke:#000000;stroke-width:0.8;" x="135" xlink:href="#m6bcc182b6f" y="246.282353"/>
      </g>
     </g>
     <g id="text_6">
      <!-- −50 -->
      <g transform="translate(106.895313 250.081572)scale(0.1 -0.1)">
       <defs>
        <path d="M 10.59375 35.5 
L 73.1875 35.5 
L 73.1875 27.203125 
L 10.59375 27.203125 
z
" id="DejaVuSans-8722"/>
        <path d="M 10.796875 72.90625 
L 49.515625 72.90625 
L 49.515625 64.59375 
L 19.828125 64.59375 
L 19.828125 46.734375 
Q 21.96875 47.46875 24.109375 47.828125 
Q 26.265625 48.1875 28.421875 48.1875 
Q 40.625 48.1875 47.75 41.5 
Q 54.890625 34.8125 54.890625 23.390625 
Q 54.890625 11.625 47.5625 5.09375 
Q 40.234375 -1.421875 26.90625 -1.421875 
Q 22.3125 -1.421875 17.546875 -0.640625 
Q 12.796875 0.140625 7.71875 1.703125 
L 7.71875 11.625 
Q 12.109375 9.234375 16.796875 8.0625 
Q 21.484375 6.890625 26.703125 6.890625 
Q 35.15625 6.890625 40.078125 11.328125 
Q 45.015625 15.765625 45.015625 23.390625 
Q 45.015625 31 40.078125 35.4375 
Q 35.15625 39.890625 26.703125 39.890625 
Q 22.75 39.890625 18.8125 39.015625 
Q 14.890625 38.140625 10.796875 36.28125 
z
" id="DejaVuSans-53"/>
       </defs>
       <use xlink:href="#DejaVuSans-8722"/>
       <use x="83.789062" xlink:href="#DejaVuSans-53"/>
       <use x="147.412109" xlink:href="#DejaVuSans-48"/>
      </g>
     </g>
    </g>
    <g id="ytick_2">
     <g id="line2d_7">
      <g>
       <use style="stroke:#000000;stroke-width:0.8;" x="135" xlink:href="#m6bcc182b6f" y="223.442017"/>
      </g>
     </g>
     <g id="text_7">
      <!-- −40 -->
      <g transform="translate(106.895313 227.241236)scale(0.1 -0.1)">
       <use xlink:href="#DejaVuSans-8722"/>
       <use x="83.789062" xlink:href="#DejaVuSans-52"/>
       <use x="147.412109" xlink:href="#DejaVuSans-48"/>
      </g>
     </g>
    </g>
    <g id="ytick_3">
     <g id="line2d_8">
      <g>
       <use style="stroke:#000000;stroke-width:0.8;" x="135" xlink:href="#m6bcc182b6f" y="200.601681"/>
      </g>
     </g>
     <g id="text_8">
      <!-- −30 -->
      <g transform="translate(106.895313 204.400899)scale(0.1 -0.1)">
       <defs>
        <path d="M 40.578125 39.3125 
Q 47.65625 37.796875 51.625 33 
Q 55.609375 28.21875 55.609375 21.1875 
Q 55.609375 10.40625 48.1875 4.484375 
Q 40.765625 -1.421875 27.09375 -1.421875 
Q 22.515625 -1.421875 17.65625 -0.515625 
Q 12.796875 0.390625 7.625 2.203125 
L 7.625 11.71875 
Q 11.71875 9.328125 16.59375 8.109375 
Q 21.484375 6.890625 26.8125 6.890625 
Q 36.078125 6.890625 40.9375 10.546875 
Q 45.796875 14.203125 45.796875 21.1875 
Q 45.796875 27.640625 41.28125 31.265625 
Q 36.765625 34.90625 28.71875 34.90625 
L 20.21875 34.90625 
L 20.21875 43.015625 
L 29.109375 43.015625 
Q 36.375 43.015625 40.234375 45.921875 
Q 44.09375 48.828125 44.09375 54.296875 
Q 44.09375 59.90625 40.109375 62.90625 
Q 36.140625 65.921875 28.71875 65.921875 
Q 24.65625 65.921875 20.015625 65.03125 
Q 15.375 64.15625 9.8125 62.3125 
L 9.8125 71.09375 
Q 15.4375 72.65625 20.34375 73.4375 
Q 25.25 74.21875 29.59375 74.21875 
Q 40.828125 74.21875 47.359375 69.109375 
Q 53.90625 64.015625 53.90625 55.328125 
Q 53.90625 49.265625 50.4375 45.09375 
Q 46.96875 40.921875 40.578125 39.3125 
z
" id="DejaVuSans-51"/>
       </defs>
       <use xlink:href="#DejaVuSans-8722"/>
       <use x="83.789062" xlink:href="#DejaVuSans-51"/>
       <use x="147.412109" xlink:href="#DejaVuSans-48"/>
      </g>
     </g>
    </g>
    <g id="ytick_4">
     <g id="line2d_9">
      <g>
       <use style="stroke:#000000;stroke-width:0.8;" x="135" xlink:href="#m6bcc182b6f" y="177.761345"/>
      </g>
     </g>
     <g id="text_9">
      <!-- −20 -->
      <g transform="translate(106.895313 181.560563)scale(0.1 -0.1)">
       <use xlink:href="#DejaVuSans-8722"/>
       <use x="83.789062" xlink:href="#DejaVuSans-50"/>
       <use x="147.412109" xlink:href="#DejaVuSans-48"/>
      </g>
     </g>
    </g>
    <g id="ytick_5">
     <g id="line2d_10">
      <g>
       <use style="stroke:#000000;stroke-width:0.8;" x="135" xlink:href="#m6bcc182b6f" y="154.921008"/>
      </g>
     </g>
     <g id="text_10">
      <!-- −10 -->
      <g transform="translate(106.895313 158.720227)scale(0.1 -0.1)">
       <use xlink:href="#DejaVuSans-8722"/>
       <use x="83.789062" xlink:href="#DejaVuSans-49"/>
       <use x="147.412109" xlink:href="#DejaVuSans-48"/>
      </g>
     </g>
    </g>
    <g id="ytick_6">
     <g id="line2d_11">
      <g>
       <use style="stroke:#000000;stroke-width:0.8;" x="135" xlink:href="#m6bcc182b6f" y="132.080672"/>
      </g>
     </g>
     <g id="text_11">
      <!-- 0 -->
      <g transform="translate(121.6375 135.879891)scale(0.1 -0.1)">
       <use xlink:href="#DejaVuSans-48"/>
      </g>
     </g>
    </g>
    <g id="ytick_7">
     <g id="line2d_12">
      <g>
       <use style="stroke:#000000;stroke-width:0.8;" x="135" xlink:href="#m6bcc182b6f" y="109.240336"/>
      </g>
     </g>
     <g id="text_12">
      <!-- 10 -->
      <g transform="translate(115.275 113.039555)scale(0.1 -0.1)">
       <use xlink:href="#DejaVuSans-49"/>
       <use x="63.623047" xlink:href="#DejaVuSans-48"/>
      </g>
     </g>
    </g>
    <g id="ytick_8">
     <g id="line2d_13">
      <g>
       <use style="stroke:#000000;stroke-width:0.8;" x="135" xlink:href="#m6bcc182b6f" y="86.4"/>
      </g>
     </g>
     <g id="text_13">
      <!-- 20 -->
      <g transform="translate(115.275 90.199219)scale(0.1 -0.1)">
       <use xlink:href="#DejaVuSans-50"/>
       <use x="63.623047" xlink:href="#DejaVuSans-48"/>
      </g>
     </g>
    </g>
    <g id="text_14">
     <!-- Force [N] -->
     <g transform="translate(100.815625 189.095083)rotate(-90)scale(0.1 -0.1)">
      <defs>
       <path d="M 9.8125 72.90625 
L 51.703125 72.90625 
L 51.703125 64.59375 
L 19.671875 64.59375 
L 19.671875 43.109375 
L 48.578125 43.109375 
L 48.578125 34.8125 
L 19.671875 34.8125 
L 19.671875 0 
L 9.8125 0 
z
" id="DejaVuSans-70"/>
       <path d="M 30.609375 48.390625 
Q 23.390625 48.390625 19.1875 42.75 
Q 14.984375 37.109375 14.984375 27.296875 
Q 14.984375 17.484375 19.15625 11.84375 
Q 23.34375 6.203125 30.609375 6.203125 
Q 37.796875 6.203125 41.984375 11.859375 
Q 46.1875 17.53125 46.1875 27.296875 
Q 46.1875 37.015625 41.984375 42.703125 
Q 37.796875 48.390625 30.609375 48.390625 
z
M 30.609375 56 
Q 42.328125 56 49.015625 48.375 
Q 55.71875 40.765625 55.71875 27.296875 
Q 55.71875 13.875 49.015625 6.21875 
Q 42.328125 -1.421875 30.609375 -1.421875 
Q 18.84375 -1.421875 12.171875 6.21875 
Q 5.515625 13.875 5.515625 27.296875 
Q 5.515625 40.765625 12.171875 48.375 
Q 18.84375 56 30.609375 56 
z
" id="DejaVuSans-111"/>
       <path d="M 41.109375 46.296875 
Q 39.59375 47.171875 37.8125 47.578125 
Q 36.03125 48 33.890625 48 
Q 26.265625 48 22.1875 43.046875 
Q 18.109375 38.09375 18.109375 28.8125 
L 18.109375 0 
L 9.078125 0 
L 9.078125 54.6875 
L 18.109375 54.6875 
L 18.109375 46.1875 
Q 20.953125 51.171875 25.484375 53.578125 
Q 30.03125 56 36.53125 56 
Q 37.453125 56 38.578125 55.875 
Q 39.703125 55.765625 41.0625 55.515625 
z
" id="DejaVuSans-114"/>
       <path d="M 48.78125 52.59375 
L 48.78125 44.1875 
Q 44.96875 46.296875 41.140625 47.34375 
Q 37.3125 48.390625 33.40625 48.390625 
Q 24.65625 48.390625 19.8125 42.84375 
Q 14.984375 37.3125 14.984375 27.296875 
Q 14.984375 17.28125 19.8125 11.734375 
Q 24.65625 6.203125 33.40625 6.203125 
Q 37.3125 6.203125 41.140625 7.25 
Q 44.96875 8.296875 48.78125 10.40625 
L 48.78125 2.09375 
Q 45.015625 0.34375 40.984375 -0.53125 
Q 36.96875 -1.421875 32.421875 -1.421875 
Q 20.0625 -1.421875 12.78125 6.34375 
Q 5.515625 14.109375 5.515625 27.296875 
Q 5.515625 40.671875 12.859375 48.328125 
Q 20.21875 56 33.015625 56 
Q 37.15625 56 41.109375 55.140625 
Q 45.0625 54.296875 48.78125 52.59375 
z
" id="DejaVuSans-99"/>
       <path d="M 56.203125 29.59375 
L 56.203125 25.203125 
L 14.890625 25.203125 
Q 15.484375 15.921875 20.484375 11.0625 
Q 25.484375 6.203125 34.421875 6.203125 
Q 39.59375 6.203125 44.453125 7.46875 
Q 49.3125 8.734375 54.109375 11.28125 
L 54.109375 2.78125 
Q 49.265625 0.734375 44.1875 -0.34375 
Q 39.109375 -1.421875 33.890625 -1.421875 
Q 20.796875 -1.421875 13.15625 6.1875 
Q 5.515625 13.8125 5.515625 26.8125 
Q 5.515625 40.234375 12.765625 48.109375 
Q 20.015625 56 32.328125 56 
Q 43.359375 56 49.78125 48.890625 
Q 56.203125 41.796875 56.203125 29.59375 
z
M 47.21875 32.234375 
Q 47.125 39.59375 43.09375 43.984375 
Q 39.0625 48.390625 32.421875 48.390625 
Q 24.90625 48.390625 20.390625 44.140625 
Q 15.875 39.890625 15.1875 32.171875 
z
" id="DejaVuSans-101"/>
       <path id="DejaVuSans-32"/>
       <path d="M 8.59375 75.984375 
L 29.296875 75.984375 
L 29.296875 69 
L 17.578125 69 
L 17.578125 -6.203125 
L 29.296875 -6.203125 
L 29.296875 -13.1875 
L 8.59375 -13.1875 
z
" id="DejaVuSans-91"/>
       <path d="M 9.8125 72.90625 
L 23.09375 72.90625 
L 55.421875 11.921875 
L 55.421875 72.90625 
L 64.984375 72.90625 
L 64.984375 0 
L 51.703125 0 
L 19.390625 60.984375 
L 19.390625 0 
L 9.8125 0 
z
" id="DejaVuSans-78"/>
       <path d="M 30.421875 75.984375 
L 30.421875 -13.1875 
L 9.71875 -13.1875 
L 9.71875 -6.203125 
L 21.390625 -6.203125 
L 21.390625 69 
L 9.71875 69 
L 9.71875 75.984375 
z
" id="DejaVuSans-93"/>
      </defs>
      <use xlink:href="#DejaVuSans-70"/>
      <use x="53.894531" xlink:href="#DejaVuSans-111"/>
      <use x="115.076172" xlink:href="#DejaVuSans-114"/>
      <use x="153.939453" xlink:href="#DejaVuSans-99"/>
      <use x="208.919922" xlink:href="#DejaVuSans-101"/>
      <use x="270.443359" xlink:href="#DejaVuSans-32"/>
      <use x="302.230469" xlink:href="#DejaVuSans-91"/>
      <use x="341.244141" xlink:href="#DejaVuSans-78"/>
      <use x="416.048828" xlink:href="#DejaVuSans-93"/>
     </g>
    </g>
   </g>
   <g id="line2d_14">
    <path clip-path="url(#pb52628f2d1)" d="M -1 130.162084 
L 49.463079 130.162084 
L 64.574056 131.89795 
L 68.464123 132.423277 
L 72.200375 133.177008 
L 75.945623 134.250504 
L 79.698904 136.557378 
L 83.574971 141.627933 
L 87.321813 147.520739 
L 91.061298 153.893193 
L 98.690919 167.757277 
L 102.43316 175.454471 
L 106.31473 184.339361 
L 110.065157 173.672924 
L 117.552955 133.816538 
L 121.435474 117.234454 
L 125.180757 108.943412 
L 128.925628 114.26521 
L 132.811015 128.449059 
L 140.29794 163.052168 
L 144.045067 181.392958 
L 147.924712 198.614571 
L 151.674008 209.235328 
L 155.416078 214.717008 
L 159.29666 213.712034 
L 163.042795 173.307479 
L 166.808289 151.289395 
L 170.66849 130.025042 
L 174.419273 113.922605 
L 178.168121 107.687193 
L 181.909677 118.741916 
L 185.787002 137.699395 
L 189.535864 158.735345 
L 193.277449 177.829866 
L 197.15949 194.800235 
L 200.904977 209.075445 
L 204.638949 210.834151 
L 208.385015 195.371244 
L 212.274244 172.576588 
L 216.032021 153.801832 
L 219.768219 118.719076 
L 223.650752 100.949294 
L 227.39113 90.990908 
L 231.131534 101.748706 
L 234.889055 123.150101 
L 238.762551 146.721328 
L 242.506522 167.391832 
L 246.243116 185.549899 
L 250.137959 203.29684 
L 253.892371 219.125193 
L 257.645695 218.622706 
L 261.506689 196.627462 
L 265.256664 167.825798 
L 269.004182 147.703462 
L 272.74568 119.290084 
L 276.628901 103.507412 
L 280.372331 100.994975 
L 284.129746 111.54721 
L 287.998154 126.347748 
L 291.742614 146.492924 
L 295.490532 167.711597 
L 299.236254 186.463513 
L 303.116821 204.233294 
L 306.861635 218.028857 
L 310.597946 215.333697 
L 314.491762 194.115025 
L 318.238476 167.323311 
L 321.982073 148.023227 
L 325.727609 134.022101 
L 329.659056 101.223378 
L 333.357606 95.079328 
L 337.094243 105.426 
L 340.984164 125.662538 
L 344.723875 146.538605 
L 348.463524 165.496084 
L 352.352051 184.156639 
L 356.096687 199.779429 
L 359.848911 207.796387 
L 363.595055 202.040622 
L 367.469904 181.872605 
L 371.226514 160.288487 
L 374.952941 144.551496 
L 382.593605 114.151008 
L 386.344143 117.508538 
L 390.088007 135.232639 
L 393.965365 156.976639 
L 401.457117 194.45763 
L 405.341857 212.295933 
L 409.086897 226.274218 
L 412.83081 221.934555 
L 416.576569 197.472555 
L 420.455988 168.191244 
L 424.213062 147.749143 
L 427.956304 135.027076 
L 431.825068 119.518487 
L 435.56579 102.73084 
L 439.319372 108.532286 
L 443.199253 124.520521 
L 446.950216 145.853395 
L 450.690065 164.788034 
L 454.439151 181.963966 
L 458.317392 200.738723 
L 462.071066 215.196655 
L 465.810501 216.247311 
L 469.690747 200.556 
L 473.443703 173.376 
L 477.184463 149.59921 
L 480.928507 136.740101 
L 484.810659 124.360639 
L 488.557915 112.87195 
L 492.301264 108.052639 
L 496.213427 127.649647 
L 499.915018 142.564387 
L 503.660159 161.887311 
L 507.409877 180.387983 
L 511.29018 195.508286 
L 515.033671 201.195529 
L 518.774254 205.261109 
L 522.665539 200.647361 
L 526.418949 180.479345 
L 530.156105 157.75321 
L 534.035341 143.386639 
L 537.77857 131.007176 
L 541.534479 120.866067 
L 545.280565 119.632689 
L 549.156361 128.677462 
L 552.898886 162.869445 
L 556.665315 180.091059 
L 560.537345 200.053513 
L 564.282189 213.095345 
L 568.024263 211.816286 
L 571.771889 198.705933 
L 575.657027 177.875546 
L 579.400197 154.007395 
L 583.146755 137.973479 
L 587.023941 130.755933 
L 590.767605 122.784655 
L 594.502791 119.815412 
L 598.398725 126.347748 
L 602.157357 137.219748 
L 605.883817 165.359042 
L 609.622312 178.469395 
L 613.507569 193.863782 
L 617.261623 201.766538 
L 621.001808 203.433882 
L 624.885908 194.663193 
L 628.631937 176.573647 
L 632.379608 154.738286 
L 636.122234 139.046975 
L 639.999634 132.514639 
L 643.74423 127.992252 
L 647.484728 128.243496 
L 651.373844 134.775832 
L 655.12085 147.452218 
L 658.855055 162.161395 
L 662.621804 187.537008 
L 666.502139 203.913529 
L 670.232682 210.034739 
L 673.98465 205.672235 
L 677.864918 189.889563 
L 685.362549 149.233765 
L 689.233892 136.191933 
L 692.980319 129.042908 
L 696.732071 121.528437 
L 700.467902 121.459916 
L 704.357067 129.111429 
L 708.103911 141.148286 
L 711.853308 156.656874 
L 715.726679 171.091966 
L 719.468361 205.192588 
L 723.216862 219.033832 
L 727.10204 218.165899 
L 730.84893 202.931395 
L 734.603377 181.027513 
L 738.340023 155.606218 
L 742.222007 139.275378 
L 745.975835 131.25842 
L 749.709986 122.761815 
L 753.59803 120.911748 
L 757.342191 127.946571 
L 761.084414 139.686504 
L 764.832113 155.309294 
L 768.712624 169.744387 
L 772.461688 204.895664 
L 776.203969 211.702084 
L 780.083909 205.946319 
L 783.832538 189.501277 
L 791.322764 145.990437 
L 795.203588 134.319025 
L 802.69189 116.435042 
L 806.574687 117.599899 
L 810.321399 126.964437 
L 814.064178 139.846387 
L 817.944771 157.205042 
L 825.431027 189.501277 
L 829.189672 215.402218 
L 833.065822 209.760655 
L 836.813487 192.333479 
L 840.540563 167.117748 
L 844.437116 144.757059 
L 848.189133 134.044941 
L 851.93382 125.251412 
L 855.679566 117.64558 
L 859.556926 116.640605 
L 863.306394 125.82242 
L 867.051224 138.156202 
L 870.933162 155.217933 
L 874.680548 172.782151 
L 878.418296 192.059395 
L 882.298932 203.822168 
L 886.047715 208.550118 
L 889.795887 196.992908 
L 897.419734 151.974605 
L 901.177184 138.72721 
L 904.914728 128.723143 
L 908.793314 121.04879 
L 912.538246 123.287143 
L 916.348206 133.382571 
L 920.029362 149.051042 
L 923.910354 166.729462 
L 927.656468 182.740538 
L 931.403101 202.885714 
L 935.275119 220.24437 
L 939.029845 208.847042 
L 942.774285 186.28079 
L 946.651479 160.334168 
L 950.403833 141.536571 
L 957.889807 123.629748 
L 961.769169 120.158017 
L 965.517858 126.256387 
L 969.261602 137.219748 
L 973.143207 152.774017 
L 976.890458 169.036336 
L 980.634941 182.009647 
L 984.375881 195.987933 
L 988.253197 206.768571 
L 992.009235 202.314706 
L 995.750341 165.633126 
L 999.627366 147.269496 
L 1003.375995 135.529563 
L 1007.122621 131.532504 
L 1010.860899 135.324 
L 1014.747412 144.460134 
L 1026.126806 186.806118 
L 1029.869122 200.281916 
L 1033.606088 211.907647 
L 1037.49325 211.656403 
L 1041.241733 196.421899 
L 1044.980806 176.687849 
L 1044.980806 176.687849 
" style="fill:none;stroke:#1f77b4;stroke-linecap:square;stroke-width:0.7;"/>
   </g>
   <g id="line2d_15">
    <path clip-path="url(#pb52628f2d1)" d="M -1 166.341176 
L 1044.980806 166.341176 
L 1044.980806 166.341176 
" style="fill:none;stroke:#ff7f0e;stroke-linecap:square;stroke-width:1.5;"/>
   </g>
   <g id="patch_3">
    <path d="M 135 246.282353 
L 135 86.4 
" style="fill:none;stroke:#000000;stroke-linecap:square;stroke-linejoin:miter;stroke-width:0.8;"/>
   </g>
   <g id="patch_4">
    <path d="M 515.454545 246.282353 
L 515.454545 86.4 
" style="fill:none;stroke:#000000;stroke-linecap:square;stroke-linejoin:miter;stroke-width:0.8;"/>
   </g>
   <g id="patch_5">
    <path d="M 135 246.282353 
L 515.454545 246.282353 
" style="fill:none;stroke:#000000;stroke-linecap:square;stroke-linejoin:miter;stroke-width:0.8;"/>
   </g>
   <g id="patch_6">
    <path d="M 135 86.4 
L 515.454545 86.4 
" style="fill:none;stroke:#000000;stroke-linecap:square;stroke-linejoin:miter;stroke-width:0.8;"/>
   </g>
   <g id="text_15">
    <!-- Motor 1 -->
    <g transform="translate(302.164773 80.4)scale(0.12 -0.12)">
     <defs>
      <path d="M 9.8125 72.90625 
L 24.515625 72.90625 
L 43.109375 23.296875 
L 61.8125 72.90625 
L 76.515625 72.90625 
L 76.515625 0 
L 66.890625 0 
L 66.890625 64.015625 
L 48.09375 14.015625 
L 38.1875 14.015625 
L 19.390625 64.015625 
L 19.390625 0 
L 9.8125 0 
z
" id="DejaVuSans-77"/>
      <path d="M 18.3125 70.21875 
L 18.3125 54.6875 
L 36.8125 54.6875 
L 36.8125 47.703125 
L 18.3125 47.703125 
L 18.3125 18.015625 
Q 18.3125 11.328125 20.140625 9.421875 
Q 21.96875 7.515625 27.59375 7.515625 
L 36.8125 7.515625 
L 36.8125 0 
L 27.59375 0 
Q 17.1875 0 13.234375 3.875 
Q 9.28125 7.765625 9.28125 18.015625 
L 9.28125 47.703125 
L 2.6875 47.703125 
L 2.6875 54.6875 
L 9.28125 54.6875 
L 9.28125 70.21875 
z
" id="DejaVuSans-116"/>
     </defs>
     <use xlink:href="#DejaVuSans-77"/>
     <use x="86.279297" xlink:href="#DejaVuSans-111"/>
     <use x="147.460938" xlink:href="#DejaVuSans-116"/>
     <use x="186.669922" xlink:href="#DejaVuSans-111"/>
     <use x="247.851562" xlink:href="#DejaVuSans-114"/>
     <use x="288.964844" xlink:href="#DejaVuSans-32"/>
     <use x="320.751953" xlink:href="#DejaVuSans-49"/>
    </g>
   </g>
  </g>
  <g id="axes_2">
   <g id="patch_7">
    <path d="M 591.545455 246.282353 
L 972 246.282353 
L 972 86.4 
L 591.545455 86.4 
z
" style="fill:#ffffff;"/>
   </g>
   <g id="matplotlib.axis_3">
    <g id="xtick_6">
     <g id="line2d_16">
      <g>
       <use style="stroke:#000000;stroke-width:0.8;" x="629.590909" xlink:href="#m9012ff1674" y="246.282353"/>
      </g>
     </g>
     <g id="text_16">
      <!-- 6 -->
      <g transform="translate(626.409659 260.88079)scale(0.1 -0.1)">
       <use xlink:href="#DejaVuSans-54"/>
      </g>
     </g>
    </g>
    <g id="xtick_7">
     <g id="line2d_17">
      <g>
       <use style="stroke:#000000;stroke-width:0.8;" x="705.681818" xlink:href="#m9012ff1674" y="246.282353"/>
      </g>
     </g>
     <g id="text_17">
      <!-- 8 -->
      <g transform="translate(702.500568 260.88079)scale(0.1 -0.1)">
       <use xlink:href="#DejaVuSans-56"/>
      </g>
     </g>
    </g>
    <g id="xtick_8">
     <g id="line2d_18">
      <g>
       <use style="stroke:#000000;stroke-width:0.8;" x="781.772727" xlink:href="#m9012ff1674" y="246.282353"/>
      </g>
     </g>
     <g id="text_18">
      <!-- 10 -->
      <g transform="translate(775.410227 260.88079)scale(0.1 -0.1)">
       <use xlink:href="#DejaVuSans-49"/>
       <use x="63.623047" xlink:href="#DejaVuSans-48"/>
      </g>
     </g>
    </g>
    <g id="xtick_9">
     <g id="line2d_19">
      <g>
       <use style="stroke:#000000;stroke-width:0.8;" x="857.863636" xlink:href="#m9012ff1674" y="246.282353"/>
      </g>
     </g>
     <g id="text_19">
      <!-- 12 -->
      <g transform="translate(851.501136 260.88079)scale(0.1 -0.1)">
       <use xlink:href="#DejaVuSans-49"/>
       <use x="63.623047" xlink:href="#DejaVuSans-50"/>
      </g>
     </g>
    </g>
    <g id="xtick_10">
     <g id="line2d_20">
      <g>
       <use style="stroke:#000000;stroke-width:0.8;" x="933.954545" xlink:href="#m9012ff1674" y="246.282353"/>
      </g>
     </g>
     <g id="text_20">
      <!-- 14 -->
      <g transform="translate(927.592045 260.88079)scale(0.1 -0.1)">
       <use xlink:href="#DejaVuSans-49"/>
       <use x="63.623047" xlink:href="#DejaVuSans-52"/>
      </g>
     </g>
    </g>
   </g>
   <g id="matplotlib.axis_4">
    <g id="ytick_9">
     <g id="line2d_21">
      <g>
       <use style="stroke:#000000;stroke-width:0.8;" x="591.545455" xlink:href="#m6bcc182b6f" y="246.282353"/>
      </g>
     </g>
     <g id="text_21">
      <!-- −50 -->
      <g transform="translate(563.440767 250.081572)scale(0.1 -0.1)">
       <use xlink:href="#DejaVuSans-8722"/>
       <use x="83.789062" xlink:href="#DejaVuSans-53"/>
       <use x="147.412109" xlink:href="#DejaVuSans-48"/>
      </g>
     </g>
    </g>
    <g id="ytick_10">
     <g id="line2d_22">
      <g>
       <use style="stroke:#000000;stroke-width:0.8;" x="591.545455" xlink:href="#m6bcc182b6f" y="223.442017"/>
      </g>
     </g>
     <g id="text_22">
      <!-- −40 -->
      <g transform="translate(563.440767 227.241236)scale(0.1 -0.1)">
       <use xlink:href="#DejaVuSans-8722"/>
       <use x="83.789062" xlink:href="#DejaVuSans-52"/>
       <use x="147.412109" xlink:href="#DejaVuSans-48"/>
      </g>
     </g>
    </g>
    <g id="ytick_11">
     <g id="line2d_23">
      <g>
       <use style="stroke:#000000;stroke-width:0.8;" x="591.545455" xlink:href="#m6bcc182b6f" y="200.601681"/>
      </g>
     </g>
     <g id="text_23">
      <!-- −30 -->
      <g transform="translate(563.440767 204.400899)scale(0.1 -0.1)">
       <use xlink:href="#DejaVuSans-8722"/>
       <use x="83.789062" xlink:href="#DejaVuSans-51"/>
       <use x="147.412109" xlink:href="#DejaVuSans-48"/>
      </g>
     </g>
    </g>
    <g id="ytick_12">
     <g id="line2d_24">
      <g>
       <use style="stroke:#000000;stroke-width:0.8;" x="591.545455" xlink:href="#m6bcc182b6f" y="177.761345"/>
      </g>
     </g>
     <g id="text_24">
      <!-- −20 -->
      <g transform="translate(563.440767 181.560563)scale(0.1 -0.1)">
       <use xlink:href="#DejaVuSans-8722"/>
       <use x="83.789062" xlink:href="#DejaVuSans-50"/>
       <use x="147.412109" xlink:href="#DejaVuSans-48"/>
      </g>
     </g>
    </g>
    <g id="ytick_13">
     <g id="line2d_25">
      <g>
       <use style="stroke:#000000;stroke-width:0.8;" x="591.545455" xlink:href="#m6bcc182b6f" y="154.921008"/>
      </g>
     </g>
     <g id="text_25">
      <!-- −10 -->
      <g transform="translate(563.440767 158.720227)scale(0.1 -0.1)">
       <use xlink:href="#DejaVuSans-8722"/>
       <use x="83.789062" xlink:href="#DejaVuSans-49"/>
       <use x="147.412109" xlink:href="#DejaVuSans-48"/>
      </g>
     </g>
    </g>
    <g id="ytick_14">
     <g id="line2d_26">
      <g>
       <use style="stroke:#000000;stroke-width:0.8;" x="591.545455" xlink:href="#m6bcc182b6f" y="132.080672"/>
      </g>
     </g>
     <g id="text_26">
      <!-- 0 -->
      <g transform="translate(578.182955 135.879891)scale(0.1 -0.1)">
       <use xlink:href="#DejaVuSans-48"/>
      </g>
     </g>
    </g>
    <g id="ytick_15">
     <g id="line2d_27">
      <g>
       <use style="stroke:#000000;stroke-width:0.8;" x="591.545455" xlink:href="#m6bcc182b6f" y="109.240336"/>
      </g>
     </g>
     <g id="text_27">
      <!-- 10 -->
      <g transform="translate(571.820455 113.039555)scale(0.1 -0.1)">
       <use xlink:href="#DejaVuSans-49"/>
       <use x="63.623047" xlink:href="#DejaVuSans-48"/>
      </g>
     </g>
    </g>
    <g id="ytick_16">
     <g id="line2d_28">
      <g>
       <use style="stroke:#000000;stroke-width:0.8;" x="591.545455" xlink:href="#m6bcc182b6f" y="86.4"/>
      </g>
     </g>
     <g id="text_28">
      <!-- 20 -->
      <g transform="translate(571.820455 90.199219)scale(0.1 -0.1)">
       <use xlink:href="#DejaVuSans-50"/>
       <use x="63.623047" xlink:href="#DejaVuSans-48"/>
      </g>
     </g>
    </g>
    <g id="text_29">
     <!-- Force [N] -->
     <g transform="translate(557.36108 189.095083)rotate(-90)scale(0.1 -0.1)">
      <use xlink:href="#DejaVuSans-70"/>
      <use x="53.894531" xlink:href="#DejaVuSans-111"/>
      <use x="115.076172" xlink:href="#DejaVuSans-114"/>
      <use x="153.939453" xlink:href="#DejaVuSans-99"/>
      <use x="208.919922" xlink:href="#DejaVuSans-101"/>
      <use x="270.443359" xlink:href="#DejaVuSans-32"/>
      <use x="302.230469" xlink:href="#DejaVuSans-91"/>
      <use x="341.244141" xlink:href="#DejaVuSans-78"/>
      <use x="416.048828" xlink:href="#DejaVuSans-93"/>
     </g>
    </g>
   </g>
   <g id="line2d_29">
    <path clip-path="url(#p46348d79cf)" d="M 401.318182 132.080672 
L 413.640604 127.19284 
L 430.745397 127.17 
L 506.008534 127.238521 
L 513.63959 127.992252 
L 517.377566 128.106454 
L 528.745829 128.129294 
L 532.491078 129.339832 
L 540.120426 135.506723 
L 543.867268 140.234672 
L 547.606752 146.127479 
L 551.49374 156.519832 
L 555.236373 160.49405 
L 558.978615 165.313361 
L 562.860184 171.800017 
L 566.610611 179.954017 
L 570.355792 192.767445 
L 574.09841 209.555092 
L 577.980928 216.978202 
L 581.726212 206.037681 
L 589.35647 152.956739 
L 593.105787 135.34684 
L 596.843395 124.863126 
L 600.590521 112.300941 
L 604.470166 108.303882 
L 608.219462 119.746891 
L 615.842114 147.200975 
L 619.58825 163.394773 
L 623.353744 177.966908 
L 627.213944 198.089244 
L 630.964728 216.567076 
L 634.713575 226.913748 
L 638.455131 219.307916 
L 642.332457 193.041529 
L 646.081319 164.376908 
L 649.822904 144.071849 
L 653.704945 118.102387 
L 657.450432 109.217496 
L 661.184403 120.729025 
L 664.93047 137.425311 
L 668.819699 150.26158 
L 672.577475 163.965782 
L 676.313674 186.646235 
L 680.196206 208.390235 
L 683.936585 223.190773 
L 687.676989 229.129261 
L 691.434509 216.315832 
L 699.051976 167.597395 
L 702.78857 147.178134 
L 706.683414 132.834403 
L 710.437825 115.978235 
L 714.191149 102.411076 
L 718.052143 108.623647 
L 721.802119 127.85521 
L 725.549637 140.211832 
L 729.291134 151.746202 
L 733.174356 172.896353 
L 736.917786 194.548992 
L 740.6752 210.171782 
L 744.543608 219.079513 
L 748.288069 217.640571 
L 752.035986 175.660034 
L 755.781708 153.276504 
L 759.662276 137.311109 
L 763.40709 123.035899 
L 767.143401 115.407227 
L 771.037217 126.347748 
L 774.783931 140.714319 
L 778.527527 152.225849 
L 782.273063 172.188303 
L 786.20451 195.074319 
L 789.903061 212.615697 
L 793.639697 222.003076 
L 797.529619 211.131076 
L 801.26933 186.372151 
L 805.008979 163.646017 
L 808.897506 144.528655 
L 816.394365 118.170908 
L 820.140509 116.115277 
L 827.771969 144.802739 
L 831.498395 157.113681 
L 835.38828 176.208202 
L 839.13906 195.736689 
L 842.889597 210.263143 
L 846.633462 216.589916 
L 850.51082 189.204353 
L 858.002571 147.475059 
L 861.887311 131.692387 
L 865.632352 114.584975 
L 869.376265 106.385294 
L 873.122024 120.36358 
L 877.001443 137.470992 
L 880.758517 148.000387 
L 884.501759 164.011462 
L 888.370522 185.709782 
L 892.111244 203.182639 
L 895.864826 215.288017 
L 899.744708 221.454908 
L 903.495671 211.884807 
L 907.235519 191.05442 
L 914.862847 150.855429 
L 918.61652 134.890034 
L 922.355956 120.158017 
L 926.236201 112.734908 
L 929.989158 123.035899 
L 933.729918 137.653714 
L 937.473962 148.000387 
L 941.356114 164.354067 
L 945.10337 184.567765 
L 948.846718 202.246185 
L 952.758881 221.683311 
L 956.460472 222.345681 
L 960.205614 207.271059 
L 967.835635 164.993597 
L 971.579126 147.703462 
L 975.319708 133.748017 
L 979.210993 125.365613 
L 982.964403 131.669546 
L 986.701559 144.551496 
L 990.580795 156.771076 
L 994.324024 174.015529 
L 998.079934 192.196437 
L 1001.826019 206.220403 
L 1005.701816 214.579966 
L 1009.444341 208.641479 
L 1013.210769 191.397025 
L 1020.827644 148.731277 
L 1024.569718 133.725176 
L 1028.317344 121.07163 
L 1032.202482 112.87195 
L 1035.945651 115.749832 
L 1039.692209 128.791664 
L 1043.569395 136.740101 
L 1047.313059 147.406538 
L 1051.048246 180.730588 
L 1054.94418 194.023664 
L 1058.702811 204.416017 
L 1062.429271 209.258168 
L 1066.167767 200.875765 
L 1073.807077 159.740319 
L 1077.547263 142.906992 
L 1081 132.755131 
L 1081 132.755131 
" style="fill:none;stroke:#1f77b4;stroke-linecap:square;stroke-width:0.7;"/>
   </g>
   <g id="line2d_30">
    <path clip-path="url(#p46348d79cf)" d="M 401.318182 166.341176 
L 1081 166.341176 
L 1081 166.341176 
" style="fill:none;stroke:#ff7f0e;stroke-linecap:square;stroke-width:1.5;"/>
   </g>
   <g id="patch_8">
    <path d="M 591.545455 246.282353 
L 591.545455 86.4 
" style="fill:none;stroke:#000000;stroke-linecap:square;stroke-linejoin:miter;stroke-width:0.8;"/>
   </g>
   <g id="patch_9">
    <path d="M 972 246.282353 
L 972 86.4 
" style="fill:none;stroke:#000000;stroke-linecap:square;stroke-linejoin:miter;stroke-width:0.8;"/>
   </g>
   <g id="patch_10">
    <path d="M 591.545455 246.282353 
L 972 246.282353 
" style="fill:none;stroke:#000000;stroke-linecap:square;stroke-linejoin:miter;stroke-width:0.8;"/>
   </g>
   <g id="patch_11">
    <path d="M 591.545455 86.4 
L 972 86.4 
" style="fill:none;stroke:#000000;stroke-linecap:square;stroke-linejoin:miter;stroke-width:0.8;"/>
   </g>
   <g id="text_30">
    <!-- Motor 2 -->
    <g transform="translate(758.710227 80.4)scale(0.12 -0.12)">
     <use xlink:href="#DejaVuSans-77"/>
     <use x="86.279297" xlink:href="#DejaVuSans-111"/>
     <use x="147.460938" xlink:href="#DejaVuSans-116"/>
     <use x="186.669922" xlink:href="#DejaVuSans-111"/>
     <use x="247.851562" xlink:href="#DejaVuSans-114"/>
     <use x="288.964844" xlink:href="#DejaVuSans-32"/>
     <use x="320.751953" xlink:href="#DejaVuSans-50"/>
    </g>
   </g>
  </g>
  <g id="axes_3">
   <g id="patch_12">
    <path d="M 135 438.141176 
L 515.454545 438.141176 
L 515.454545 278.258824 
L 135 278.258824 
z
" style="fill:#ffffff;"/>
   </g>
   <g id="matplotlib.axis_5">
    <g id="xtick_11">
     <g id="line2d_31">
      <g>
       <use style="stroke:#000000;stroke-width:0.8;" x="173.045455" xlink:href="#m9012ff1674" y="438.141176"/>
      </g>
     </g>
     <g id="text_31">
      <!-- 6 -->
      <g transform="translate(169.864205 452.739614)scale(0.1 -0.1)">
       <use xlink:href="#DejaVuSans-54"/>
      </g>
     </g>
    </g>
    <g id="xtick_12">
     <g id="line2d_32">
      <g>
       <use style="stroke:#000000;stroke-width:0.8;" x="249.136364" xlink:href="#m9012ff1674" y="438.141176"/>
      </g>
     </g>
     <g id="text_32">
      <!-- 8 -->
      <g transform="translate(245.955114 452.739614)scale(0.1 -0.1)">
       <use xlink:href="#DejaVuSans-56"/>
      </g>
     </g>
    </g>
    <g id="xtick_13">
     <g id="line2d_33">
      <g>
       <use style="stroke:#000000;stroke-width:0.8;" x="325.227273" xlink:href="#m9012ff1674" y="438.141176"/>
      </g>
     </g>
     <g id="text_33">
      <!-- 10 -->
      <g transform="translate(318.864773 452.739614)scale(0.1 -0.1)">
       <use xlink:href="#DejaVuSans-49"/>
       <use x="63.623047" xlink:href="#DejaVuSans-48"/>
      </g>
     </g>
    </g>
    <g id="xtick_14">
     <g id="line2d_34">
      <g>
       <use style="stroke:#000000;stroke-width:0.8;" x="401.318182" xlink:href="#m9012ff1674" y="438.141176"/>
      </g>
     </g>
     <g id="text_34">
      <!-- 12 -->
      <g transform="translate(394.955682 452.739614)scale(0.1 -0.1)">
       <use xlink:href="#DejaVuSans-49"/>
       <use x="63.623047" xlink:href="#DejaVuSans-50"/>
      </g>
     </g>
    </g>
    <g id="xtick_15">
     <g id="line2d_35">
      <g>
       <use style="stroke:#000000;stroke-width:0.8;" x="477.409091" xlink:href="#m9012ff1674" y="438.141176"/>
      </g>
     </g>
     <g id="text_35">
      <!-- 14 -->
      <g transform="translate(471.046591 452.739614)scale(0.1 -0.1)">
       <use xlink:href="#DejaVuSans-49"/>
       <use x="63.623047" xlink:href="#DejaVuSans-52"/>
      </g>
     </g>
    </g>
   </g>
   <g id="matplotlib.axis_6">
    <g id="ytick_17">
     <g id="line2d_36">
      <g>
       <use style="stroke:#000000;stroke-width:0.8;" x="135" xlink:href="#m6bcc182b6f" y="438.141176"/>
      </g>
     </g>
     <g id="text_36">
      <!-- −50 -->
      <g transform="translate(106.895313 441.940395)scale(0.1 -0.1)">
       <use xlink:href="#DejaVuSans-8722"/>
       <use x="83.789062" xlink:href="#DejaVuSans-53"/>
       <use x="147.412109" xlink:href="#DejaVuSans-48"/>
      </g>
     </g>
    </g>
    <g id="ytick_18">
     <g id="line2d_37">
      <g>
       <use style="stroke:#000000;stroke-width:0.8;" x="135" xlink:href="#m6bcc182b6f" y="415.30084"/>
      </g>
     </g>
     <g id="text_37">
      <!-- −40 -->
      <g transform="translate(106.895313 419.100059)scale(0.1 -0.1)">
       <use xlink:href="#DejaVuSans-8722"/>
       <use x="83.789062" xlink:href="#DejaVuSans-52"/>
       <use x="147.412109" xlink:href="#DejaVuSans-48"/>
      </g>
     </g>
    </g>
    <g id="ytick_19">
     <g id="line2d_38">
      <g>
       <use style="stroke:#000000;stroke-width:0.8;" x="135" xlink:href="#m6bcc182b6f" y="392.460504"/>
      </g>
     </g>
     <g id="text_38">
      <!-- −30 -->
      <g transform="translate(106.895313 396.259723)scale(0.1 -0.1)">
       <use xlink:href="#DejaVuSans-8722"/>
       <use x="83.789062" xlink:href="#DejaVuSans-51"/>
       <use x="147.412109" xlink:href="#DejaVuSans-48"/>
      </g>
     </g>
    </g>
    <g id="ytick_20">
     <g id="line2d_39">
      <g>
       <use style="stroke:#000000;stroke-width:0.8;" x="135" xlink:href="#m6bcc182b6f" y="369.620168"/>
      </g>
     </g>
     <g id="text_39">
      <!-- −20 -->
      <g transform="translate(106.895313 373.419387)scale(0.1 -0.1)">
       <use xlink:href="#DejaVuSans-8722"/>
       <use x="83.789062" xlink:href="#DejaVuSans-50"/>
       <use x="147.412109" xlink:href="#DejaVuSans-48"/>
      </g>
     </g>
    </g>
    <g id="ytick_21">
     <g id="line2d_40">
      <g>
       <use style="stroke:#000000;stroke-width:0.8;" x="135" xlink:href="#m6bcc182b6f" y="346.779832"/>
      </g>
     </g>
     <g id="text_40">
      <!-- −10 -->
      <g transform="translate(106.895313 350.579051)scale(0.1 -0.1)">
       <use xlink:href="#DejaVuSans-8722"/>
       <use x="83.789062" xlink:href="#DejaVuSans-49"/>
       <use x="147.412109" xlink:href="#DejaVuSans-48"/>
      </g>
     </g>
    </g>
    <g id="ytick_22">
     <g id="line2d_41">
      <g>
       <use style="stroke:#000000;stroke-width:0.8;" x="135" xlink:href="#m6bcc182b6f" y="323.939496"/>
      </g>
     </g>
     <g id="text_41">
      <!-- 0 -->
      <g transform="translate(121.6375 327.738715)scale(0.1 -0.1)">
       <use xlink:href="#DejaVuSans-48"/>
      </g>
     </g>
    </g>
    <g id="ytick_23">
     <g id="line2d_42">
      <g>
       <use style="stroke:#000000;stroke-width:0.8;" x="135" xlink:href="#m6bcc182b6f" y="301.09916"/>
      </g>
     </g>
     <g id="text_42">
      <!-- 10 -->
      <g transform="translate(115.275 304.898378)scale(0.1 -0.1)">
       <use xlink:href="#DejaVuSans-49"/>
       <use x="63.623047" xlink:href="#DejaVuSans-48"/>
      </g>
     </g>
    </g>
    <g id="ytick_24">
     <g id="line2d_43">
      <g>
       <use style="stroke:#000000;stroke-width:0.8;" x="135" xlink:href="#m6bcc182b6f" y="278.258824"/>
      </g>
     </g>
     <g id="text_43">
      <!-- 20 -->
      <g transform="translate(115.275 282.058042)scale(0.1 -0.1)">
       <use xlink:href="#DejaVuSans-50"/>
       <use x="63.623047" xlink:href="#DejaVuSans-48"/>
      </g>
     </g>
    </g>
    <g id="text_44">
     <!-- Force [N] -->
     <g transform="translate(100.815625 380.953906)rotate(-90)scale(0.1 -0.1)">
      <use xlink:href="#DejaVuSans-70"/>
      <use x="53.894531" xlink:href="#DejaVuSans-111"/>
      <use x="115.076172" xlink:href="#DejaVuSans-114"/>
      <use x="153.939453" xlink:href="#DejaVuSans-99"/>
      <use x="208.919922" xlink:href="#DejaVuSans-101"/>
      <use x="270.443359" xlink:href="#DejaVuSans-32"/>
      <use x="302.230469" xlink:href="#DejaVuSans-91"/>
      <use x="341.244141" xlink:href="#DejaVuSans-78"/>
      <use x="416.048828" xlink:href="#DejaVuSans-93"/>
     </g>
    </g>
   </g>
   <g id="line2d_44">
    <path clip-path="url(#peddbe780fc)" d="M -1 320.399244 
L 49.463079 320.399244 
L 53.202585 320.81037 
L 57.094135 321.358538 
L 60.832111 322.066588 
L 64.574056 322.911681 
L 68.464123 323.665412 
L 72.200375 324.556185 
L 75.945623 326.017966 
L 79.698904 329.01005 
L 83.574971 334.126286 
L 87.321813 341.18395 
L 91.061298 356.85242 
L 94.948286 365.211983 
L 98.690919 373.777109 
L 102.43316 381.405782 
L 106.31473 383.415731 
L 110.065157 375.901261 
L 117.552955 344.061832 
L 121.435474 330.243429 
L 125.180757 320.83321 
L 128.925628 327.022941 
L 132.811015 336.113395 
L 136.560333 348.01321 
L 144.045067 375.467294 
L 147.924712 386.362134 
L 151.674008 388.874571 
L 155.416078 377.93405 
L 159.29666 357.423429 
L 163.042795 329.695261 
L 166.808289 322.477714 
L 170.66849 323.299966 
L 178.168121 350.548487 
L 185.787002 364.846538 
L 193.277449 383.918218 
L 197.15949 390.062269 
L 200.904977 376.54079 
L 204.638949 370.739345 
L 208.385015 359.844504 
L 212.274244 344.998286 
L 216.032021 333.71516 
L 219.768219 323.071563 
L 223.650752 316.516387 
L 227.39113 324.464824 
L 231.131534 337.004168 
L 234.889055 348.332975 
L 242.506522 368.889277 
L 246.243116 380.811933 
L 250.137959 389.057294 
L 253.892371 385.334319 
L 257.645695 373.84563 
L 261.506689 359.707462 
L 265.256664 347.739126 
L 269.004182 337.232571 
L 272.74568 328.598924 
L 276.628901 321.038773 
L 280.372331 328.461882 
L 284.129746 340.384538 
L 287.998154 351.667664 
L 291.742614 360.666756 
L 295.490532 367.541697 
L 299.236254 378.482218 
L 303.116821 388.509126 
L 306.861635 389.605462 
L 310.597946 380.286605 
L 314.491762 353.883176 
L 318.238476 341.732118 
L 321.982073 332.39042 
L 325.727609 324.92163 
L 329.659056 327.479748 
L 333.357606 337.346773 
L 340.984164 358.337042 
L 344.723875 368.158387 
L 348.463524 375.718538 
L 352.352051 388.920252 
L 359.848911 370.305378 
L 363.595055 362.562504 
L 367.469904 350.913933 
L 371.226514 337.095529 
L 374.952941 328.416202 
L 378.842825 324.030857 
L 382.593605 328.416202 
L 386.344143 349.086706 
L 390.088007 357.560471 
L 393.965365 362.585345 
L 397.71129 370.145496 
L 401.457117 382.319395 
L 405.341857 391.387008 
L 409.086897 389.171496 
L 412.83081 377.751328 
L 416.576569 363.476118 
L 420.455988 351.119496 
L 424.213062 331.065681 
L 427.956304 324.784588 
L 431.825068 325.332756 
L 435.56579 332.687345 
L 439.319372 342.463008 
L 443.199253 353.42637 
L 446.950216 363.087832 
L 450.690065 368.478151 
L 454.439151 376.54079 
L 458.317392 387.093025 
L 462.071066 380.126723 
L 465.810501 369.505966 
L 469.690747 357.195025 
L 473.443703 344.906924 
L 477.184463 334.309008 
L 480.928507 328.439042 
L 484.810659 330.037866 
L 488.557915 337.369613 
L 492.301264 346.254504 
L 496.213427 359.524739 
L 499.915018 383.575613 
L 503.660159 391.546891 
L 507.409877 393.808084 
L 511.29018 385.562723 
L 518.774254 365.920034 
L 522.665539 350.434286 
L 526.418949 335.039899 
L 530.156105 325.515479 
L 534.035341 323.254286 
L 537.77857 335.610908 
L 541.534479 343.513664 
L 545.280565 353.631933 
L 549.156361 364.595294 
L 552.898886 373.503025 
L 556.665315 381.657025 
L 560.537345 390.427714 
L 564.282189 388.280723 
L 568.024263 378.482218 
L 571.771889 366.947849 
L 575.657027 339.904891 
L 579.400197 330.700235 
L 583.146755 325.515479 
L 587.023941 324.830269 
L 590.767605 327.571109 
L 594.502791 334.925697 
L 598.398725 346.962555 
L 602.157357 359.067933 
L 605.883817 370.168336 
L 609.622312 380.012521 
L 613.507569 384.626269 
L 617.261623 377.500084 
L 621.001808 368.36395 
L 624.885908 354.636908 
L 628.631937 339.745008 
L 632.379608 329.215613 
L 636.122234 324.076538 
L 639.999634 324.510504 
L 643.74423 327.868034 
L 647.484728 343.764908 
L 651.373844 356.053008 
L 655.12085 367.199092 
L 658.855055 377.294521 
L 662.621804 387.892437 
L 666.502139 391.546891 
L 670.232682 385.448521 
L 673.98465 375.924101 
L 677.864918 363.430437 
L 681.60554 349.155227 
L 685.362549 327.662471 
L 689.233892 323.437008 
L 692.980319 323.048723 
L 696.732071 325.766723 
L 700.467902 333.509597 
L 708.103911 355.276437 
L 711.853308 366.445361 
L 715.726679 375.946941 
L 719.468361 385.608403 
L 723.216862 388.486286 
L 727.10204 378.390857 
L 730.84893 364.047126 
L 734.603377 349.109546 
L 738.340023 336.821445 
L 742.222007 328.667445 
L 745.975835 326.771697 
L 749.709986 330.152067 
L 753.59803 338.374588 
L 757.342191 352.284353 
L 761.084414 378.162454 
L 764.832113 388.212202 
L 768.712624 395.749513 
L 772.461688 392.391983 
L 776.203969 381.405782 
L 780.083909 371.607277 
L 783.832538 359.273496 
L 787.58054 345.181008 
L 791.322764 333.509597 
L 795.203588 326.24637 
L 798.956267 324.693227 
L 802.69189 329.215613 
L 806.574687 337.986303 
L 814.064178 360.415513 
L 817.944771 370.716504 
L 821.693388 379.487193 
L 825.431027 387.526992 
L 829.189672 385.631244 
L 833.065822 376.403748 
L 836.813487 352.170151 
L 840.540563 339.425244 
L 844.437116 329.718101 
L 848.189133 326.634655 
L 851.93382 329.238454 
L 855.679566 335.10842 
L 859.556926 345.569294 
L 863.306394 361.009361 
L 867.051224 375.124689 
L 870.933162 385.654084 
L 874.680548 394.424773 
L 878.418296 381.771227 
L 882.298932 370.853546 
L 886.047715 362.197059 
L 889.795887 347.876168 
L 893.54171 332.824387 
L 897.419734 322.363513 
L 901.177184 315.922538 
L 904.914728 318.480655 
L 908.793314 327.982235 
L 912.538246 346.254504 
L 920.029362 367.496017 
L 923.910354 375.901261 
L 927.656468 384.603429 
L 931.403101 392.323462 
L 935.275119 388.965933 
L 939.029845 377.865529 
L 942.774285 362.996471 
L 946.651479 335.999193 
L 950.403833 327.411227 
L 954.148959 324.510504 
L 957.889807 325.218555 
L 961.769169 331.134202 
L 965.517858 340.749983 
L 976.890458 374.325277 
L 980.634941 383.666975 
L 984.375881 390.085109 
L 988.253197 380.994655 
L 992.009235 365.942874 
L 995.750341 349.566353 
L 999.627366 335.679429 
L 1003.375995 325.766723 
L 1007.122621 321.792504 
L 1010.860899 324.099378 
L 1014.747412 331.316924 
L 1018.490781 343.696387 
L 1022.237756 371.241832 
L 1026.126806 384.169462 
L 1029.869122 395.772353 
L 1033.606088 400.751546 
L 1037.49325 392.140739 
L 1041.241733 374.508 
L 1044.980806 356.235731 
L 1044.980806 356.235731 
" style="fill:none;stroke:#1f77b4;stroke-linecap:square;stroke-width:0.7;"/>
   </g>
   <g id="line2d_45">
    <path clip-path="url(#peddbe780fc)" d="M -1 358.2 
L 1044.980806 358.2 
L 1044.980806 358.2 
" style="fill:none;stroke:#ff7f0e;stroke-linecap:square;stroke-width:1.5;"/>
   </g>
   <g id="patch_13">
    <path d="M 135 438.141176 
L 135 278.258824 
" style="fill:none;stroke:#000000;stroke-linecap:square;stroke-linejoin:miter;stroke-width:0.8;"/>
   </g>
   <g id="patch_14">
    <path d="M 515.454545 438.141176 
L 515.454545 278.258824 
" style="fill:none;stroke:#000000;stroke-linecap:square;stroke-linejoin:miter;stroke-width:0.8;"/>
   </g>
   <g id="patch_15">
    <path d="M 135 438.141176 
L 515.454545 438.141176 
" style="fill:none;stroke:#000000;stroke-linecap:square;stroke-linejoin:miter;stroke-width:0.8;"/>
   </g>
   <g id="patch_16">
    <path d="M 135 278.258824 
L 515.454545 278.258824 
" style="fill:none;stroke:#000000;stroke-linecap:square;stroke-linejoin:miter;stroke-width:0.8;"/>
   </g>
   <g id="text_45">
    <!-- Motor 3 -->
    <g transform="translate(302.164773 272.258824)scale(0.12 -0.12)">
     <use xlink:href="#DejaVuSans-77"/>
     <use x="86.279297" xlink:href="#DejaVuSans-111"/>
     <use x="147.460938" xlink:href="#DejaVuSans-116"/>
     <use x="186.669922" xlink:href="#DejaVuSans-111"/>
     <use x="247.851562" xlink:href="#DejaVuSans-114"/>
     <use x="288.964844" xlink:href="#DejaVuSans-32"/>
     <use x="320.751953" xlink:href="#DejaVuSans-51"/>
    </g>
   </g>
  </g>
  <g id="axes_4">
   <g id="patch_17">
    <path d="M 591.545455 438.141176 
L 972 438.141176 
L 972 278.258824 
L 591.545455 278.258824 
z
" style="fill:#ffffff;"/>
   </g>
   <g id="matplotlib.axis_7">
    <g id="xtick_16">
     <g id="line2d_46">
      <g>
       <use style="stroke:#000000;stroke-width:0.8;" x="629.590909" xlink:href="#m9012ff1674" y="438.141176"/>
      </g>
     </g>
     <g id="text_46">
      <!-- 6 -->
      <g transform="translate(626.409659 452.739614)scale(0.1 -0.1)">
       <use xlink:href="#DejaVuSans-54"/>
      </g>
     </g>
    </g>
    <g id="xtick_17">
     <g id="line2d_47">
      <g>
       <use style="stroke:#000000;stroke-width:0.8;" x="705.681818" xlink:href="#m9012ff1674" y="438.141176"/>
      </g>
     </g>
     <g id="text_47">
      <!-- 8 -->
      <g transform="translate(702.500568 452.739614)scale(0.1 -0.1)">
       <use xlink:href="#DejaVuSans-56"/>
      </g>
     </g>
    </g>
    <g id="xtick_18">
     <g id="line2d_48">
      <g>
       <use style="stroke:#000000;stroke-width:0.8;" x="781.772727" xlink:href="#m9012ff1674" y="438.141176"/>
      </g>
     </g>
     <g id="text_48">
      <!-- 10 -->
      <g transform="translate(775.410227 452.739614)scale(0.1 -0.1)">
       <use xlink:href="#DejaVuSans-49"/>
       <use x="63.623047" xlink:href="#DejaVuSans-48"/>
      </g>
     </g>
    </g>
    <g id="xtick_19">
     <g id="line2d_49">
      <g>
       <use style="stroke:#000000;stroke-width:0.8;" x="857.863636" xlink:href="#m9012ff1674" y="438.141176"/>
      </g>
     </g>
     <g id="text_49">
      <!-- 12 -->
      <g transform="translate(851.501136 452.739614)scale(0.1 -0.1)">
       <use xlink:href="#DejaVuSans-49"/>
       <use x="63.623047" xlink:href="#DejaVuSans-50"/>
      </g>
     </g>
    </g>
    <g id="xtick_20">
     <g id="line2d_50">
      <g>
       <use style="stroke:#000000;stroke-width:0.8;" x="933.954545" xlink:href="#m9012ff1674" y="438.141176"/>
      </g>
     </g>
     <g id="text_50">
      <!-- 14 -->
      <g transform="translate(927.592045 452.739614)scale(0.1 -0.1)">
       <use xlink:href="#DejaVuSans-49"/>
       <use x="63.623047" xlink:href="#DejaVuSans-52"/>
      </g>
     </g>
    </g>
   </g>
   <g id="matplotlib.axis_8">
    <g id="ytick_25">
     <g id="line2d_51">
      <g>
       <use style="stroke:#000000;stroke-width:0.8;" x="591.545455" xlink:href="#m6bcc182b6f" y="438.141176"/>
      </g>
     </g>
     <g id="text_51">
      <!-- −50 -->
      <g transform="translate(563.440767 441.940395)scale(0.1 -0.1)">
       <use xlink:href="#DejaVuSans-8722"/>
       <use x="83.789062" xlink:href="#DejaVuSans-53"/>
       <use x="147.412109" xlink:href="#DejaVuSans-48"/>
      </g>
     </g>
    </g>
    <g id="ytick_26">
     <g id="line2d_52">
      <g>
       <use style="stroke:#000000;stroke-width:0.8;" x="591.545455" xlink:href="#m6bcc182b6f" y="415.30084"/>
      </g>
     </g>
     <g id="text_52">
      <!-- −40 -->
      <g transform="translate(563.440767 419.100059)scale(0.1 -0.1)">
       <use xlink:href="#DejaVuSans-8722"/>
       <use x="83.789062" xlink:href="#DejaVuSans-52"/>
       <use x="147.412109" xlink:href="#DejaVuSans-48"/>
      </g>
     </g>
    </g>
    <g id="ytick_27">
     <g id="line2d_53">
      <g>
       <use style="stroke:#000000;stroke-width:0.8;" x="591.545455" xlink:href="#m6bcc182b6f" y="392.460504"/>
      </g>
     </g>
     <g id="text_53">
      <!-- −30 -->
      <g transform="translate(563.440767 396.259723)scale(0.1 -0.1)">
       <use xlink:href="#DejaVuSans-8722"/>
       <use x="83.789062" xlink:href="#DejaVuSans-51"/>
       <use x="147.412109" xlink:href="#DejaVuSans-48"/>
      </g>
     </g>
    </g>
    <g id="ytick_28">
     <g id="line2d_54">
      <g>
       <use style="stroke:#000000;stroke-width:0.8;" x="591.545455" xlink:href="#m6bcc182b6f" y="369.620168"/>
      </g>
     </g>
     <g id="text_54">
      <!-- −20 -->
      <g transform="translate(563.440767 373.419387)scale(0.1 -0.1)">
       <use xlink:href="#DejaVuSans-8722"/>
       <use x="83.789062" xlink:href="#DejaVuSans-50"/>
       <use x="147.412109" xlink:href="#DejaVuSans-48"/>
      </g>
     </g>
    </g>
    <g id="ytick_29">
     <g id="line2d_55">
      <g>
       <use style="stroke:#000000;stroke-width:0.8;" x="591.545455" xlink:href="#m6bcc182b6f" y="346.779832"/>
      </g>
     </g>
     <g id="text_55">
      <!-- −10 -->
      <g transform="translate(563.440767 350.579051)scale(0.1 -0.1)">
       <use xlink:href="#DejaVuSans-8722"/>
       <use x="83.789062" xlink:href="#DejaVuSans-49"/>
       <use x="147.412109" xlink:href="#DejaVuSans-48"/>
      </g>
     </g>
    </g>
    <g id="ytick_30">
     <g id="line2d_56">
      <g>
       <use style="stroke:#000000;stroke-width:0.8;" x="591.545455" xlink:href="#m6bcc182b6f" y="323.939496"/>
      </g>
     </g>
     <g id="text_56">
      <!-- 0 -->
      <g transform="translate(578.182955 327.738715)scale(0.1 -0.1)">
       <use xlink:href="#DejaVuSans-48"/>
      </g>
     </g>
    </g>
    <g id="ytick_31">
     <g id="line2d_57">
      <g>
       <use style="stroke:#000000;stroke-width:0.8;" x="591.545455" xlink:href="#m6bcc182b6f" y="301.09916"/>
      </g>
     </g>
     <g id="text_57">
      <!-- 10 -->
      <g transform="translate(571.820455 304.898378)scale(0.1 -0.1)">
       <use xlink:href="#DejaVuSans-49"/>
       <use x="63.623047" xlink:href="#DejaVuSans-48"/>
      </g>
     </g>
    </g>
    <g id="ytick_32">
     <g id="line2d_58">
      <g>
       <use style="stroke:#000000;stroke-width:0.8;" x="591.545455" xlink:href="#m6bcc182b6f" y="278.258824"/>
      </g>
     </g>
     <g id="text_58">
      <!-- 20 -->
      <g transform="translate(571.820455 282.058042)scale(0.1 -0.1)">
       <use xlink:href="#DejaVuSans-50"/>
       <use x="63.623047" xlink:href="#DejaVuSans-48"/>
      </g>
     </g>
    </g>
    <g id="text_59">
     <!-- Force [N] -->
     <g transform="translate(557.36108 380.953906)rotate(-90)scale(0.1 -0.1)">
      <use xlink:href="#DejaVuSans-70"/>
      <use x="53.894531" xlink:href="#DejaVuSans-111"/>
      <use x="115.076172" xlink:href="#DejaVuSans-114"/>
      <use x="153.939453" xlink:href="#DejaVuSans-99"/>
      <use x="208.919922" xlink:href="#DejaVuSans-101"/>
      <use x="270.443359" xlink:href="#DejaVuSans-32"/>
      <use x="302.230469" xlink:href="#DejaVuSans-91"/>
      <use x="341.244141" xlink:href="#DejaVuSans-78"/>
      <use x="416.048828" xlink:href="#DejaVuSans-93"/>
     </g>
    </g>
   </g>
   <g id="line2d_59">
    <path clip-path="url(#p43f63f3180)" d="M 401.318182 321.975227 
L 502.257473 321.998067 
L 506.008534 322.226471 
L 509.74804 323.003042 
L 513.63959 323.619731 
L 517.377566 324.076538 
L 525.009577 325.469798 
L 528.745829 326.360571 
L 532.491078 328.027916 
L 536.244358 331.202723 
L 540.120426 336.570202 
L 543.867268 342.896975 
L 547.606752 350.342924 
L 551.49374 358.337042 
L 555.236373 365.66879 
L 558.978615 374.119714 
L 562.860184 381.131697 
L 566.610611 380.583529 
L 570.355792 371.333193 
L 574.09841 356.258571 
L 577.980928 341.86916 
L 581.726212 330.015025 
L 585.471083 324.579025 
L 589.35647 327.456908 
L 593.105787 337.666538 
L 596.843395 352.238672 
L 600.590521 367.678739 
L 604.470166 394.744538 
L 608.219462 403.241143 
L 611.961533 410.321647 
L 615.842114 401.048471 
L 623.353744 365.942874 
L 630.964728 331.134202 
L 634.713575 319.48563 
L 638.455131 322.454874 
L 642.332457 335.017059 
L 649.822904 367.496017 
L 653.704945 382.890403 
L 657.450432 395.132824 
L 661.184403 394.858739 
L 664.93047 380.012521 
L 668.819699 361.192084 
L 672.577475 348.538538 
L 676.313674 337.209731 
L 680.196206 326.040807 
L 683.936585 312.861933 
L 687.676989 307.722857 
L 691.434509 320.17084 
L 695.308005 337.049849 
L 699.051976 369.802891 
L 702.78857 384.603429 
L 706.683414 399.518168 
L 710.437825 405.77642 
L 714.191149 393.328437 
L 718.052143 369.414605 
L 721.802119 347.442202 
L 725.549637 335.907832 
L 729.291134 327.388387 
L 733.174356 316.402185 
L 736.917786 311.811277 
L 740.6752 319.394269 
L 744.543608 331.408286 
L 748.288069 347.396521 
L 752.035986 364.32121 
L 759.662276 392.84879 
L 763.40709 406.004824 
L 767.143401 404.063395 
L 771.037217 384.900353 
L 774.783931 360.735277 
L 778.527527 343.94763 
L 782.273063 334.149126 
L 786.20451 322.84316 
L 789.903061 306.649361 
L 793.639697 316.790471 
L 797.529619 332.070655 
L 801.26933 347.328 
L 805.008979 361.60321 
L 808.897506 377.363042 
L 812.642142 392.049378 
L 816.394365 395.338387 
L 820.140509 384.649109 
L 824.015358 365.988555 
L 827.771969 350.662689 
L 831.498395 340.019092 
L 835.38828 329.489697 
L 839.13906 319.736874 
L 842.889597 320.330723 
L 846.633462 332.824387 
L 850.51082 351.233697 
L 854.256744 366.011395 
L 858.002571 379.647076 
L 861.887311 394.90442 
L 865.632352 408.540101 
L 869.376265 409.86484 
L 873.122024 392.894471 
L 877.001443 367.381815 
L 880.758517 335.473866 
L 884.501759 326.474773 
L 888.370522 314.643479 
L 892.111244 308.133983 
L 895.864826 316.881832 
L 899.744708 330.608874 
L 903.495671 348.584218 
L 907.235519 363.019311 
L 910.984605 374.074034 
L 914.862847 389.696824 
L 918.61652 402.830017 
L 922.355956 400.454622 
L 926.236201 383.644134 
L 929.989158 360.004387 
L 933.729918 340.955546 
L 937.473962 331.910773 
L 941.356114 323.391328 
L 945.10337 315.945378 
L 948.846718 315.785496 
L 952.758881 324.396303 
L 956.460472 336.707244 
L 960.205614 352.535597 
L 963.955331 367.03921 
L 967.835635 378.824824 
L 971.579126 388.669008 
L 975.319708 393.328437 
L 979.210993 383.918218 
L 982.964403 364.34405 
L 986.701559 347.35084 
L 990.580795 336.661563 
L 994.324024 327.365546 
L 998.079934 323.619731 
L 1001.826019 329.581059 
L 1005.701816 343.764908 
L 1009.444341 360.735277 
L 1013.210769 372.178286 
L 1017.0828 385.334319 
L 1020.827644 399.700891 
L 1024.569718 399.65521 
L 1028.317344 386.72758 
L 1032.202482 367.70158 
L 1035.945651 346.688471 
L 1039.692209 331.248403 
L 1043.569395 325.150034 
L 1047.313059 319.965277 
L 1051.048246 319.48563 
L 1054.94418 327.068622 
L 1058.702811 339.242521 
L 1062.429271 354.362824 
L 1066.167767 368.797916 
L 1070.053024 386.362134 
L 1073.807077 391.341328 
L 1077.547263 390.519076 
L 1081 381.341794 
L 1081 381.341794 
" style="fill:none;stroke:#1f77b4;stroke-linecap:square;stroke-width:0.7;"/>
   </g>
   <g id="line2d_60">
    <path clip-path="url(#p43f63f3180)" d="M 401.318182 358.2 
L 1081 358.2 
L 1081 358.2 
" style="fill:none;stroke:#ff7f0e;stroke-linecap:square;stroke-width:1.5;"/>
   </g>
   <g id="patch_18">
    <path d="M 591.545455 438.141176 
L 591.545455 278.258824 
" style="fill:none;stroke:#000000;stroke-linecap:square;stroke-linejoin:miter;stroke-width:0.8;"/>
   </g>
   <g id="patch_19">
    <path d="M 972 438.141176 
L 972 278.258824 
" style="fill:none;stroke:#000000;stroke-linecap:square;stroke-linejoin:miter;stroke-width:0.8;"/>
   </g>
   <g id="patch_20">
    <path d="M 591.545455 438.141176 
L 972 438.141176 
" style="fill:none;stroke:#000000;stroke-linecap:square;stroke-linejoin:miter;stroke-width:0.8;"/>
   </g>
   <g id="patch_21">
    <path d="M 591.545455 278.258824 
L 972 278.258824 
" style="fill:none;stroke:#000000;stroke-linecap:square;stroke-linejoin:miter;stroke-width:0.8;"/>
   </g>
   <g id="text_60">
    <!-- Motor 4 -->
    <g transform="translate(758.710227 272.258824)scale(0.12 -0.12)">
     <use xlink:href="#DejaVuSans-77"/>
     <use x="86.279297" xlink:href="#DejaVuSans-111"/>
     <use x="147.460938" xlink:href="#DejaVuSans-116"/>
     <use x="186.669922" xlink:href="#DejaVuSans-111"/>
     <use x="247.851562" xlink:href="#DejaVuSans-114"/>
     <use x="288.964844" xlink:href="#DejaVuSans-32"/>
     <use x="320.751953" xlink:href="#DejaVuSans-52"/>
    </g>
   </g>
  </g>
  <g id="axes_5">
   <g id="patch_22">
    <path d="M 135 630 
L 515.454545 630 
L 515.454545 470.117647 
L 135 470.117647 
z
" style="fill:#ffffff;"/>
   </g>
   <g id="matplotlib.axis_9">
    <g id="xtick_21">
     <g id="line2d_61">
      <g>
       <use style="stroke:#000000;stroke-width:0.8;" x="173.045455" xlink:href="#m9012ff1674" y="630"/>
      </g>
     </g>
     <g id="text_61">
      <!-- 6 -->
      <g transform="translate(169.864205 644.598438)scale(0.1 -0.1)">
       <use xlink:href="#DejaVuSans-54"/>
      </g>
     </g>
    </g>
    <g id="xtick_22">
     <g id="line2d_62">
      <g>
       <use style="stroke:#000000;stroke-width:0.8;" x="249.136364" xlink:href="#m9012ff1674" y="630"/>
      </g>
     </g>
     <g id="text_62">
      <!-- 8 -->
      <g transform="translate(245.955114 644.598438)scale(0.1 -0.1)">
       <use xlink:href="#DejaVuSans-56"/>
      </g>
     </g>
    </g>
    <g id="xtick_23">
     <g id="line2d_63">
      <g>
       <use style="stroke:#000000;stroke-width:0.8;" x="325.227273" xlink:href="#m9012ff1674" y="630"/>
      </g>
     </g>
     <g id="text_63">
      <!-- 10 -->
      <g transform="translate(318.864773 644.598438)scale(0.1 -0.1)">
       <use xlink:href="#DejaVuSans-49"/>
       <use x="63.623047" xlink:href="#DejaVuSans-48"/>
      </g>
     </g>
    </g>
    <g id="xtick_24">
     <g id="line2d_64">
      <g>
       <use style="stroke:#000000;stroke-width:0.8;" x="401.318182" xlink:href="#m9012ff1674" y="630"/>
      </g>
     </g>
     <g id="text_64">
      <!-- 12 -->
      <g transform="translate(394.955682 644.598438)scale(0.1 -0.1)">
       <use xlink:href="#DejaVuSans-49"/>
       <use x="63.623047" xlink:href="#DejaVuSans-50"/>
      </g>
     </g>
    </g>
    <g id="xtick_25">
     <g id="line2d_65">
      <g>
       <use style="stroke:#000000;stroke-width:0.8;" x="477.409091" xlink:href="#m9012ff1674" y="630"/>
      </g>
     </g>
     <g id="text_65">
      <!-- 14 -->
      <g transform="translate(471.046591 644.598438)scale(0.1 -0.1)">
       <use xlink:href="#DejaVuSans-49"/>
       <use x="63.623047" xlink:href="#DejaVuSans-52"/>
      </g>
     </g>
    </g>
    <g id="text_66">
     <!-- Time [s] -->
     <g transform="translate(304.898366 658.276562)scale(0.1 -0.1)">
      <defs>
       <path d="M -0.296875 72.90625 
L 61.375 72.90625 
L 61.375 64.59375 
L 35.5 64.59375 
L 35.5 0 
L 25.59375 0 
L 25.59375 64.59375 
L -0.296875 64.59375 
z
" id="DejaVuSans-84"/>
       <path d="M 9.421875 54.6875 
L 18.40625 54.6875 
L 18.40625 0 
L 9.421875 0 
z
M 9.421875 75.984375 
L 18.40625 75.984375 
L 18.40625 64.59375 
L 9.421875 64.59375 
z
" id="DejaVuSans-105"/>
       <path d="M 52 44.1875 
Q 55.375 50.25 60.0625 53.125 
Q 64.75 56 71.09375 56 
Q 79.640625 56 84.28125 50.015625 
Q 88.921875 44.046875 88.921875 33.015625 
L 88.921875 0 
L 79.890625 0 
L 79.890625 32.71875 
Q 79.890625 40.578125 77.09375 44.375 
Q 74.3125 48.1875 68.609375 48.1875 
Q 61.625 48.1875 57.5625 43.546875 
Q 53.515625 38.921875 53.515625 30.90625 
L 53.515625 0 
L 44.484375 0 
L 44.484375 32.71875 
Q 44.484375 40.625 41.703125 44.40625 
Q 38.921875 48.1875 33.109375 48.1875 
Q 26.21875 48.1875 22.15625 43.53125 
Q 18.109375 38.875 18.109375 30.90625 
L 18.109375 0 
L 9.078125 0 
L 9.078125 54.6875 
L 18.109375 54.6875 
L 18.109375 46.1875 
Q 21.1875 51.21875 25.484375 53.609375 
Q 29.78125 56 35.6875 56 
Q 41.65625 56 45.828125 52.96875 
Q 50 49.953125 52 44.1875 
z
" id="DejaVuSans-109"/>
       <path d="M 44.28125 53.078125 
L 44.28125 44.578125 
Q 40.484375 46.53125 36.375 47.5 
Q 32.28125 48.484375 27.875 48.484375 
Q 21.1875 48.484375 17.84375 46.4375 
Q 14.5 44.390625 14.5 40.28125 
Q 14.5 37.15625 16.890625 35.375 
Q 19.28125 33.59375 26.515625 31.984375 
L 29.59375 31.296875 
Q 39.15625 29.25 43.1875 25.515625 
Q 47.21875 21.78125 47.21875 15.09375 
Q 47.21875 7.46875 41.1875 3.015625 
Q 35.15625 -1.421875 24.609375 -1.421875 
Q 20.21875 -1.421875 15.453125 -0.5625 
Q 10.6875 0.296875 5.421875 2 
L 5.421875 11.28125 
Q 10.40625 8.6875 15.234375 7.390625 
Q 20.0625 6.109375 24.8125 6.109375 
Q 31.15625 6.109375 34.5625 8.28125 
Q 37.984375 10.453125 37.984375 14.40625 
Q 37.984375 18.0625 35.515625 20.015625 
Q 33.0625 21.96875 24.703125 23.78125 
L 21.578125 24.515625 
Q 13.234375 26.265625 9.515625 29.90625 
Q 5.8125 33.546875 5.8125 39.890625 
Q 5.8125 47.609375 11.28125 51.796875 
Q 16.75 56 26.8125 56 
Q 31.78125 56 36.171875 55.265625 
Q 40.578125 54.546875 44.28125 53.078125 
z
" id="DejaVuSans-115"/>
      </defs>
      <use xlink:href="#DejaVuSans-84"/>
      <use x="57.958984" xlink:href="#DejaVuSans-105"/>
      <use x="85.742188" xlink:href="#DejaVuSans-109"/>
      <use x="183.154297" xlink:href="#DejaVuSans-101"/>
      <use x="244.677734" xlink:href="#DejaVuSans-32"/>
      <use x="276.464844" xlink:href="#DejaVuSans-91"/>
      <use x="315.478516" xlink:href="#DejaVuSans-115"/>
      <use x="367.578125" xlink:href="#DejaVuSans-93"/>
     </g>
    </g>
   </g>
   <g id="matplotlib.axis_10">
    <g id="ytick_33">
     <g id="line2d_66">
      <g>
       <use style="stroke:#000000;stroke-width:0.8;" x="135" xlink:href="#m6bcc182b6f" y="630"/>
      </g>
     </g>
     <g id="text_67">
      <!-- −50 -->
      <g transform="translate(106.895313 633.799219)scale(0.1 -0.1)">
       <use xlink:href="#DejaVuSans-8722"/>
       <use x="83.789062" xlink:href="#DejaVuSans-53"/>
       <use x="147.412109" xlink:href="#DejaVuSans-48"/>
      </g>
     </g>
    </g>
    <g id="ytick_34">
     <g id="line2d_67">
      <g>
       <use style="stroke:#000000;stroke-width:0.8;" x="135" xlink:href="#m6bcc182b6f" y="607.159664"/>
      </g>
     </g>
     <g id="text_68">
      <!-- −40 -->
      <g transform="translate(106.895313 610.958883)scale(0.1 -0.1)">
       <use xlink:href="#DejaVuSans-8722"/>
       <use x="83.789062" xlink:href="#DejaVuSans-52"/>
       <use x="147.412109" xlink:href="#DejaVuSans-48"/>
      </g>
     </g>
    </g>
    <g id="ytick_35">
     <g id="line2d_68">
      <g>
       <use style="stroke:#000000;stroke-width:0.8;" x="135" xlink:href="#m6bcc182b6f" y="584.319328"/>
      </g>
     </g>
     <g id="text_69">
      <!-- −30 -->
      <g transform="translate(106.895313 588.118546)scale(0.1 -0.1)">
       <use xlink:href="#DejaVuSans-8722"/>
       <use x="83.789062" xlink:href="#DejaVuSans-51"/>
       <use x="147.412109" xlink:href="#DejaVuSans-48"/>
      </g>
     </g>
    </g>
    <g id="ytick_36">
     <g id="line2d_69">
      <g>
       <use style="stroke:#000000;stroke-width:0.8;" x="135" xlink:href="#m6bcc182b6f" y="561.478992"/>
      </g>
     </g>
     <g id="text_70">
      <!-- −20 -->
      <g transform="translate(106.895313 565.27821)scale(0.1 -0.1)">
       <use xlink:href="#DejaVuSans-8722"/>
       <use x="83.789062" xlink:href="#DejaVuSans-50"/>
       <use x="147.412109" xlink:href="#DejaVuSans-48"/>
      </g>
     </g>
    </g>
    <g id="ytick_37">
     <g id="line2d_70">
      <g>
       <use style="stroke:#000000;stroke-width:0.8;" x="135" xlink:href="#m6bcc182b6f" y="538.638655"/>
      </g>
     </g>
     <g id="text_71">
      <!-- −10 -->
      <g transform="translate(106.895313 542.437874)scale(0.1 -0.1)">
       <use xlink:href="#DejaVuSans-8722"/>
       <use x="83.789062" xlink:href="#DejaVuSans-49"/>
       <use x="147.412109" xlink:href="#DejaVuSans-48"/>
      </g>
     </g>
    </g>
    <g id="ytick_38">
     <g id="line2d_71">
      <g>
       <use style="stroke:#000000;stroke-width:0.8;" x="135" xlink:href="#m6bcc182b6f" y="515.798319"/>
      </g>
     </g>
     <g id="text_72">
      <!-- 0 -->
      <g transform="translate(121.6375 519.597538)scale(0.1 -0.1)">
       <use xlink:href="#DejaVuSans-48"/>
      </g>
     </g>
    </g>
    <g id="ytick_39">
     <g id="line2d_72">
      <g>
       <use style="stroke:#000000;stroke-width:0.8;" x="135" xlink:href="#m6bcc182b6f" y="492.957983"/>
      </g>
     </g>
     <g id="text_73">
      <!-- 10 -->
      <g transform="translate(115.275 496.757202)scale(0.1 -0.1)">
       <use xlink:href="#DejaVuSans-49"/>
       <use x="63.623047" xlink:href="#DejaVuSans-48"/>
      </g>
     </g>
    </g>
    <g id="ytick_40">
     <g id="line2d_73">
      <g>
       <use style="stroke:#000000;stroke-width:0.8;" x="135" xlink:href="#m6bcc182b6f" y="470.117647"/>
      </g>
     </g>
     <g id="text_74">
      <!-- 20 -->
      <g transform="translate(115.275 473.916866)scale(0.1 -0.1)">
       <use xlink:href="#DejaVuSans-50"/>
       <use x="63.623047" xlink:href="#DejaVuSans-48"/>
      </g>
     </g>
    </g>
    <g id="text_75">
     <!-- Force [N] -->
     <g transform="translate(100.815625 572.81273)rotate(-90)scale(0.1 -0.1)">
      <use xlink:href="#DejaVuSans-70"/>
      <use x="53.894531" xlink:href="#DejaVuSans-111"/>
      <use x="115.076172" xlink:href="#DejaVuSans-114"/>
      <use x="153.939453" xlink:href="#DejaVuSans-99"/>
      <use x="208.919922" xlink:href="#DejaVuSans-101"/>
      <use x="270.443359" xlink:href="#DejaVuSans-32"/>
      <use x="302.230469" xlink:href="#DejaVuSans-91"/>
      <use x="341.244141" xlink:href="#DejaVuSans-78"/>
      <use x="416.048828" xlink:href="#DejaVuSans-93"/>
     </g>
    </g>
   </g>
   <g id="line2d_74">
    <path clip-path="url(#pbd875b4138)" d="M -1 508.809176 
L 49.463079 508.832017 
L 64.574056 509.174622 
L 68.464123 509.128941 
L 72.200375 509.859832 
L 75.945623 512.326588 
L 79.698904 515.13595 
L 83.574971 518.744723 
L 91.061298 529.593882 
L 94.948286 534.710118 
L 102.43316 542.818437 
L 106.31473 549.602017 
L 110.065157 559.377681 
L 113.810338 571.460218 
L 117.552955 587.836739 
L 121.435474 603.048403 
L 125.180757 602.682958 
L 128.925628 552.594101 
L 132.811015 527.743815 
L 136.560333 513.400084 
L 140.29794 502.116958 
L 144.045067 490.125782 
L 147.924712 491.724605 
L 151.674008 508.078286 
L 159.29666 545.833361 
L 163.042795 561.890118 
L 166.808289 575.000471 
L 170.66849 591.856639 
L 174.419273 604.213261 
L 178.168121 607.068303 
L 181.909677 596.150622 
L 185.787002 570.318202 
L 189.535864 524.340605 
L 193.277449 513.217361 
L 197.15949 501.271866 
L 200.904977 494.12284 
L 204.638949 504.972 
L 208.385015 521.485563 
L 216.032021 546.358689 
L 223.650752 588.955916 
L 227.39113 601.061294 
L 231.131534 608.050437 
L 234.889055 602.386034 
L 238.762551 579.888303 
L 242.506522 556.157193 
L 246.243116 534.298992 
L 250.137959 502.91637 
L 253.892371 490.514067 
L 257.645695 488.458437 
L 265.256664 518.744723 
L 269.004182 527.492571 
L 272.74568 543.183882 
L 276.628901 564.448235 
L 280.372331 580.847597 
L 284.129746 593.044336 
L 287.998154 600.535966 
L 291.742614 592.359126 
L 295.490532 571.140454 
L 299.236254 548.43716 
L 303.116821 526.875882 
L 306.861635 511.869782 
L 310.597946 500.769378 
L 314.491762 512.988958 
L 318.238476 525.528303 
L 321.982073 536.92563 
L 325.727609 558.235664 
L 329.659056 578.266639 
L 333.357606 592.541849 
L 337.094243 601.038454 
L 340.984164 589.412723 
L 344.723875 563.991429 
L 348.463524 541.973345 
L 352.352051 523.632555 
L 356.096687 510.43084 
L 359.848911 499.284756 
L 363.595055 498.668067 
L 371.226514 527.789496 
L 374.952941 556.134353 
L 378.842825 573.995496 
L 382.593605 587.402773 
L 386.344143 595.922218 
L 390.088007 590.143613 
L 393.965365 573.081882 
L 397.71129 554.284286 
L 401.457117 530.78158 
L 405.341857 512.783395 
L 409.086897 498.919311 
L 412.83081 488.755361 
L 416.576569 495.287697 
L 420.455988 513.582807 
L 424.213062 525.528303 
L 427.956304 536.537345 
L 431.825068 556.659681 
L 435.56579 574.635025 
L 439.319372 598.845782 
L 443.199253 600.353244 
L 446.950216 582.880387 
L 450.690065 563.077815 
L 454.439151 541.539378 
L 458.317392 521.28 
L 462.071066 508.078286 
L 465.810501 497.937176 
L 469.690747 498.645227 
L 473.443703 511.504336 
L 477.184463 523.015866 
L 480.928507 532.403244 
L 484.810659 549.784739 
L 488.557915 568.057008 
L 492.301264 583.908202 
L 496.213427 594.962924 
L 499.915018 598.594538 
L 503.660159 582.926067 
L 507.409877 564.128471 
L 511.29018 543.092521 
L 515.033671 526.419076 
L 518.774254 516.049563 
L 522.665539 511.550017 
L 526.418949 518.744723 
L 530.156105 530.598857 
L 534.035341 539.986235 
L 537.77857 553.644756 
L 541.534479 569.952756 
L 545.280565 584.319328 
L 549.156361 594.369076 
L 552.898886 590.943025 
L 556.665315 575.000471 
L 560.537345 553.87316 
L 564.282189 516.415008 
L 568.024263 506.479462 
L 571.771889 498.18842 
L 575.657027 496.658118 
L 579.400197 507.370235 
L 583.146755 516.300807 
L 587.023941 523.244269 
L 590.767605 537.336756 
L 594.502791 554.421328 
L 598.398725 568.902101 
L 602.157357 579.04321 
L 605.883817 586.352118 
L 609.622312 585.986672 
L 613.507569 571.939866 
L 617.261623 550.332908 
L 624.885908 511.161731 
L 628.631937 505.428807 
L 632.379608 508.946218 
L 639.999634 523.130067 
L 643.74423 537.016992 
L 647.484728 553.781798 
L 651.373844 567.805765 
L 655.12085 578.106756 
L 658.855055 586.991647 
L 662.621804 585.940992 
L 666.502139 567.029193 
L 670.232682 544.257378 
L 673.98465 527.40121 
L 677.864918 516.986017 
L 681.60554 509.03758 
L 685.362549 505.405966 
L 689.233892 516.300807 
L 692.980319 523.906639 
L 696.732071 537.770723 
L 700.467902 554.398487 
L 704.357067 568.993462 
L 708.103911 579.865462 
L 711.853308 587.105849 
L 715.726679 583.999563 
L 719.468361 563.329059 
L 723.216862 539.255345 
L 727.10204 523.221429 
L 730.84893 513.468605 
L 734.603377 505.291765 
L 738.340023 507.301714 
L 742.222007 518.036672 
L 745.975835 525.414101 
L 749.709986 554.467008 
L 753.59803 570.386723 
L 757.342191 581.235882 
L 761.084414 586.808924 
L 764.832113 583.565597 
L 768.712624 571.163294 
L 772.461688 551.611966 
L 776.203969 533.568101 
L 780.083909 520.57195 
L 783.832538 511.412975 
L 787.58054 504.195429 
L 791.322764 508.215328 
L 795.203588 517.031697 
L 798.956267 523.838118 
L 802.69189 536.605866 
L 810.321399 568.582336 
L 814.064178 586.283597 
L 817.944771 583.268672 
L 821.693388 569.632992 
L 825.431027 546.929697 
L 829.189672 529.045714 
L 833.065822 517.305782 
L 836.813487 509.540067 
L 840.540563 510.293798 
L 844.437116 518.424958 
L 848.189133 525.36842 
L 851.93382 534.915681 
L 859.556926 569.130504 
L 863.306394 582.377899 
L 867.051224 590.714622 
L 870.933162 590.097933 
L 874.680548 556.979445 
L 878.418296 538.821378 
L 882.298932 524.728891 
L 886.047715 514.542101 
L 889.795887 508.35237 
L 893.54171 511.77842 
L 897.419734 521.736807 
L 901.177184 528.954353 
L 904.914728 537.633681 
L 908.793314 551.817529 
L 912.538246 567.486 
L 916.348206 581.372924 
L 920.029362 590.303496 
L 923.910354 589.389882 
L 927.656468 575.959765 
L 931.403101 552.571261 
L 935.275119 519.407092 
L 939.029845 509.69995 
L 942.774285 503.373176 
L 946.651479 507.735681 
L 950.403833 517.511345 
L 954.148959 523.952319 
L 957.889807 533.773664 
L 961.769169 548.46 
L 965.517858 563.42042 
L 969.261602 576.462252 
L 973.143207 586.557681 
L 976.890458 594.803042 
L 980.634941 596.219143 
L 984.375881 580.527832 
L 988.253197 557.778857 
L 992.009235 541.01405 
L 995.750341 528.06358 
L 999.627366 513.126 
L 1003.375995 509.791311 
L 1007.122621 513.034639 
L 1010.860899 520.983076 
L 1014.747412 533.750824 
L 1018.490781 548.208756 
L 1022.237756 561.547513 
L 1026.126806 572.647916 
L 1029.869122 582.743345 
L 1033.606088 587.402773 
L 1037.49325 579.774101 
L 1044.980806 545.467916 
L 1044.980806 545.467916 
" style="fill:none;stroke:#1f77b4;stroke-linecap:square;stroke-width:0.7;"/>
   </g>
   <g id="line2d_75">
    <path clip-path="url(#pbd875b4138)" d="M -1 550.058824 
L 1044.980806 550.058824 
L 1044.980806 550.058824 
" style="fill:none;stroke:#ff7f0e;stroke-linecap:square;stroke-width:1.5;"/>
   </g>
   <g id="patch_23">
    <path d="M 135 630 
L 135 470.117647 
" style="fill:none;stroke:#000000;stroke-linecap:square;stroke-linejoin:miter;stroke-width:0.8;"/>
   </g>
   <g id="patch_24">
    <path d="M 515.454545 630 
L 515.454545 470.117647 
" style="fill:none;stroke:#000000;stroke-linecap:square;stroke-linejoin:miter;stroke-width:0.8;"/>
   </g>
   <g id="patch_25">
    <path d="M 135 630 
L 515.454545 630 
" style="fill:none;stroke:#000000;stroke-linecap:square;stroke-linejoin:miter;stroke-width:0.8;"/>
   </g>
   <g id="patch_26">
    <path d="M 135 470.117647 
L 515.454545 470.117647 
" style="fill:none;stroke:#000000;stroke-linecap:square;stroke-linejoin:miter;stroke-width:0.8;"/>
   </g>
   <g id="text_76">
    <!-- Motor 5 -->
    <g transform="translate(302.164773 464.117647)scale(0.12 -0.12)">
     <use xlink:href="#DejaVuSans-77"/>
     <use x="86.279297" xlink:href="#DejaVuSans-111"/>
     <use x="147.460938" xlink:href="#DejaVuSans-116"/>
     <use x="186.669922" xlink:href="#DejaVuSans-111"/>
     <use x="247.851562" xlink:href="#DejaVuSans-114"/>
     <use x="288.964844" xlink:href="#DejaVuSans-32"/>
     <use x="320.751953" xlink:href="#DejaVuSans-53"/>
    </g>
   </g>
  </g>
  <g id="axes_6">
   <g id="patch_27">
    <path d="M 591.545455 630 
L 972 630 
L 972 470.117647 
L 591.545455 470.117647 
z
" style="fill:#ffffff;"/>
   </g>
   <g id="matplotlib.axis_11">
    <g id="xtick_26">
     <g id="line2d_76">
      <g>
       <use style="stroke:#000000;stroke-width:0.8;" x="629.590909" xlink:href="#m9012ff1674" y="630"/>
      </g>
     </g>
     <g id="text_77">
      <!-- 6 -->
      <g transform="translate(626.409659 644.598438)scale(0.1 -0.1)">
       <use xlink:href="#DejaVuSans-54"/>
      </g>
     </g>
    </g>
    <g id="xtick_27">
     <g id="line2d_77">
      <g>
       <use style="stroke:#000000;stroke-width:0.8;" x="705.681818" xlink:href="#m9012ff1674" y="630"/>
      </g>
     </g>
     <g id="text_78">
      <!-- 8 -->
      <g transform="translate(702.500568 644.598438)scale(0.1 -0.1)">
       <use xlink:href="#DejaVuSans-56"/>
      </g>
     </g>
    </g>
    <g id="xtick_28">
     <g id="line2d_78">
      <g>
       <use style="stroke:#000000;stroke-width:0.8;" x="781.772727" xlink:href="#m9012ff1674" y="630"/>
      </g>
     </g>
     <g id="text_79">
      <!-- 10 -->
      <g transform="translate(775.410227 644.598438)scale(0.1 -0.1)">
       <use xlink:href="#DejaVuSans-49"/>
       <use x="63.623047" xlink:href="#DejaVuSans-48"/>
      </g>
     </g>
    </g>
    <g id="xtick_29">
     <g id="line2d_79">
      <g>
       <use style="stroke:#000000;stroke-width:0.8;" x="857.863636" xlink:href="#m9012ff1674" y="630"/>
      </g>
     </g>
     <g id="text_80">
      <!-- 12 -->
      <g transform="translate(851.501136 644.598438)scale(0.1 -0.1)">
       <use xlink:href="#DejaVuSans-49"/>
       <use x="63.623047" xlink:href="#DejaVuSans-50"/>
      </g>
     </g>
    </g>
    <g id="xtick_30">
     <g id="line2d_80">
      <g>
       <use style="stroke:#000000;stroke-width:0.8;" x="933.954545" xlink:href="#m9012ff1674" y="630"/>
      </g>
     </g>
     <g id="text_81">
      <!-- 14 -->
      <g transform="translate(927.592045 644.598438)scale(0.1 -0.1)">
       <use xlink:href="#DejaVuSans-49"/>
       <use x="63.623047" xlink:href="#DejaVuSans-52"/>
      </g>
     </g>
    </g>
    <g id="text_82">
     <!-- Time [s] -->
     <g transform="translate(761.443821 658.276562)scale(0.1 -0.1)">
      <use xlink:href="#DejaVuSans-84"/>
      <use x="57.958984" xlink:href="#DejaVuSans-105"/>
      <use x="85.742188" xlink:href="#DejaVuSans-109"/>
      <use x="183.154297" xlink:href="#DejaVuSans-101"/>
      <use x="244.677734" xlink:href="#DejaVuSans-32"/>
      <use x="276.464844" xlink:href="#DejaVuSans-91"/>
      <use x="315.478516" xlink:href="#DejaVuSans-115"/>
      <use x="367.578125" xlink:href="#DejaVuSans-93"/>
     </g>
    </g>
   </g>
   <g id="matplotlib.axis_12">
    <g id="ytick_41">
     <g id="line2d_81">
      <g>
       <use style="stroke:#000000;stroke-width:0.8;" x="591.545455" xlink:href="#m6bcc182b6f" y="630"/>
      </g>
     </g>
     <g id="text_83">
      <!-- −50 -->
      <g transform="translate(563.440767 633.799219)scale(0.1 -0.1)">
       <use xlink:href="#DejaVuSans-8722"/>
       <use x="83.789062" xlink:href="#DejaVuSans-53"/>
       <use x="147.412109" xlink:href="#DejaVuSans-48"/>
      </g>
     </g>
    </g>
    <g id="ytick_42">
     <g id="line2d_82">
      <g>
       <use style="stroke:#000000;stroke-width:0.8;" x="591.545455" xlink:href="#m6bcc182b6f" y="607.159664"/>
      </g>
     </g>
     <g id="text_84">
      <!-- −40 -->
      <g transform="translate(563.440767 610.958883)scale(0.1 -0.1)">
       <use xlink:href="#DejaVuSans-8722"/>
       <use x="83.789062" xlink:href="#DejaVuSans-52"/>
       <use x="147.412109" xlink:href="#DejaVuSans-48"/>
      </g>
     </g>
    </g>
    <g id="ytick_43">
     <g id="line2d_83">
      <g>
       <use style="stroke:#000000;stroke-width:0.8;" x="591.545455" xlink:href="#m6bcc182b6f" y="584.319328"/>
      </g>
     </g>
     <g id="text_85">
      <!-- −30 -->
      <g transform="translate(563.440767 588.118546)scale(0.1 -0.1)">
       <use xlink:href="#DejaVuSans-8722"/>
       <use x="83.789062" xlink:href="#DejaVuSans-51"/>
       <use x="147.412109" xlink:href="#DejaVuSans-48"/>
      </g>
     </g>
    </g>
    <g id="ytick_44">
     <g id="line2d_84">
      <g>
       <use style="stroke:#000000;stroke-width:0.8;" x="591.545455" xlink:href="#m6bcc182b6f" y="561.478992"/>
      </g>
     </g>
     <g id="text_86">
      <!-- −20 -->
      <g transform="translate(563.440767 565.27821)scale(0.1 -0.1)">
       <use xlink:href="#DejaVuSans-8722"/>
       <use x="83.789062" xlink:href="#DejaVuSans-50"/>
       <use x="147.412109" xlink:href="#DejaVuSans-48"/>
      </g>
     </g>
    </g>
    <g id="ytick_45">
     <g id="line2d_85">
      <g>
       <use style="stroke:#000000;stroke-width:0.8;" x="591.545455" xlink:href="#m6bcc182b6f" y="538.638655"/>
      </g>
     </g>
     <g id="text_87">
      <!-- −10 -->
      <g transform="translate(563.440767 542.437874)scale(0.1 -0.1)">
       <use xlink:href="#DejaVuSans-8722"/>
       <use x="83.789062" xlink:href="#DejaVuSans-49"/>
       <use x="147.412109" xlink:href="#DejaVuSans-48"/>
      </g>
     </g>
    </g>
    <g id="ytick_46">
     <g id="line2d_86">
      <g>
       <use style="stroke:#000000;stroke-width:0.8;" x="591.545455" xlink:href="#m6bcc182b6f" y="515.798319"/>
      </g>
     </g>
     <g id="text_88">
      <!-- 0 -->
      <g transform="translate(578.182955 519.597538)scale(0.1 -0.1)">
       <use xlink:href="#DejaVuSans-48"/>
      </g>
     </g>
    </g>
    <g id="ytick_47">
     <g id="line2d_87">
      <g>
       <use style="stroke:#000000;stroke-width:0.8;" x="591.545455" xlink:href="#m6bcc182b6f" y="492.957983"/>
      </g>
     </g>
     <g id="text_89">
      <!-- 10 -->
      <g transform="translate(571.820455 496.757202)scale(0.1 -0.1)">
       <use xlink:href="#DejaVuSans-49"/>
       <use x="63.623047" xlink:href="#DejaVuSans-48"/>
      </g>
     </g>
    </g>
    <g id="ytick_48">
     <g id="line2d_88">
      <g>
       <use style="stroke:#000000;stroke-width:0.8;" x="591.545455" xlink:href="#m6bcc182b6f" y="470.117647"/>
      </g>
     </g>
     <g id="text_90">
      <!-- 20 -->
      <g transform="translate(571.820455 473.916866)scale(0.1 -0.1)">
       <use xlink:href="#DejaVuSans-50"/>
       <use x="63.623047" xlink:href="#DejaVuSans-48"/>
      </g>
     </g>
    </g>
    <g id="text_91">
     <!-- Force [N] -->
     <g transform="translate(557.36108 572.81273)rotate(-90)scale(0.1 -0.1)">
      <use xlink:href="#DejaVuSans-70"/>
      <use x="53.894531" xlink:href="#DejaVuSans-111"/>
      <use x="115.076172" xlink:href="#DejaVuSans-114"/>
      <use x="153.939453" xlink:href="#DejaVuSans-99"/>
      <use x="208.919922" xlink:href="#DejaVuSans-101"/>
      <use x="270.443359" xlink:href="#DejaVuSans-32"/>
      <use x="302.230469" xlink:href="#DejaVuSans-91"/>
      <use x="341.244141" xlink:href="#DejaVuSans-78"/>
      <use x="416.048828" xlink:href="#DejaVuSans-93"/>
     </g>
    </g>
   </g>
   <g id="line2d_89">
    <path clip-path="url(#pf630172784)" d="M 401.318182 512.052504 
L 498.518289 512.052504 
L 502.257473 512.235227 
L 509.74804 513.445765 
L 513.63959 513.948252 
L 525.009577 516.026723 
L 528.745829 517.831109 
L 532.491078 522.239294 
L 536.244358 529.662403 
L 540.120426 538.181849 
L 543.867268 546.746975 
L 547.606752 555.700387 
L 551.49374 565.361849 
L 555.236373 573.401647 
L 558.978615 571.917025 
L 562.860184 555.974471 
L 566.610611 531.101345 
L 570.355792 508.923378 
L 574.09841 492.432655 
L 577.980928 492.135731 
L 581.726212 503.373176 
L 585.471083 519.22437 
L 589.35647 537.61084 
L 596.843395 577.056101 
L 600.590521 588.704672 
L 604.470166 583.565597 
L 608.219462 563.648824 
L 611.961533 538.136168 
L 615.842114 519.155849 
L 619.58825 506.456622 
L 623.353744 500.90642 
L 627.213944 508.603613 
L 630.964728 520.023782 
L 634.713575 532.197681 
L 638.455131 550.447109 
L 642.332457 567.919966 
L 646.081319 581.076 
L 649.822904 585.689748 
L 653.704945 578.746286 
L 657.450432 568.057008 
L 661.184403 550.675513 
L 664.93047 531.398269 
L 668.819699 515.889681 
L 672.577475 498.348303 
L 676.313674 488.344235 
L 680.196206 493.003664 
L 683.936585 506.844908 
L 687.676989 523.860958 
L 695.308005 557.047966 
L 699.051976 576.256689 
L 702.78857 591.125748 
L 706.683414 589.412723 
L 710.437825 574.155378 
L 714.191149 551.749008 
L 718.052143 532.540286 
L 721.802119 519.93242 
L 725.549637 506.182538 
L 729.291134 496.041429 
L 733.174356 498.713748 
L 736.917786 511.07037 
L 740.6752 525.025815 
L 744.543608 542.567193 
L 748.288069 558.715311 
L 752.035986 577.421546 
L 755.781708 592.222084 
L 759.662276 590.760303 
L 763.40709 574.772067 
L 767.143401 552.457059 
L 771.037217 532.928571 
L 778.527527 506.31958 
L 782.273063 502.048437 
L 786.20451 507.507277 
L 789.903061 519.361412 
L 797.529619 558.030101 
L 801.26933 574.109697 
L 805.008979 586.557681 
L 808.897506 584.342168 
L 812.642142 574.589345 
L 816.394365 560.222773 
L 820.140509 540.397361 
L 824.015358 523.198588 
L 827.771969 512.166706 
L 831.498395 505.223244 
L 835.38828 507.438756 
L 839.13906 517.328622 
L 842.889597 533.156975 
L 846.633462 548.368639 
L 850.51082 563.283378 
L 854.256744 584.113765 
L 858.002571 599.371109 
L 861.887311 596.744471 
L 865.632352 580.436471 
L 869.376265 557.185008 
L 873.122024 535.943496 
L 877.001443 522.284975 
L 880.758517 511.024689 
L 884.501759 502.162639 
L 888.370522 502.825008 
L 892.111244 513.422924 
L 895.864826 527.949378 
L 899.744708 545.947563 
L 903.495671 561.547513 
L 907.235519 579.865462 
L 910.984605 594.483277 
L 914.862847 592.016521 
L 918.61652 578.38084 
L 926.236201 537.725042 
L 929.989158 523.495513 
L 933.729918 515.661277 
L 937.473962 513.080319 
L 941.356114 515.935361 
L 945.10337 527.058605 
L 948.846718 544.074655 
L 956.460472 577.215983 
L 960.205614 586.763244 
L 963.955331 584.684773 
L 967.835635 576.850538 
L 971.579126 566.001378 
L 975.319708 547.660588 
L 979.210993 527.035765 
L 982.964403 515.501395 
L 986.701559 514.724824 
L 990.580795 517.100218 
L 994.324024 520.57195 
L 998.079934 530.507496 
L 1013.210769 594.483277 
L 1017.0828 592.65605 
L 1020.827644 579.317294 
L 1024.569718 561.182067 
L 1028.317344 542.201748 
L 1032.202482 525.025815 
L 1035.945651 516.52921 
L 1039.692209 513.993933 
L 1043.569395 513.400084 
L 1047.313059 520.891714 
L 1051.048246 535.623731 
L 1054.94418 551.452084 
L 1058.702811 565.772975 
L 1062.429271 576.622134 
L 1066.167767 581.943933 
L 1070.053024 580.071025 
L 1073.807077 571.825664 
L 1077.547263 555.312101 
L 1081 538.561531 
L 1081 538.561531 
" style="fill:none;stroke:#1f77b4;stroke-linecap:square;stroke-width:0.7;"/>
   </g>
   <g id="line2d_90">
    <path clip-path="url(#pf630172784)" d="M 401.318182 550.058824 
L 1081 550.058824 
L 1081 550.058824 
" style="fill:none;stroke:#ff7f0e;stroke-linecap:square;stroke-width:1.5;"/>
   </g>
   <g id="patch_28">
    <path d="M 591.545455 630 
L 591.545455 470.117647 
" style="fill:none;stroke:#000000;stroke-linecap:square;stroke-linejoin:miter;stroke-width:0.8;"/>
   </g>
   <g id="patch_29">
    <path d="M 972 630 
L 972 470.117647 
" style="fill:none;stroke:#000000;stroke-linecap:square;stroke-linejoin:miter;stroke-width:0.8;"/>
   </g>
   <g id="patch_30">
    <path d="M 591.545455 630 
L 972 630 
" style="fill:none;stroke:#000000;stroke-linecap:square;stroke-linejoin:miter;stroke-width:0.8;"/>
   </g>
   <g id="patch_31">
    <path d="M 591.545455 470.117647 
L 972 470.117647 
" style="fill:none;stroke:#000000;stroke-linecap:square;stroke-linejoin:miter;stroke-width:0.8;"/>
   </g>
   <g id="text_92">
    <!-- Motor 6 -->
    <g transform="translate(758.710227 464.117647)scale(0.12 -0.12)">
     <use xlink:href="#DejaVuSans-77"/>
     <use x="86.279297" xlink:href="#DejaVuSans-111"/>
     <use x="147.460938" xlink:href="#DejaVuSans-116"/>
     <use x="186.669922" xlink:href="#DejaVuSans-111"/>
     <use x="247.851562" xlink:href="#DejaVuSans-114"/>
     <use x="288.964844" xlink:href="#DejaVuSans-32"/>
     <use x="320.751953" xlink:href="#DejaVuSans-54"/>
    </g>
   </g>
   <g id="legend_1">
    <g id="patch_32">
     <path d="M 460.514631 686.654596 
L 620.049006 686.654596 
Q 622.049006 686.654596 622.049006 684.654596 
L 622.049006 670.976471 
Q 622.049006 668.976471 620.049006 668.976471 
L 460.514631 668.976471 
Q 458.514631 668.976471 458.514631 670.976471 
L 458.514631 684.654596 
Q 458.514631 686.654596 460.514631 686.654596 
z
" style="fill:#4c4c4c;opacity:0.5;stroke:#4c4c4c;stroke-linejoin:miter;"/>
    </g>
    <g id="patch_33">
     <path d="M 458.514631 684.654596 
L 618.049006 684.654596 
Q 620.049006 684.654596 620.049006 682.654596 
L 620.049006 668.976471 
Q 620.049006 666.976471 618.049006 666.976471 
L 458.514631 666.976471 
Q 456.514631 666.976471 456.514631 668.976471 
L 456.514631 682.654596 
Q 456.514631 684.654596 458.514631 684.654596 
z
" style="fill:#ffffff;stroke:#cccccc;stroke-linejoin:miter;"/>
    </g>
    <g id="line2d_91">
     <path d="M 460.514631 675.074908 
L 480.514631 675.074908 
" style="fill:none;stroke:#1f77b4;stroke-linecap:square;stroke-width:0.7;"/>
    </g>
    <g id="line2d_92"/>
    <g id="text_93">
     <!-- Force sensor -->
     <g transform="translate(488.514631 678.574908)scale(0.1 -0.1)">
      <defs>
       <path d="M 54.890625 33.015625 
L 54.890625 0 
L 45.90625 0 
L 45.90625 32.71875 
Q 45.90625 40.484375 42.875 44.328125 
Q 39.84375 48.1875 33.796875 48.1875 
Q 26.515625 48.1875 22.3125 43.546875 
Q 18.109375 38.921875 18.109375 30.90625 
L 18.109375 0 
L 9.078125 0 
L 9.078125 54.6875 
L 18.109375 54.6875 
L 18.109375 46.1875 
Q 21.34375 51.125 25.703125 53.5625 
Q 30.078125 56 35.796875 56 
Q 45.21875 56 50.046875 50.171875 
Q 54.890625 44.34375 54.890625 33.015625 
z
" id="DejaVuSans-110"/>
      </defs>
      <use xlink:href="#DejaVuSans-70"/>
      <use x="53.894531" xlink:href="#DejaVuSans-111"/>
      <use x="115.076172" xlink:href="#DejaVuSans-114"/>
      <use x="153.939453" xlink:href="#DejaVuSans-99"/>
      <use x="208.919922" xlink:href="#DejaVuSans-101"/>
      <use x="270.443359" xlink:href="#DejaVuSans-32"/>
      <use x="302.230469" xlink:href="#DejaVuSans-115"/>
      <use x="354.330078" xlink:href="#DejaVuSans-101"/>
      <use x="415.853516" xlink:href="#DejaVuSans-110"/>
      <use x="479.232422" xlink:href="#DejaVuSans-115"/>
      <use x="531.332031" xlink:href="#DejaVuSans-111"/>
      <use x="592.513672" xlink:href="#DejaVuSans-114"/>
     </g>
    </g>
    <g id="line2d_93">
     <path d="M 571.877131 675.074908 
L 591.877131 675.074908 
" style="fill:none;stroke:#ff7f0e;stroke-linecap:square;stroke-width:1.5;"/>
    </g>
    <g id="line2d_94"/>
    <g id="text_94">
     <!-- Ref -->
     <g transform="translate(599.877131 678.574908)scale(0.1 -0.1)">
      <defs>
       <path d="M 44.390625 34.1875 
Q 47.5625 33.109375 50.5625 29.59375 
Q 53.5625 26.078125 56.59375 19.921875 
L 66.609375 0 
L 56 0 
L 46.6875 18.703125 
Q 43.0625 26.03125 39.671875 28.421875 
Q 36.28125 30.8125 30.421875 30.8125 
L 19.671875 30.8125 
L 19.671875 0 
L 9.8125 0 
L 9.8125 72.90625 
L 32.078125 72.90625 
Q 44.578125 72.90625 50.734375 67.671875 
Q 56.890625 62.453125 56.890625 51.90625 
Q 56.890625 45.015625 53.6875 40.46875 
Q 50.484375 35.9375 44.390625 34.1875 
z
M 19.671875 64.796875 
L 19.671875 38.921875 
L 32.078125 38.921875 
Q 39.203125 38.921875 42.84375 42.21875 
Q 46.484375 45.515625 46.484375 51.90625 
Q 46.484375 58.296875 42.84375 61.546875 
Q 39.203125 64.796875 32.078125 64.796875 
z
" id="DejaVuSans-82"/>
       <path d="M 37.109375 75.984375 
L 37.109375 68.5 
L 28.515625 68.5 
Q 23.6875 68.5 21.796875 66.546875 
Q 19.921875 64.59375 19.921875 59.515625 
L 19.921875 54.6875 
L 34.71875 54.6875 
L 34.71875 47.703125 
L 19.921875 47.703125 
L 19.921875 0 
L 10.890625 0 
L 10.890625 47.703125 
L 2.296875 47.703125 
L 2.296875 54.6875 
L 10.890625 54.6875 
L 10.890625 58.5 
Q 10.890625 67.625 15.140625 71.796875 
Q 19.390625 75.984375 28.609375 75.984375 
z
" id="DejaVuSans-102"/>
      </defs>
      <use xlink:href="#DejaVuSans-82"/>
      <use x="64.982422" xlink:href="#DejaVuSans-101"/>
      <use x="126.505859" xlink:href="#DejaVuSans-102"/>
     </g>
    </g>
   </g>
  </g>
 </g>
 <defs>
  <clipPath id="pb52628f2d1">
   <rect height="159.882353" width="380.454545" x="135" y="86.4"/>
  </clipPath>
  <clipPath id="p46348d79cf">
   <rect height="159.882353" width="380.454545" x="591.545455" y="86.4"/>
  </clipPath>
  <clipPath id="peddbe780fc">
   <rect height="159.882353" width="380.454545" x="135" y="278.258824"/>
  </clipPath>
  <clipPath id="p43f63f3180">
   <rect height="159.882353" width="380.454545" x="591.545455" y="278.258824"/>
  </clipPath>
  <clipPath id="pbd875b4138">
   <rect height="159.882353" width="380.454545" x="135" y="470.117647"/>
  </clipPath>
  <clipPath id="pf630172784">
   <rect height="159.882353" width="380.454545" x="591.545455" y="470.117647"/>
  </clipPath>
 </defs>
</svg>
