<?xml version="1.0" encoding="utf-8" standalone="no"?>
<!DOCTYPE svg PUBLIC "-//W3C//DTD SVG 1.1//EN"
  "http://www.w3.org/Graphics/SVG/1.1/DTD/svg11.dtd">
<!-- Created with matplotlib (https://matplotlib.org/) -->
<svg height="343.100497pt" version="1.1" viewBox="0 0 339.354418 343.100497" width="339.354418pt" xmlns="http://www.w3.org/2000/svg" xmlns:xlink="http://www.w3.org/1999/xlink">
 <metadata>
  <rdf:RDF xmlns:cc="http://creativecommons.org/ns#" xmlns:dc="http://purl.org/dc/elements/1.1/" xmlns:rdf="http://www.w3.org/1999/02/22-rdf-syntax-ns#">
   <cc:Work>
    <dc:type rdf:resource="http://purl.org/dc/dcmitype/StillImage"/>
    <dc:date>2020-12-13T21:37:27.843643</dc:date>
    <dc:format>image/svg+xml</dc:format>
    <dc:creator>
     <cc:Agent>
      <dc:title>Matplotlib v3.3.3, https://matplotlib.org/</dc:title>
     </cc:Agent>
    </dc:creator>
   </cc:Work>
  </rdf:RDF>
 </metadata>
 <defs>
  <style type="text/css">*{stroke-linecap:butt;stroke-linejoin:round;}</style>
 </defs>
 <g id="figure_1">
  <g id="patch_1">
   <path d="M 0 343.100497 
L 339.354418 343.100497 
L 339.354418 0 
L 0 0 
z
" style="fill:none;"/>
  </g>
  <g id="axes_1">
   <g id="patch_2">
    <path d="M 33.540844 57.013608 
L 339.354418 57.013608 
L 339.354418 14.30218 
L 33.540844 14.30218 
z
" style="fill:#ffffff;"/>
   </g>
   <g id="matplotlib.axis_1"/>
   <g id="matplotlib.axis_2">
    <g id="ytick_1">
     <g id="line2d_1">
      <defs>
       <path d="M 0 0 
L -3.5 0 
" id="mc563d3c7ff" style="stroke:#000000;stroke-width:0.8;"/>
      </defs>
      <g>
       <use style="stroke:#000000;stroke-width:0.8;" x="33.540844" xlink:href="#mc563d3c7ff" y="57.013608"/>
      </g>
     </g>
     <g id="text_1">
      <!-- $\mathdefault{-500}$ -->
      <g transform="translate(3.848094 60.472858)scale(0.1 -0.1)">
       <defs>
        <path d="M 65.90625 23 
C 67.59375 23 69.40625 23 69.40625 25 
C 69.40625 27 67.59375 27 65.90625 27 
L 11.796875 27 
C 10.09375 27 8.296875 27 8.296875 25 
C 8.296875 23 10.09375 23 11.796875 23 
z
" id="CMSY10-0"/>
        <path d="M 11.40625 57.6875 
C 12.40625 57.28125 16.5 56 20.703125 56 
C 30 56 35.09375 61.109375 38 64.0625 
C 38 64.953125 38 65.5 37.40625 65.5 
C 37.296875 65.5 37.09375 65.5 36.296875 65.046875 
C 32.796875 63.40625 28.703125 62.078125 23.703125 62.078125 
C 20.703125 62.078125 16.203125 62.484375 11.296875 64.671875 
C 10.203125 65.171875 10 65.171875 9.90625 65.171875 
C 9.40625 65.171875 9.296875 65.0625 9.296875 63.078125 
L 9.296875 34.421875 
C 9.296875 32.640625 9.296875 32.140625 10.296875 32.140625 
C 10.796875 32.140625 11 32.34375 11.5 33.03125 
C 14.703125 37.515625 19.09375 39.40625 24.09375 39.40625 
C 27.59375 39.40625 35.09375 37.21875 35.09375 20.140625 
C 35.09375 16.953125 35.09375 11.171875 32.09375 6.578125 
C 29.59375 2.484375 25.703125 0.390625 21.40625 0.390625 
C 14.796875 0.390625 8.09375 5 6.296875 12.71875 
C 6.703125 12.609375 7.5 12.421875 7.90625 12.421875 
C 9.203125 12.421875 11.703125 13.125 11.703125 16.21875 
C 11.703125 18.90625 9.796875 20 7.90625 20 
C 5.59375 20 4.09375 18.59375 4.09375 15.796875 
C 4.09375 7.09375 11 -2 21.59375 -2 
C 31.90625 -2 41.703125 6.875 41.703125 19.75 
C 41.703125 31.71875 33.90625 41 24.203125 41 
C 19.09375 41 14.796875 39.109375 11.40625 35.53125 
z
" id="CMR17-53"/>
        <path d="M 42 31.640625 
C 42 37.75 41.90625 48.125 37.703125 56.109375 
C 34 63.109375 28.09375 65.59375 22.90625 65.59375 
C 18.09375 65.59375 12 63.40625 8.203125 56.203125 
C 4.203125 48.71875 3.796875 39.4375 3.796875 31.640625 
C 3.796875 25.953125 3.90625 17.28125 7 9.671875 
C 11.296875 -0.609375 19 -2 22.90625 -2 
C 27.5 -2 34.5 -0.109375 38.59375 9.375 
C 41.59375 16.28125 42 24.359375 42 31.640625 
z
M 22.90625 -0.40625 
C 16.5 -0.40625 12.703125 5.078125 11.296875 12.6875 
C 10.203125 18.5625 10.203125 27.15625 10.203125 32.75 
C 10.203125 40.4375 10.203125 46.828125 11.5 52.921875 
C 13.40625 61.390625 19 64 22.90625 64 
C 27 64 32.296875 61.296875 34.203125 53.125 
C 35.5 47.4375 35.59375 40.734375 35.59375 32.75 
C 35.59375 26.25 35.59375 18.265625 34.40625 12.375 
C 32.296875 1.484375 26.40625 -0.40625 22.90625 -0.40625 
z
" id="CMR17-48"/>
       </defs>
       <use transform="scale(0.996264)" xlink:href="#CMSY10-0"/>
       <use transform="translate(77.487468 0)scale(0.996264)" xlink:href="#CMR17-53"/>
       <use transform="translate(123.177945 0)scale(0.996264)" xlink:href="#CMR17-48"/>
       <use transform="translate(168.868422 0)scale(0.996264)" xlink:href="#CMR17-48"/>
      </g>
     </g>
    </g>
    <g id="ytick_2">
     <g id="line2d_2">
      <g>
       <use style="stroke:#000000;stroke-width:0.8;" x="33.540844" xlink:href="#mc563d3c7ff" y="44.810343"/>
      </g>
     </g>
     <g id="text_2">
      <!-- $\mathdefault{-300}$ -->
      <g transform="translate(3.848094 48.269592)scale(0.1 -0.1)">
       <defs>
        <path d="M 22.09375 33.703125 
C 31 33.703125 34.90625 25.96875 34.90625 17.03125 
C 34.90625 5 28.5 0.390625 22.703125 0.390625 
C 17.40625 0.390625 8.796875 3.03125 6.09375 10.828125 
C 6.59375 10.625 7.09375 10.625 7.59375 10.625 
C 10 10.625 11.796875 12.21875 11.796875 14.8125 
C 11.796875 17.703125 9.59375 19 7.59375 19 
C 5.90625 19 3.296875 18.203125 3.296875 14.46875 
C 3.296875 5.234375 12.296875 -2 22.90625 -2 
C 34 -2 42.5 6.71875 42.5 16.953125 
C 42.5 26.671875 34.5 33.703125 25 34.796875 
C 32.59375 36.375 39.90625 43.0625 39.90625 52.015625 
C 39.90625 59.6875 32 65.296875 23 65.296875 
C 13.90625 65.296875 5.90625 59.828125 5.90625 52.015625 
C 5.90625 48.59375 8.5 48 9.796875 48 
C 11.90625 48 13.703125 49.296875 13.703125 51.890625 
C 13.703125 54.46875 11.90625 55.765625 9.796875 55.765625 
C 9.40625 55.765625 8.90625 55.765625 8.5 55.578125 
C 11.40625 61.859375 19.296875 63 22.796875 63 
C 26.296875 63 32.90625 61.328125 32.90625 51.875 
C 32.90625 49.109375 32.5 44.1875 29.09375 39.84375 
C 26.09375 36 22.703125 36 19.40625 35.6875 
C 18.90625 35.6875 16.59375 35.453125 16.203125 35.453125 
C 15.5 35.359375 15.09375 35.265625 15.09375 34.5 
C 15.09375 33.796875 15.203125 33.703125 17.203125 33.703125 
z
" id="CMR17-51"/>
       </defs>
       <use transform="scale(0.996264)" xlink:href="#CMSY10-0"/>
       <use transform="translate(77.487468 0)scale(0.996264)" xlink:href="#CMR17-51"/>
       <use transform="translate(123.177945 0)scale(0.996264)" xlink:href="#CMR17-48"/>
       <use transform="translate(168.868422 0)scale(0.996264)" xlink:href="#CMR17-48"/>
      </g>
     </g>
    </g>
    <g id="ytick_3">
     <g id="line2d_3">
      <g>
       <use style="stroke:#000000;stroke-width:0.8;" x="33.540844" xlink:href="#mc563d3c7ff" y="32.607078"/>
      </g>
     </g>
     <g id="text_3">
      <!-- $\mathdefault{-100}$ -->
      <g transform="translate(3.848094 36.066327)scale(0.1 -0.1)">
       <defs>
        <path d="M 26.59375 63.40625 
C 26.59375 65.5 26.5 65.5 25.09375 65.5 
C 21.203125 61.1875 15.296875 59.796875 9.703125 59.796875 
C 9.40625 59.796875 8.90625 59.796875 8.796875 59.5 
C 8.703125 59.296875 8.703125 59.09375 8.703125 57 
C 11.796875 57 17 57.59375 21 59.984375 
L 21 7.203125 
C 21 3.6875 20.796875 2.5 12.203125 2.5 
L 9.203125 2.5 
L 9.203125 0 
C 14 0 19 0 23.796875 0 
C 28.59375 0 33.59375 0 38.40625 0 
L 38.40625 2.5 
L 35.40625 2.5 
C 26.796875 2.5 26.59375 3.59375 26.59375 7.15625 
z
" id="CMR17-49"/>
       </defs>
       <use transform="scale(0.996264)" xlink:href="#CMSY10-0"/>
       <use transform="translate(77.487468 0)scale(0.996264)" xlink:href="#CMR17-49"/>
       <use transform="translate(123.177945 0)scale(0.996264)" xlink:href="#CMR17-48"/>
       <use transform="translate(168.868422 0)scale(0.996264)" xlink:href="#CMR17-48"/>
      </g>
     </g>
    </g>
    <g id="ytick_4">
     <g id="line2d_4">
      <g>
       <use style="stroke:#000000;stroke-width:0.8;" x="33.540844" xlink:href="#mc563d3c7ff" y="20.403812"/>
      </g>
     </g>
     <g id="text_4">
      <!-- $\mathdefault{100}$ -->
      <g transform="translate(11.596838 23.863062)scale(0.1 -0.1)">
       <use transform="scale(0.996264)" xlink:href="#CMR17-49"/>
       <use transform="translate(45.690477 0)scale(0.996264)" xlink:href="#CMR17-48"/>
       <use transform="translate(91.380954 0)scale(0.996264)" xlink:href="#CMR17-48"/>
      </g>
     </g>
    </g>
   </g>
   <g id="line2d_5">
    <path clip-path="url(#pcdf0be0c74)" d="M -1 32.678498 
L 4.355202 35.851918 
L 7.363257 37.868411 
L 10.483306 40.196054 
L 13.497941 37.401686 
L 19.516716 26.960203 
L 22.637527 22.616068 
L 25.648028 20.444 
L 28.658196 21.838192 
L 31.781314 25.554044 
L 37.799386 34.619285 
L 40.811368 39.424162 
L 43.92987 43.93584 
L 46.943596 46.71824 
L 49.951513 48.154318 
L 53.070768 47.891037 
L 56.081953 37.305947 
L 59.108699 31.537701 
L 62.21157 25.966916 
L 65.226492 21.748437 
L 68.239857 20.114899 
L 71.247361 23.010989 
L 74.363998 27.977425 
L 77.377375 33.488374 
L 80.384902 38.490711 
L 83.50533 42.936569 
L 86.515993 46.676355 
L 89.517401 47.137096 
L 92.528531 43.08616 
L 95.654736 37.11447 
L 98.675279 32.195903 
L 101.678476 23.005005 
L 104.799299 18.34972 
L 107.805856 15.740845 
L 110.812435 18.559148 
L 113.832771 24.165835 
L 116.94633 30.34097 
L 119.955775 35.75618 
L 122.959291 40.513188 
L 126.090009 45.162489 
L 129.107847 49.309164 
L 132.12481 49.177524 
L 135.22832 43.415261 
L 138.242592 35.869869 
L 141.254888 30.598267 
L 144.262345 23.154597 
L 147.383722 19.019889 
L 150.392732 18.361687 
L 153.412984 21.126137 
L 156.522453 25.003547 
L 159.532291 30.281133 
L 162.544909 35.839951 
L 165.555762 40.752534 
L 168.675005 45.407819 
L 171.685128 49.021949 
L 174.688416 48.315877 
L 177.818308 42.757059 
L 180.829959 35.738229 
L 183.839103 30.682038 
L 186.849806 27.014056 
L 190.009947 18.421524 
L 192.982883 16.81192 
L 195.986432 19.522517 
L 199.113195 24.824037 
L 202.119215 30.2931 
L 205.125187 35.259536 
L 208.250828 40.148184 
L 211.260808 44.241006 
L 214.276886 46.34127 
L 217.288078 44.833388 
L 220.402725 39.549819 
L 223.42233 33.895262 
L 226.417673 29.772522 
L 232.559323 21.808274 
L 235.574047 22.687872 
L 238.583407 27.33119 
L 241.70007 33.027632 
L 247.722023 42.846814 
L 250.84462 47.520051 
L 253.854925 51.182049 
L 256.864324 50.045154 
L 259.875206 43.636657 
L 262.993526 35.965608 
L 266.013504 30.610234 
L 269.022363 27.277337 
L 272.132118 23.214433 
L 275.138952 18.816445 
L 278.156123 20.336294 
L 281.274814 24.524854 
L 284.28988 30.113591 
L 287.296011 35.074043 
L 290.309568 39.573753 
L 293.426942 44.49232 
L 296.444186 48.279975 
L 299.449985 48.555223 
L 302.56897 44.444451 
L 305.585637 37.323898 
L 308.592502 31.09491 
L 311.602006 27.726111 
L 317.734609 21.473189 
L 320.743553 20.210637 
L 323.888193 25.344616 
L 326.863573 29.251944 
L 329.87396 34.314118 
L 332.888024 39.160881 
L 336.007055 43.122062 
L 339.016114 44.611993 
L 340.354418 45.086069 
L 340.354418 45.086069 
" style="fill:none;stroke:#1f77b4;stroke-linecap:square;stroke-width:0.7;"/>
   </g>
   <g id="line2d_6">
    <path clip-path="url(#pcdf0be0c74)" d="M -1 35.480931 
L 340.354418 35.480931 
L 340.354418 35.480931 
" style="fill:none;stroke:#ff7f0e;stroke-linecap:square;stroke-width:1.5;"/>
   </g>
   <g id="patch_3">
    <path d="M 33.540844 57.013608 
L 33.540844 14.30218 
" style="fill:none;stroke:#000000;stroke-linecap:square;stroke-linejoin:miter;stroke-width:0.8;"/>
   </g>
   <g id="patch_4">
    <path d="M 339.354418 57.013608 
L 339.354418 14.30218 
" style="fill:none;stroke:#000000;stroke-linecap:square;stroke-linejoin:miter;stroke-width:0.8;"/>
   </g>
   <g id="patch_5">
    <path d="M 33.540844 57.013608 
L 339.354418 57.013608 
" style="fill:none;stroke:#000000;stroke-linecap:square;stroke-linejoin:miter;stroke-width:0.8;"/>
   </g>
   <g id="patch_6">
    <path d="M 33.540844 14.30218 
L 339.354418 14.30218 
" style="fill:none;stroke:#000000;stroke-linecap:square;stroke-linejoin:miter;stroke-width:0.8;"/>
   </g>
   <g id="text_5">
    <!-- Force Control: Actuator 1 to 6 -->
    <g transform="translate(107.354079 8.30218)scale(0.12 -0.12)">
     <defs>
      <path d="M 54.40625 67.578125 
L 5.09375 67.578125 
L 5.09375 65 
C 12 65 13.09375 65 13.09375 60.53125 
L 13.09375 6.96875 
C 13.09375 2.5 12 2.5 5.09375 2.5 
L 5.09375 0 
C 8 0 13.59375 0 16.703125 0 
C 20.796875 0 25.59375 0 29.703125 0 
L 29.703125 2.5 
L 27.5 2.5 
C 19.90625 2.5 19.703125 3.484375 19.703125 7.0625 
L 19.703125 32.421875 
L 28.703125 32.421875 
C 38 32.421875 38.90625 29.140625 38.90625 20.8125 
L 40.703125 20.8125 
L 40.703125 46.671875 
L 38.90625 46.671875 
C 38.90625 38.28125 38 35 28.703125 35 
L 19.703125 35 
L 19.703125 61.109375 
C 19.703125 64.5 19.90625 65 23.90625 65 
L 36.796875 65 
C 51.90625 65 53.59375 58.828125 55 45.5625 
L 56.796875 45.5625 
z
" id="CMR17-70"/>
      <path d="M 43.09375 21.1875 
C 43.09375 34 33.796875 44 22.90625 44 
C 12 44 2.703125 34 2.703125 21.1875 
C 2.703125 8.609375 12 -1 22.90625 -1 
C 33.796875 -1 43.09375 8.609375 43.09375 21.1875 
z
M 22.90625 0.796875 
C 18.203125 0.796875 14.203125 3.59375 11.90625 7.5 
C 9.40625 11.984375 9.09375 17.59375 9.09375 22 
C 9.09375 26.203125 9.296875 31.40625 11.90625 35.90625 
C 13.90625 39.203125 17.796875 42.40625 22.90625 42.40625 
C 27.40625 42.40625 31.203125 39.90625 33.59375 36.40625 
C 36.703125 31.703125 36.703125 25.109375 36.703125 22 
C 36.703125 18.09375 36.5 12.109375 33.796875 7.296875 
C 31 2.703125 26.703125 0.796875 22.90625 0.796875 
z
" id="CMR17-111"/>
      <path d="M 15 23.390625 
C 15 33 19.09375 42 26.59375 42 
C 27.296875 42 28 41.90625 28.703125 41.59375 
C 28.703125 41.59375 26.5 40.890625 26.5 38.3125 
C 26.5 35.90625 28.40625 34.90625 29.90625 34.90625 
C 31.09375 34.90625 33.296875 35.609375 33.296875 38.40625 
C 33.296875 41.609375 30.09375 43.59375 26.703125 43.59375 
C 19.09375 43.59375 15.796875 36.203125 14.796875 32.703125 
L 14.703125 32.703125 
L 14.703125 43.59375 
L 3.09375 42.5 
L 3.09375 39.90625 
C 9 39.90625 9.90625 39.296875 9.90625 34.5 
L 9.90625 6.6875 
C 9.90625 2.875 9.5 2.390625 3.09375 2.390625 
L 3.09375 -0.203125 
C 5.5 0 10.09375 0 12.703125 0 
C 15.59375 0 20.703125 0 23.40625 -0.203125 
L 23.40625 2.390625 
C 16.203125 2.390625 15 2.390625 15 6.875 
z
" id="CMR17-114"/>
      <path d="M 34.90625 35 
C 33 35 30.203125 35 30.203125 31.515625 
C 30.203125 28.71875 32.5 27.921875 33.796875 27.921875 
C 34.5 27.921875 37.40625 28.234375 37.40625 31.625 
C 37.40625 38.546875 30.59375 43.796875 22.90625 43.796875 
C 12.296875 43.796875 3.296875 34.03125 3.296875 21.296875 
C 3.296875 8.0625 12.703125 -1 22.90625 -1 
C 35.296875 -1 38.40625 10.578125 38.40625 11.6875 
C 38.40625 12.09375 38.296875 12.390625 37.59375 12.390625 
C 36.90625 12.390625 36.796875 12.296875 36.40625 10.984375 
C 33.796875 2.8125 28.09375 0.796875 23.796875 0.796875 
C 17.40625 0.796875 9.703125 6.671875 9.703125 21.390625 
C 9.703125 36.53125 17.09375 42 23 42 
C 26.90625 42 32.703125 40.203125 34.90625 35 
z
" id="CMR17-99"/>
      <path d="M 38.09375 23 
C 38.5 23.40625 38.5 23.609375 38.5 24.625 
C 38.5 34.96875 33.09375 44 21.703125 44 
C 11.09375 44 2.703125 33.890625 2.703125 21.609375 
C 2.703125 8.609375 12.203125 -1 22.796875 -1 
C 34 -1 38.40625 9.484375 38.40625 11.5625 
C 38.40625 12.25 37.796875 12.25 37.59375 12.25 
C 36.90625 12.25 36.796875 12.046875 36.40625 10.875 
C 34.203125 4.140625 28.703125 0.796875 23.5 0.796875 
C 19.203125 0.796875 14.90625 3.171875 12.203125 7.5 
C 9.09375 12.546875 9.09375 18.375 9.09375 23 
z
M 9.203125 24.5 
C 9.90625 39.140625 17.59375 42.40625 21.59375 42.40625 
C 28.40625 42.40625 33 35.890625 33.09375 24.5 
z
" id="CMR17-101"/>
      <path d="M 62.09375 67.015625 
C 62.09375 68.796875 62 68.90625 61.40625 68.90625 
C 61 68.90625 60.90625 68.796875 60.203125 67.609375 
L 55.796875 59.25 
C 50.90625 65.421875 44.90625 69 37.203125 69 
C 20.09375 69 4.59375 54 4.59375 33.5625 
C 4.59375 12.90625 20.09375 -2 37.296875 -2 
C 52.59375 -2 62.09375 11.40625 62.09375 22.828125 
C 62.09375 23.8125 62.09375 24.21875 61.203125 24.21875 
C 60.40625 24.21875 60.40625 23.921875 60.296875 23.03125 
C 59.5 9.140625 49.5 0.59375 38.703125 0.59375 
C 28.5 0.59375 12.203125 7.734375 12.203125 33.546875 
C 12.203125 59.453125 28.796875 66.40625 38.5 66.40625 
C 49.796875 66.40625 58 56.6875 59.90625 42.890625 
C 60.09375 41.6875 60.09375 41.484375 61 41.484375 
C 62.09375 41.484375 62.09375 41.6875 62.09375 43.484375 
z
" id="CMR17-67"/>
      <path d="M 41.5 30.203125 
C 41.5 35.296875 40.5 43.59375 28.703125 43.59375 
C 20.796875 43.59375 16.703125 37.5 15.203125 33.5 
L 15.09375 33.5 
L 15.09375 43.59375 
L 3.296875 42.5 
L 3.296875 39.90625 
C 9.203125 39.90625 10.09375 39.296875 10.09375 34.5 
L 10.09375 6.6875 
C 10.09375 2.875 9.703125 2.390625 3.296875 2.390625 
L 3.296875 -0.203125 
C 5.703125 0 10.09375 0 12.703125 0 
C 15.296875 0 19.796875 0 22.203125 -0.203125 
L 22.203125 2.390625 
C 15.796875 2.390625 15.40625 2.78125 15.40625 6.6875 
L 15.40625 25.90625 
C 15.40625 35.109375 21 42 28 42 
C 35.40625 42 36.203125 35.40625 36.203125 30.59375 
L 36.203125 6.6875 
C 36.203125 2.875 35.796875 2.390625 29.40625 2.390625 
L 29.40625 -0.203125 
C 31.796875 0 36.203125 0 38.796875 0 
C 41.40625 0 45.90625 0 48.296875 -0.203125 
L 48.296875 2.390625 
C 41.90625 2.390625 41.5 2.78125 41.5 6.6875 
z
" id="CMR17-110"/>
      <path d="M 15.09375 40 
L 29.09375 40 
L 29.09375 42.578125 
L 15.09375 42.578125 
L 15.09375 61 
L 13.296875 61 
C 13.09375 50.703125 9.59375 41.6875 1.09375 41.6875 
L 1.09375 40 
L 9.796875 40 
L 9.796875 12.046875 
C 9.796875 10.15625 9.796875 -1 21.40625 -1 
C 27.296875 -1 30.703125 4.78125 30.703125 12.140625 
L 30.703125 17.8125 
L 28.90625 17.8125 
L 28.90625 12.234375 
C 28.90625 5.375 26.203125 0.796875 22 0.796875 
C 19.09375 0.796875 15.09375 2.78125 15.09375 11.84375 
z
" id="CMR17-116"/>
      <path d="M 15.296875 68.6875 
L 3.40625 67.59375 
L 3.40625 65 
C 9.296875 65 10.203125 64.40625 10.203125 59.640625 
L 10.203125 6.65625 
C 10.203125 2.875 9.796875 2.390625 3.40625 2.390625 
L 3.40625 -0.203125 
C 5.796875 0 10.203125 0 12.703125 0 
C 15.296875 0 19.703125 0 22.09375 -0.203125 
L 22.09375 2.390625 
C 15.703125 2.390625 15.296875 2.78125 15.296875 6.65625 
z
" id="CMR17-108"/>
      <path d="M 16.59375 38.921875 
C 16.59375 41.40625 14.59375 43 12.5 43 
C 10.5 43 8.40625 41.40625 8.40625 38.921875 
C 8.40625 36.4375 10.40625 34.84375 12.5 34.84375 
C 14.5 34.84375 16.59375 36.4375 16.59375 38.921875 
z
M 16.59375 4.078125 
C 16.59375 6.5625 14.59375 8.15625 12.5 8.15625 
C 10.5 8.15625 8.40625 6.5625 8.40625 4.078125 
C 8.40625 1.59375 10.40625 0 12.5 0 
C 14.5 0 16.59375 1.59375 16.59375 4.078125 
z
" id="CMR17-58"/>
      <path d="M 36.296875 68.40625 
C 35.796875 69.703125 35.59375 70 34.59375 70 
C 33.59375 70 33.40625 69.703125 32.90625 68.40625 
L 11.703125 8.84375 
C 9.796875 3.484375 5.796875 2.390625 2.296875 2.390625 
L 2.296875 -0.203125 
C 4.09375 0 8.09375 0 10 0 
C 12.5 0 16.5 0 18.90625 -0.203125 
L 18.90625 2.390625 
C 14.203125 2.390625 13.5 5.640625 13.5 6.859375 
C 13.5 7.765625 13.703125 8.28125 13.90625 8.890625 
L 19.203125 24 
L 45.40625 24 
L 51.40625 6.90625 
C 51.90625 5.703125 51.90625 5.5 51.90625 5.109375 
C 51.90625 2.390625 47.59375 2.390625 45.703125 2.390625 
L 45.703125 0 
C 48.59375 0 53.796875 0 56.90625 0 
C 59.5 0 64.5 0 66.90625 -0.203125 
L 66.90625 2.390625 
C 61.59375 2.390625 59.796875 2.390625 58.5 6.046875 
z
M 32.296875 60.828125 
L 44.5 26.59375 
L 20.09375 26.59375 
z
" id="CMR17-65"/>
      <path d="M 29.40625 42.078125 
L 29.40625 39.5 
C 35.296875 39.5 36.203125 38.890625 36.203125 34.15625 
L 36.203125 16.125 
C 36.203125 7.8125 31.703125 0.59375 24.296875 0.59375 
C 16.09375 0.59375 15.40625 5.4375 15.40625 10.59375 
L 15.40625 43.171875 
L 3.296875 42.078125 
L 3.296875 39.5 
C 7.296875 39.5 10 39.5 10.09375 35.53125 
L 10.09375 16.53125 
C 10.09375 9.890625 10.09375 5.640625 12.703125 2.859375 
C 14 1.578125 16.5 -1 23.703125 -1 
C 32.203125 -1 35.5 5.890625 36.296875 7.90625 
L 36.40625 7.90625 
L 36.40625 -0.984375 
L 48.296875 -0.984375 
L 48.296875 2 
C 42.40625 2 41.5 2.59375 41.5 7.390625 
L 41.5 43.171875 
z
" id="CMR17-117"/>
      <path d="M 36 25.828125 
C 36 32.375 36 35.84375 31.796875 39.734375 
C 28.09375 43 23.796875 44 20.40625 44 
C 12.5 44 6.796875 37.609375 6.796875 30.796875 
C 6.796875 27 9.796875 27 10.40625 27 
C 11.703125 27 14 27.78125 14 30.53125 
C 14 33 12.09375 34.078125 10.40625 34.078125 
C 10 34.078125 9.5 33.96875 9.203125 33.875 
C 11.296875 40.5 16.703125 42.40625 20.203125 42.40625 
C 25.203125 42.40625 30.703125 37.953125 30.703125 29.453125 
L 30.703125 25 
C 24.796875 25 17.703125 24.203125 12.09375 21.203125 
C 5.796875 17.703125 4 12.703125 4 8.90625 
C 4 1.203125 13 -1 18.296875 -1 
C 23.796875 -1 28.90625 2.171875 31.09375 7.984375 
C 31.296875 3.640625 34.09375 -0.28125 38.5 -0.28125 
C 40.59375 -0.28125 45.90625 1.09375 45.90625 8.859375 
L 45.90625 14.375 
L 44.09375 14.375 
L 44.09375 8.78125 
C 44.09375 2.78125 41.40625 2 40.09375 2 
C 36 2 36 7.15625 36 11.53125 
z
M 30.703125 13.59375 
C 30.703125 4.953125 24.5 0.59375 19 0.59375 
C 14 0.59375 10.09375 4.296875 10.09375 8.90625 
C 10.09375 11.890625 11.40625 17.1875 17.203125 20.390625 
C 22 23.09375 27.5 23.5 30.703125 23.5 
z
" id="CMR17-97"/>
      <path d="M 10.59375 34 
C 10.59375 57.65625 21.796875 63 28.296875 63 
C 30.40625 63 35.5 62.640625 37.5 59 
C 35.90625 59 32.90625 59 32.90625 55.515625 
C 32.90625 52.828125 35.09375 51.921875 36.5 51.921875 
C 37.40625 51.921875 40.09375 52.3125 40.09375 55.625 
C 40.09375 61.78125 35.09375 65.296875 28.203125 65.296875 
C 16.296875 65.296875 3.796875 52.96875 3.796875 31 
C 3.796875 3.953125 15.09375 -2 23.09375 -2 
C 32.796875 -2 42 6.671875 42 20.046875 
C 42 32.515625 33.90625 41.59375 23.703125 41.59375 
C 17.59375 41.59375 13.09375 37.609375 10.59375 30.625 
z
M 23.09375 0.390625 
C 10.796875 0.390625 10.796875 18.75 10.796875 22.4375 
C 10.796875 29.625 14.203125 40 23.5 40 
C 25.203125 40 30.09375 40 33.40625 33.125 
C 35.203125 29.21875 35.203125 25.140625 35.203125 20.140625 
C 35.203125 14.75 35.203125 10.78125 33.09375 6.78125 
C 30.90625 2.671875 27.703125 0.390625 23.09375 0.390625 
z
" id="CMR17-54"/>
     </defs>
     <use transform="scale(0.996264)" xlink:href="#CMR17-70"/>
     <use transform="translate(52.176591 0)scale(0.996264)" xlink:href="#CMR17-111"/>
     <use transform="translate(97.867068 0)scale(0.996264)" xlink:href="#CMR17-114"/>
     <use transform="translate(133.147836 0)scale(0.996264)" xlink:href="#CMR17-99"/>
     <use transform="translate(173.633497 0)scale(0.996264)" xlink:href="#CMR17-101"/>
     <use transform="translate(244.195123 0)scale(0.996264)" xlink:href="#CMR17-67"/>
     <use transform="translate(310.705004 0)scale(0.996264)" xlink:href="#CMR17-111"/>
     <use transform="translate(356.395481 0)scale(0.996264)" xlink:href="#CMR17-110"/>
     <use transform="translate(404.688397 0)scale(0.996264)" xlink:href="#CMR17-116"/>
     <use transform="translate(439.969165 0)scale(0.996264)" xlink:href="#CMR17-114"/>
     <use transform="translate(475.249933 0)scale(0.996264)" xlink:href="#CMR17-111"/>
     <use transform="translate(520.94041 0)scale(0.996264)" xlink:href="#CMR17-108"/>
     <use transform="translate(545.811468 0)scale(0.996264)" xlink:href="#CMR17-58"/>
     <use transform="translate(611.168187 0)scale(0.996264)" xlink:href="#CMR17-65"/>
     <use transform="translate(680.240617 0)scale(0.996264)" xlink:href="#CMR17-99"/>
     <use transform="translate(720.726277 0)scale(0.996264)" xlink:href="#CMR17-116"/>
     <use transform="translate(756.007045 0)scale(0.996264)" xlink:href="#CMR17-117"/>
     <use transform="translate(806.902415 0)scale(0.996264)" xlink:href="#CMR17-97"/>
     <use transform="translate(852.592892 0)scale(0.996264)" xlink:href="#CMR17-116"/>
     <use transform="translate(887.87366 0)scale(0.996264)" xlink:href="#CMR17-111"/>
     <use transform="translate(933.564137 0)scale(0.996264)" xlink:href="#CMR17-114"/>
     <use transform="translate(998.920871 0)scale(0.996264)" xlink:href="#CMR17-49"/>
     <use transform="translate(1074.687315 0)scale(0.996264)" xlink:href="#CMR17-116"/>
     <use transform="translate(1109.968082 0)scale(0.996264)" xlink:href="#CMR17-111"/>
     <use transform="translate(1185.734526 0)scale(0.996264)" xlink:href="#CMR17-54"/>
    </g>
   </g>
  </g>
  <g id="axes_2">
   <g id="patch_7">
    <path d="M 33.540844 108.267323 
L 339.354418 108.267323 
L 339.354418 65.555894 
L 33.540844 65.555894 
z
" style="fill:#ffffff;"/>
   </g>
   <g id="matplotlib.axis_3"/>
   <g id="matplotlib.axis_4">
    <g id="ytick_5">
     <g id="line2d_7">
      <g>
       <use style="stroke:#000000;stroke-width:0.8;" x="33.540844" xlink:href="#mc563d3c7ff" y="108.267323"/>
      </g>
     </g>
     <g id="text_6">
      <!-- $\mathdefault{-500}$ -->
      <g transform="translate(3.848094 111.726572)scale(0.1 -0.1)">
       <use transform="scale(0.996264)" xlink:href="#CMSY10-0"/>
       <use transform="translate(77.487468 0)scale(0.996264)" xlink:href="#CMR17-53"/>
       <use transform="translate(123.177945 0)scale(0.996264)" xlink:href="#CMR17-48"/>
       <use transform="translate(168.868422 0)scale(0.996264)" xlink:href="#CMR17-48"/>
      </g>
     </g>
    </g>
    <g id="ytick_6">
     <g id="line2d_8">
      <g>
       <use style="stroke:#000000;stroke-width:0.8;" x="33.540844" xlink:href="#mc563d3c7ff" y="96.064057"/>
      </g>
     </g>
     <g id="text_7">
      <!-- $\mathdefault{-300}$ -->
      <g transform="translate(3.848094 99.523307)scale(0.1 -0.1)">
       <use transform="scale(0.996264)" xlink:href="#CMSY10-0"/>
       <use transform="translate(77.487468 0)scale(0.996264)" xlink:href="#CMR17-51"/>
       <use transform="translate(123.177945 0)scale(0.996264)" xlink:href="#CMR17-48"/>
       <use transform="translate(168.868422 0)scale(0.996264)" xlink:href="#CMR17-48"/>
      </g>
     </g>
    </g>
    <g id="ytick_7">
     <g id="line2d_9">
      <g>
       <use style="stroke:#000000;stroke-width:0.8;" x="33.540844" xlink:href="#mc563d3c7ff" y="83.860792"/>
      </g>
     </g>
     <g id="text_8">
      <!-- $\mathdefault{-100}$ -->
      <g transform="translate(3.848094 87.320041)scale(0.1 -0.1)">
       <use transform="scale(0.996264)" xlink:href="#CMSY10-0"/>
       <use transform="translate(77.487468 0)scale(0.996264)" xlink:href="#CMR17-49"/>
       <use transform="translate(123.177945 0)scale(0.996264)" xlink:href="#CMR17-48"/>
       <use transform="translate(168.868422 0)scale(0.996264)" xlink:href="#CMR17-48"/>
      </g>
     </g>
    </g>
    <g id="ytick_8">
     <g id="line2d_10">
      <g>
       <use style="stroke:#000000;stroke-width:0.8;" x="33.540844" xlink:href="#mc563d3c7ff" y="71.657527"/>
      </g>
     </g>
     <g id="text_9">
      <!-- $\mathdefault{100}$ -->
      <g transform="translate(11.596838 75.116776)scale(0.1 -0.1)">
       <use transform="scale(0.996264)" xlink:href="#CMR17-49"/>
       <use transform="translate(45.690477 0)scale(0.996264)" xlink:href="#CMR17-48"/>
       <use transform="translate(91.380954 0)scale(0.996264)" xlink:href="#CMR17-48"/>
      </g>
     </g>
    </g>
   </g>
   <g id="line2d_11">
    <path clip-path="url(#pbaed10891a)" d="M -1 82.116674 
L 1.346832 84.161673 
L 4.355202 85.202829 
L 7.363257 86.465381 
L 10.483306 88.16474 
L 13.497941 90.300906 
L 16.508358 93.657738 
L 19.516716 98.055726 
L 22.637527 100.000415 
L 25.648028 97.134243 
L 31.781314 83.228222 
L 34.795056 78.614822 
L 37.799386 75.868324 
L 40.811368 72.577312 
L 43.92987 71.530172 
L 46.943596 74.527984 
L 53.070768 81.720341 
L 56.081953 85.962754 
L 59.108699 89.780327 
L 62.21157 95.05193 
L 65.226492 99.892709 
L 68.239857 102.603306 
L 71.247361 100.610748 
L 74.363998 93.729542 
L 77.377375 86.220051 
L 80.384902 80.90058 
L 83.50533 74.097161 
L 86.515993 71.769518 
L 89.517401 74.785282 
L 92.528531 79.159335 
L 95.654736 82.522151 
L 98.675279 86.112345 
L 101.678476 92.054117 
L 104.799299 97.750559 
L 107.805856 101.62797 
L 110.812435 103.18372 
L 113.832771 99.826889 
L 119.955775 87.063747 
L 122.959291 81.714357 
L 126.090009 77.95662 
L 129.107847 73.540681 
L 132.12481 69.986388 
L 135.22832 71.613943 
L 138.242592 76.652183 
L 141.254888 79.889342 
L 144.262345 82.911089 
L 147.383722 88.451956 
L 150.392732 94.124463 
L 153.412984 98.217285 
L 156.522453 100.550911 
L 159.532291 100.173941 
L 162.544909 89.175978 
L 165.555762 83.311994 
L 168.675005 79.129417 
L 171.685128 75.389631 
L 174.688416 73.391089 
L 177.818308 76.257261 
L 180.829959 80.020982 
L 183.839103 83.036745 
L 186.849806 88.266462 
L 190.009947 94.262087 
L 192.982883 98.857536 
L 195.986432 101.316819 
L 199.113195 98.468598 
L 202.119215 91.982313 
L 205.125187 86.028574 
L 208.250828 81.020253 
L 214.276886 74.115112 
L 217.288078 73.576583 
L 223.42233 81.092057 
L 226.417673 84.317248 
L 229.544405 89.319586 
L 232.559323 94.435613 
L 235.574047 98.241219 
L 238.583407 99.898692 
L 241.70007 92.724287 
L 247.722023 81.792145 
L 250.84462 77.657437 
L 253.854925 73.175678 
L 256.864324 71.027545 
L 259.875206 74.689543 
L 262.993526 79.171303 
L 266.013504 81.929769 
L 269.022363 86.124313 
L 272.132118 91.808787 
L 275.138952 96.386285 
L 278.156123 99.557624 
L 281.274814 101.173212 
L 284.28988 98.666059 
L 287.296011 93.208963 
L 293.426942 82.677726 
L 296.444186 78.495149 
L 299.449985 74.63569 
L 302.56897 72.691001 
L 305.585637 75.389631 
L 308.592502 79.219172 
L 311.602006 81.929769 
L 314.722523 86.214068 
L 317.734609 91.509605 
L 320.743553 96.140956 
L 323.888193 101.233048 
L 326.863573 101.406574 
L 329.87396 97.45736 
L 336.007055 86.38161 
L 339.016114 81.851981 
L 340.354418 80.224675 
L 340.354418 80.224675 
" style="fill:none;stroke:#1f77b4;stroke-linecap:square;stroke-width:0.7;"/>
   </g>
   <g id="line2d_12">
    <path clip-path="url(#pbaed10891a)" d="M -1 86.734646 
L 340.354418 86.734646 
L 340.354418 86.734646 
" style="fill:none;stroke:#ff7f0e;stroke-linecap:square;stroke-width:1.5;"/>
   </g>
   <g id="patch_8">
    <path d="M 33.540844 108.267323 
L 33.540844 65.555894 
" style="fill:none;stroke:#000000;stroke-linecap:square;stroke-linejoin:miter;stroke-width:0.8;"/>
   </g>
   <g id="patch_9">
    <path d="M 339.354418 108.267323 
L 339.354418 65.555894 
" style="fill:none;stroke:#000000;stroke-linecap:square;stroke-linejoin:miter;stroke-width:0.8;"/>
   </g>
   <g id="patch_10">
    <path d="M 33.540844 108.267323 
L 339.354418 108.267323 
" style="fill:none;stroke:#000000;stroke-linecap:square;stroke-linejoin:miter;stroke-width:0.8;"/>
   </g>
   <g id="patch_11">
    <path d="M 33.540844 65.555894 
L 339.354418 65.555894 
" style="fill:none;stroke:#000000;stroke-linecap:square;stroke-linejoin:miter;stroke-width:0.8;"/>
   </g>
  </g>
  <g id="axes_3">
   <g id="patch_12">
    <path d="M 33.540844 159.521037 
L 339.354418 159.521037 
L 339.354418 116.809608 
L 33.540844 116.809608 
z
" style="fill:#ffffff;"/>
   </g>
   <g id="matplotlib.axis_5"/>
   <g id="matplotlib.axis_6">
    <g id="ytick_9">
     <g id="line2d_13">
      <g>
       <use style="stroke:#000000;stroke-width:0.8;" x="33.540844" xlink:href="#mc563d3c7ff" y="159.521037"/>
      </g>
     </g>
     <g id="text_10">
      <!-- $\mathdefault{-500}$ -->
      <g transform="translate(3.848094 162.980286)scale(0.1 -0.1)">
       <use transform="scale(0.996264)" xlink:href="#CMSY10-0"/>
       <use transform="translate(77.487468 0)scale(0.996264)" xlink:href="#CMR17-53"/>
       <use transform="translate(123.177945 0)scale(0.996264)" xlink:href="#CMR17-48"/>
       <use transform="translate(168.868422 0)scale(0.996264)" xlink:href="#CMR17-48"/>
      </g>
     </g>
    </g>
    <g id="ytick_10">
     <g id="line2d_14">
      <g>
       <use style="stroke:#000000;stroke-width:0.8;" x="33.540844" xlink:href="#mc563d3c7ff" y="147.317772"/>
      </g>
     </g>
     <g id="text_11">
      <!-- $\mathdefault{-300}$ -->
      <g transform="translate(3.848094 150.777021)scale(0.1 -0.1)">
       <use transform="scale(0.996264)" xlink:href="#CMSY10-0"/>
       <use transform="translate(77.487468 0)scale(0.996264)" xlink:href="#CMR17-51"/>
       <use transform="translate(123.177945 0)scale(0.996264)" xlink:href="#CMR17-48"/>
       <use transform="translate(168.868422 0)scale(0.996264)" xlink:href="#CMR17-48"/>
      </g>
     </g>
    </g>
    <g id="ytick_11">
     <g id="line2d_15">
      <g>
       <use style="stroke:#000000;stroke-width:0.8;" x="33.540844" xlink:href="#mc563d3c7ff" y="135.114506"/>
      </g>
     </g>
     <g id="text_12">
      <!-- $\mathdefault{-100}$ -->
      <g transform="translate(3.848094 138.573756)scale(0.1 -0.1)">
       <use transform="scale(0.996264)" xlink:href="#CMSY10-0"/>
       <use transform="translate(77.487468 0)scale(0.996264)" xlink:href="#CMR17-49"/>
       <use transform="translate(123.177945 0)scale(0.996264)" xlink:href="#CMR17-48"/>
       <use transform="translate(168.868422 0)scale(0.996264)" xlink:href="#CMR17-48"/>
      </g>
     </g>
    </g>
    <g id="ytick_12">
     <g id="line2d_16">
      <g>
       <use style="stroke:#000000;stroke-width:0.8;" x="33.540844" xlink:href="#mc563d3c7ff" y="122.911241"/>
      </g>
     </g>
     <g id="text_13">
      <!-- $\mathdefault{100}$ -->
      <g transform="translate(11.596838 126.37049)scale(0.1 -0.1)">
       <use transform="scale(0.996264)" xlink:href="#CMR17-49"/>
       <use transform="translate(45.690477 0)scale(0.996264)" xlink:href="#CMR17-48"/>
       <use transform="translate(91.380954 0)scale(0.996264)" xlink:href="#CMR17-48"/>
      </g>
     </g>
    </g>
   </g>
   <g id="line2d_17">
    <path clip-path="url(#p9c1e50de5f)" d="M -1 138.180355 
L 7.363257 144.067756 
L 10.483306 144.594318 
L 13.497941 142.625695 
L 19.516716 134.284476 
L 22.637527 130.664363 
L 25.648028 128.199096 
L 28.658196 129.820667 
L 31.781314 132.202163 
L 34.795056 135.319649 
L 40.811368 142.512005 
L 43.92987 145.36621 
L 46.943596 146.024412 
L 49.951513 143.15824 
L 53.070768 137.784916 
L 56.081953 130.520755 
L 59.108699 128.62992 
L 62.21157 128.845331 
L 68.239857 135.983835 
L 74.363998 139.729604 
L 80.384902 144.725959 
L 83.50533 146.335562 
L 86.515993 142.793237 
L 89.517401 141.273388 
L 92.528531 138.419183 
L 95.654736 134.529806 
L 101.678476 128.785495 
L 104.799299 127.068185 
L 107.805856 129.150498 
L 110.812435 132.435526 
L 113.832771 135.40342 
L 119.955775 140.788712 
L 122.959291 143.912181 
L 126.090009 146.072281 
L 129.107847 145.096945 
L 132.12481 142.087166 
L 135.22832 138.383281 
L 138.242592 135.247845 
L 141.254888 132.495362 
L 144.262345 130.23354 
L 147.383722 128.252949 
L 150.392732 130.197638 
L 153.412984 133.321107 
L 156.522453 136.277034 
L 159.532291 138.634595 
L 162.544909 140.435676 
L 165.555762 143.301848 
L 168.675005 145.928674 
L 171.685128 146.215889 
L 174.688416 143.774557 
L 177.818308 136.857449 
L 180.829959 133.674143 
L 183.839103 131.226827 
L 186.849806 129.270171 
L 190.009947 129.940341 
L 195.986432 135.241861 
L 202.119215 140.597235 
L 205.125187 142.577825 
L 208.250828 146.03638 
L 214.276886 141.159699 
L 217.288078 139.131239 
L 220.402725 136.079573 
L 223.42233 132.45946 
L 226.417673 130.185671 
L 229.544405 129.036808 
L 232.559323 130.185671 
L 235.574047 135.600881 
L 238.583407 137.820818 
L 241.70007 139.137222 
L 244.711086 141.117813 
L 247.722023 144.307102 
L 250.84462 146.682615 
L 253.854925 146.1022 
L 256.864324 143.110371 
L 259.875206 139.370585 
L 262.993526 136.133426 
L 266.013504 130.879775 
L 269.022363 129.234269 
L 272.132118 129.377877 
L 275.138952 131.304615 
L 278.156123 133.86562 
L 281.274814 136.737776 
L 284.28988 139.268863 
L 287.296011 140.681006 
L 290.309568 142.793237 
L 293.426942 145.557687 
L 296.444186 143.732671 
L 299.449985 140.950271 
L 305.585637 134.505871 
L 308.592502 131.729454 
L 311.602006 130.191654 
L 314.722523 130.61051 
L 317.734609 132.531264 
L 320.743553 134.858907 
L 323.888193 138.335412 
L 326.863573 144.636204 
L 329.87396 146.7245 
L 332.888024 147.316882 
L 336.007055 145.156782 
L 340.354418 141.435249 
L 340.354418 141.435249 
" style="fill:none;stroke:#1f77b4;stroke-linecap:square;stroke-width:0.7;"/>
   </g>
   <g id="line2d_18">
    <path clip-path="url(#p9c1e50de5f)" d="M -1 137.98836 
L 340.354418 137.98836 
L 340.354418 137.98836 
" style="fill:none;stroke:#ff7f0e;stroke-linecap:square;stroke-width:1.5;"/>
   </g>
   <g id="patch_13">
    <path d="M 33.540844 159.521037 
L 33.540844 116.809608 
" style="fill:none;stroke:#000000;stroke-linecap:square;stroke-linejoin:miter;stroke-width:0.8;"/>
   </g>
   <g id="patch_14">
    <path d="M 339.354418 159.521037 
L 339.354418 116.809608 
" style="fill:none;stroke:#000000;stroke-linecap:square;stroke-linejoin:miter;stroke-width:0.8;"/>
   </g>
   <g id="patch_15">
    <path d="M 33.540844 159.521037 
L 339.354418 159.521037 
" style="fill:none;stroke:#000000;stroke-linecap:square;stroke-linejoin:miter;stroke-width:0.8;"/>
   </g>
   <g id="patch_16">
    <path d="M 33.540844 116.809608 
L 339.354418 116.809608 
" style="fill:none;stroke:#000000;stroke-linecap:square;stroke-linejoin:miter;stroke-width:0.8;"/>
   </g>
  </g>
  <g id="axes_4">
   <g id="patch_17">
    <path d="M 33.540844 210.774751 
L 339.354418 210.774751 
L 339.354418 168.063323 
L 33.540844 168.063323 
z
" style="fill:#ffffff;"/>
   </g>
   <g id="matplotlib.axis_7"/>
   <g id="matplotlib.axis_8">
    <g id="ytick_13">
     <g id="line2d_19">
      <g>
       <use style="stroke:#000000;stroke-width:0.8;" x="33.540844" xlink:href="#mc563d3c7ff" y="210.774751"/>
      </g>
     </g>
     <g id="text_14">
      <!-- $\mathdefault{-500}$ -->
      <g transform="translate(3.848094 214.234)scale(0.1 -0.1)">
       <use transform="scale(0.996264)" xlink:href="#CMSY10-0"/>
       <use transform="translate(77.487468 0)scale(0.996264)" xlink:href="#CMR17-53"/>
       <use transform="translate(123.177945 0)scale(0.996264)" xlink:href="#CMR17-48"/>
       <use transform="translate(168.868422 0)scale(0.996264)" xlink:href="#CMR17-48"/>
      </g>
     </g>
    </g>
    <g id="ytick_14">
     <g id="line2d_20">
      <g>
       <use style="stroke:#000000;stroke-width:0.8;" x="33.540844" xlink:href="#mc563d3c7ff" y="198.571486"/>
      </g>
     </g>
     <g id="text_15">
      <!-- $\mathdefault{-300}$ -->
      <g transform="translate(3.848094 202.030735)scale(0.1 -0.1)">
       <use transform="scale(0.996264)" xlink:href="#CMSY10-0"/>
       <use transform="translate(77.487468 0)scale(0.996264)" xlink:href="#CMR17-51"/>
       <use transform="translate(123.177945 0)scale(0.996264)" xlink:href="#CMR17-48"/>
       <use transform="translate(168.868422 0)scale(0.996264)" xlink:href="#CMR17-48"/>
      </g>
     </g>
    </g>
    <g id="ytick_15">
     <g id="line2d_21">
      <g>
       <use style="stroke:#000000;stroke-width:0.8;" x="33.540844" xlink:href="#mc563d3c7ff" y="186.368221"/>
      </g>
     </g>
     <g id="text_16">
      <!-- $\mathdefault{-100}$ -->
      <g transform="translate(3.848094 189.82747)scale(0.1 -0.1)">
       <use transform="scale(0.996264)" xlink:href="#CMSY10-0"/>
       <use transform="translate(77.487468 0)scale(0.996264)" xlink:href="#CMR17-49"/>
       <use transform="translate(123.177945 0)scale(0.996264)" xlink:href="#CMR17-48"/>
       <use transform="translate(168.868422 0)scale(0.996264)" xlink:href="#CMR17-48"/>
      </g>
     </g>
    </g>
    <g id="ytick_16">
     <g id="line2d_22">
      <g>
       <use style="stroke:#000000;stroke-width:0.8;" x="33.540844" xlink:href="#mc563d3c7ff" y="174.164955"/>
      </g>
     </g>
     <g id="text_17">
      <!-- $\mathdefault{100}$ -->
      <g transform="translate(11.596838 177.624205)scale(0.1 -0.1)">
       <use transform="scale(0.996264)" xlink:href="#CMR17-49"/>
       <use transform="translate(45.690477 0)scale(0.996264)" xlink:href="#CMR17-48"/>
       <use transform="translate(91.380954 0)scale(0.996264)" xlink:href="#CMR17-48"/>
      </g>
     </g>
    </g>
   </g>
   <g id="line2d_23">
    <path clip-path="url(#pdad5c6d73e)" d="M -1 187.7049 
L 7.363257 193.412684 
L 10.483306 195.249667 
L 13.497941 195.106059 
L 16.508358 192.682677 
L 19.516716 188.733463 
L 22.637527 184.963759 
L 25.648028 181.858241 
L 28.658196 180.43413 
L 31.781314 181.188071 
L 34.795056 183.862766 
L 37.799386 187.68034 
L 40.811368 191.725292 
L 43.92987 198.815926 
L 46.943596 201.041847 
L 49.951513 202.896781 
L 53.070768 200.467416 
L 62.21157 186.675085 
L 65.226492 182.15144 
L 68.239857 179.099775 
L 71.247361 179.87765 
L 74.363998 183.168662 
L 80.384902 191.677423 
L 83.50533 195.710408 
L 86.515993 198.917649 
L 89.517401 198.845845 
L 92.528531 194.956467 
L 95.654736 190.025933 
L 98.675279 186.710987 
L 101.678476 183.743093 
L 104.799299 180.817084 
L 107.805856 177.364514 
L 110.812435 176.018191 
L 113.832771 179.279284 
L 116.94633 183.701207 
L 119.955775 192.281772 
L 126.090009 200.066511 
L 129.107847 201.706033 
L 132.12481 198.44494 
L 135.22832 192.18005 
L 138.242592 186.423772 
L 141.254888 183.402025 
L 144.262345 181.17012 
L 147.383722 178.291981 
L 150.392732 177.089266 
L 153.412984 179.07584 
L 156.522453 182.223244 
L 159.532291 186.411804 
L 162.544909 190.845695 
L 171.685128 201.76587 
L 174.688416 201.257259 
L 177.818308 196.23697 
L 180.829959 189.90626 
L 183.839103 185.508272 
L 186.849806 182.941283 
L 190.009947 179.979372 
L 192.982883 175.736959 
L 195.986432 178.393703 
L 211.260808 198.109855 
L 214.276886 198.971502 
L 217.288078 196.17115 
L 220.402725 191.282502 
L 223.42233 187.267467 
L 226.417673 184.479083 
L 232.559323 179.165595 
L 235.574047 179.32117 
L 238.583407 182.594231 
L 241.70007 187.417059 
L 244.711086 191.288485 
L 247.722023 194.860729 
L 250.84462 198.857812 
L 253.854925 202.430056 
L 256.864324 202.777108 
L 259.875206 198.33125 
L 262.993526 191.647505 
L 266.013504 183.288335 
L 269.022363 180.930774 
L 272.132118 177.831239 
L 275.138952 176.125897 
L 278.156123 178.417638 
L 281.274814 182.013816 
L 284.28988 186.722955 
L 287.296011 190.504626 
L 290.309568 193.400716 
L 293.426942 197.493538 
L 296.444186 200.934141 
L 299.449985 200.311841 
L 302.56897 195.907869 
L 305.585637 189.714783 
L 308.592502 184.724413 
L 311.602006 182.354884 
L 314.722523 180.12298 
L 317.734609 178.172308 
L 320.743553 178.130422 
L 323.888193 180.386261 
L 326.863573 183.611453 
L 329.87396 187.758127 
L 332.888024 191.55775 
L 336.007055 194.645317 
L 339.016114 197.224274 
L 340.354418 197.767597 
L 340.354418 197.767597 
" style="fill:none;stroke:#1f77b4;stroke-linecap:square;stroke-width:0.7;"/>
   </g>
   <g id="line2d_24">
    <path clip-path="url(#pdad5c6d73e)" d="M -1 189.242074 
L 340.354418 189.242074 
L 340.354418 189.242074 
" style="fill:none;stroke:#ff7f0e;stroke-linecap:square;stroke-width:1.5;"/>
   </g>
   <g id="patch_18">
    <path d="M 33.540844 210.774751 
L 33.540844 168.063323 
" style="fill:none;stroke:#000000;stroke-linecap:square;stroke-linejoin:miter;stroke-width:0.8;"/>
   </g>
   <g id="patch_19">
    <path d="M 339.354418 210.774751 
L 339.354418 168.063323 
" style="fill:none;stroke:#000000;stroke-linecap:square;stroke-linejoin:miter;stroke-width:0.8;"/>
   </g>
   <g id="patch_20">
    <path d="M 33.540844 210.774751 
L 339.354418 210.774751 
" style="fill:none;stroke:#000000;stroke-linecap:square;stroke-linejoin:miter;stroke-width:0.8;"/>
   </g>
   <g id="patch_21">
    <path d="M 33.540844 168.063323 
L 339.354418 168.063323 
" style="fill:none;stroke:#000000;stroke-linecap:square;stroke-linejoin:miter;stroke-width:0.8;"/>
   </g>
  </g>
  <g id="axes_5">
   <g id="patch_22">
    <path d="M 33.540844 262.028466 
L 339.354418 262.028466 
L 339.354418 219.317037 
L 33.540844 219.317037 
z
" style="fill:#ffffff;"/>
   </g>
   <g id="matplotlib.axis_9"/>
   <g id="matplotlib.axis_10">
    <g id="ytick_17">
     <g id="line2d_25">
      <g>
       <use style="stroke:#000000;stroke-width:0.8;" x="33.540844" xlink:href="#mc563d3c7ff" y="262.028466"/>
      </g>
     </g>
     <g id="text_18">
      <!-- $\mathdefault{-500}$ -->
      <g transform="translate(3.848094 265.487715)scale(0.1 -0.1)">
       <use transform="scale(0.996264)" xlink:href="#CMSY10-0"/>
       <use transform="translate(77.487468 0)scale(0.996264)" xlink:href="#CMR17-53"/>
       <use transform="translate(123.177945 0)scale(0.996264)" xlink:href="#CMR17-48"/>
       <use transform="translate(168.868422 0)scale(0.996264)" xlink:href="#CMR17-48"/>
      </g>
     </g>
    </g>
    <g id="ytick_18">
     <g id="line2d_26">
      <g>
       <use style="stroke:#000000;stroke-width:0.8;" x="33.540844" xlink:href="#mc563d3c7ff" y="249.8252"/>
      </g>
     </g>
     <g id="text_19">
      <!-- $\mathdefault{-300}$ -->
      <g transform="translate(3.848094 253.284449)scale(0.1 -0.1)">
       <use transform="scale(0.996264)" xlink:href="#CMSY10-0"/>
       <use transform="translate(77.487468 0)scale(0.996264)" xlink:href="#CMR17-51"/>
       <use transform="translate(123.177945 0)scale(0.996264)" xlink:href="#CMR17-48"/>
       <use transform="translate(168.868422 0)scale(0.996264)" xlink:href="#CMR17-48"/>
      </g>
     </g>
    </g>
    <g id="ytick_19">
     <g id="line2d_27">
      <g>
       <use style="stroke:#000000;stroke-width:0.8;" x="33.540844" xlink:href="#mc563d3c7ff" y="237.621935"/>
      </g>
     </g>
     <g id="text_20">
      <!-- $\mathdefault{-100}$ -->
      <g transform="translate(3.848094 241.081184)scale(0.1 -0.1)">
       <use transform="scale(0.996264)" xlink:href="#CMSY10-0"/>
       <use transform="translate(77.487468 0)scale(0.996264)" xlink:href="#CMR17-49"/>
       <use transform="translate(123.177945 0)scale(0.996264)" xlink:href="#CMR17-48"/>
       <use transform="translate(168.868422 0)scale(0.996264)" xlink:href="#CMR17-48"/>
      </g>
     </g>
    </g>
    <g id="ytick_20">
     <g id="line2d_28">
      <g>
       <use style="stroke:#000000;stroke-width:0.8;" x="33.540844" xlink:href="#mc563d3c7ff" y="225.41867"/>
      </g>
     </g>
     <g id="text_21">
      <!-- $\mathdefault{100}$ -->
      <g transform="translate(11.596838 228.877919)scale(0.1 -0.1)">
       <use transform="scale(0.996264)" xlink:href="#CMR17-49"/>
       <use transform="translate(45.690477 0)scale(0.996264)" xlink:href="#CMR17-48"/>
       <use transform="translate(91.380954 0)scale(0.996264)" xlink:href="#CMR17-48"/>
      </g>
     </g>
    </g>
   </g>
   <g id="line2d_29">
    <path clip-path="url(#p189888317b)" d="M -1 235.468002 
L 1.346832 236.474771 
L 7.363257 238.598969 
L 10.483306 240.376115 
L 13.497941 242.937121 
L 16.508358 246.102476 
L 19.516716 250.392758 
L 22.637527 254.377874 
L 25.648028 254.282136 
L 28.658196 241.159975 
L 31.781314 234.649755 
L 34.795056 230.892018 
L 37.799386 227.936091 
L 40.811368 224.794671 
L 43.92987 225.213527 
L 46.943596 229.497826 
L 53.070768 239.388812 
L 56.081953 243.595323 
L 59.108699 247.029943 
L 62.21157 251.445882 
L 65.226492 254.683041 
L 68.239857 255.430998 
L 71.247361 252.57081 
L 74.363998 245.803293 
L 77.377375 233.75819 
L 83.50533 227.714696 
L 86.515993 225.841811 
L 89.517401 228.684049 
L 92.528531 233.010233 
L 98.675279 239.526436 
L 104.799299 250.685958 
L 107.805856 253.857296 
L 110.812435 255.688295 
L 113.832771 254.204348 
L 116.94633 248.310445 
L 119.955775 242.093425 
L 122.959291 236.367065 
L 126.090009 228.145519 
L 129.107847 224.896393 
L 132.12481 224.357864 
L 138.242592 232.292194 
L 141.254888 234.583935 
L 144.262345 238.694708 
L 147.383722 244.265493 
L 150.392732 248.561759 
L 153.412984 251.757032 
L 156.522453 253.719672 
L 159.532291 251.577522 
L 162.544909 246.018705 
L 165.555762 240.070949 
L 168.675005 234.422376 
L 171.685128 230.491113 
L 174.688416 227.583056 
L 177.818308 230.784312 
L 180.829959 234.06934 
L 183.839103 237.055186 
L 186.849806 242.637938 
L 190.009947 247.885606 
L 192.982883 251.625392 
L 195.986432 253.851312 
L 199.113195 250.805631 
L 202.119215 244.14582 
L 205.125187 238.377574 
L 208.250828 233.572697 
L 211.260808 230.114143 
L 214.276886 227.194118 
L 217.288078 227.032559 
L 223.42233 234.661722 
L 226.417673 242.087442 
L 229.544405 246.766662 
L 232.559323 250.279069 
L 235.574047 252.510973 
L 238.583407 250.997108 
L 241.70007 246.527315 
L 244.711086 241.602765 
L 247.722023 235.445582 
L 250.84462 230.730459 
L 253.854925 227.098379 
L 256.864324 224.435652 
L 259.875206 226.146978 
L 262.993526 230.939887 
L 266.013504 234.06934 
L 269.022363 236.953463 
L 272.132118 242.225066 
L 275.138952 246.934204 
L 278.156123 253.276881 
L 281.274814 253.671803 
L 284.28988 249.094305 
L 287.296011 243.906473 
L 290.309568 238.263884 
L 293.426942 232.95638 
L 296.444186 229.497826 
L 299.449985 226.841082 
L 302.56897 227.026575 
L 305.585637 230.395375 
L 308.592502 233.411138 
L 311.602006 235.870421 
L 314.722523 240.423985 
L 317.734609 245.210911 
L 320.743553 249.363569 
L 323.888193 252.259659 
L 326.863573 253.211061 
L 329.87396 249.106272 
L 332.888024 244.181722 
L 336.007055 238.670773 
L 339.016114 234.302703 
L 340.354418 233.093543 
L 340.354418 233.093543 
" style="fill:none;stroke:#1f77b4;stroke-linecap:square;stroke-width:0.7;"/>
   </g>
   <g id="line2d_30">
    <path clip-path="url(#p189888317b)" d="M -1 240.495789 
L 340.354418 240.495789 
L 340.354418 240.495789 
" style="fill:none;stroke:#ff7f0e;stroke-linecap:square;stroke-width:1.5;"/>
   </g>
   <g id="patch_23">
    <path d="M 33.540844 262.028466 
L 33.540844 219.317037 
" style="fill:none;stroke:#000000;stroke-linecap:square;stroke-linejoin:miter;stroke-width:0.8;"/>
   </g>
   <g id="patch_24">
    <path d="M 339.354418 262.028466 
L 339.354418 219.317037 
" style="fill:none;stroke:#000000;stroke-linecap:square;stroke-linejoin:miter;stroke-width:0.8;"/>
   </g>
   <g id="patch_25">
    <path d="M 33.540844 262.028466 
L 339.354418 262.028466 
" style="fill:none;stroke:#000000;stroke-linecap:square;stroke-linejoin:miter;stroke-width:0.8;"/>
   </g>
   <g id="patch_26">
    <path d="M 33.540844 219.317037 
L 339.354418 219.317037 
" style="fill:none;stroke:#000000;stroke-linecap:square;stroke-linejoin:miter;stroke-width:0.8;"/>
   </g>
  </g>
  <g id="axes_6">
   <g id="patch_27">
    <path d="M 33.540844 313.28218 
L 339.354418 313.28218 
L 339.354418 270.570751 
L 33.540844 270.570751 
z
" style="fill:#ffffff;"/>
   </g>
   <g id="matplotlib.axis_11">
    <g id="xtick_1">
     <g id="line2d_31">
      <defs>
       <path d="M 0 0 
L 0 3.5 
" id="mb11674319e" style="stroke:#000000;stroke-width:0.8;"/>
      </defs>
      <g>
       <use style="stroke:#000000;stroke-width:0.8;" x="64.122201" xlink:href="#mb11674319e" y="313.28218"/>
      </g>
     </g>
     <g id="text_22">
      <!-- $\mathdefault{6}$ -->
      <g transform="translate(61.631533 327.200678)scale(0.1 -0.1)">
       <use transform="scale(0.996264)" xlink:href="#CMR17-54"/>
      </g>
     </g>
    </g>
    <g id="xtick_2">
     <g id="line2d_32">
      <g>
       <use style="stroke:#000000;stroke-width:0.8;" x="125.284916" xlink:href="#mb11674319e" y="313.28218"/>
      </g>
     </g>
     <g id="text_23">
      <!-- $\mathdefault{8}$ -->
      <g transform="translate(122.794248 327.200678)scale(0.1 -0.1)">
       <defs>
        <path d="M 27.203125 35.375 
C 33.5 38.546875 39.90625 43.328125 39.90625 50.984375 
C 39.90625 60.015625 31.09375 65.296875 23 65.296875 
C 13.90625 65.296875 5.90625 58.734375 5.90625 49.6875 
C 5.90625 47.203125 6.5 42.921875 10.40625 39.140625 
C 11.40625 38.15625 15.59375 35.171875 18.296875 33.28125 
C 13.796875 30.984375 3.296875 25.53125 3.296875 14.59375 
C 3.296875 4.359375 13.09375 -2 22.796875 -2 
C 33.5 -2 42.5 5.65625 42.5 15.78125 
C 42.5 24.84375 36.40625 29.015625 32.40625 31.703125 
z
M 14.09375 44.09375 
C 13.296875 44.59375 9.296875 47.671875 9.296875 52.359375 
C 9.296875 58.421875 15.59375 63 22.796875 63 
C 30.703125 63 36.5 57.4375 36.5 50.96875 
C 36.5 41.703125 26.09375 36.421875 25.59375 36.421875 
C 25.5 36.421875 25.40625 36.421875 24.59375 37.03125 
z
M 32.5 23.734375 
C 34 22.640625 38.796875 19.375 38.796875 13.296875 
C 38.796875 5.953125 31.40625 0.390625 23 0.390625 
C 13.90625 0.390625 7 6.84375 7 14.6875 
C 7 22.546875 13.09375 29.09375 20 32.1875 
z
" id="CMR17-56"/>
       </defs>
       <use transform="scale(0.996264)" xlink:href="#CMR17-56"/>
      </g>
     </g>
    </g>
    <g id="xtick_3">
     <g id="line2d_33">
      <g>
       <use style="stroke:#000000;stroke-width:0.8;" x="186.447631" xlink:href="#mb11674319e" y="313.28218"/>
      </g>
     </g>
     <g id="text_24">
      <!-- $\mathdefault{10}$ -->
      <g transform="translate(181.466295 327.200678)scale(0.1 -0.1)">
       <use transform="scale(0.996264)" xlink:href="#CMR17-49"/>
       <use transform="translate(45.690477 0)scale(0.996264)" xlink:href="#CMR17-48"/>
      </g>
     </g>
    </g>
    <g id="xtick_4">
     <g id="line2d_34">
      <g>
       <use style="stroke:#000000;stroke-width:0.8;" x="247.610345" xlink:href="#mb11674319e" y="313.28218"/>
      </g>
     </g>
     <g id="text_25">
      <!-- $\mathdefault{12}$ -->
      <g transform="translate(242.62901 327.200678)scale(0.1 -0.1)">
       <defs>
        <path d="M 41.703125 15.453125 
L 39.90625 15.453125 
C 38.90625 8.375 38.09375 7.171875 37.703125 6.5625 
C 37.203125 5.765625 30 5.765625 28.59375 5.765625 
L 9.40625 5.765625 
C 13 9.671875 20 16.75 28.5 24.953125 
C 34.59375 30.734375 41.703125 37.53125 41.703125 47.421875 
C 41.703125 59.21875 32.296875 66 21.796875 66 
C 10.796875 66 4.09375 56.3125 4.09375 47.34375 
C 4.09375 43.4375 7 42.9375 8.203125 42.9375 
C 9.203125 42.9375 12.203125 43.546875 12.203125 47.03125 
C 12.203125 50.109375 9.59375 51 8.203125 51 
C 7.59375 51 7 50.90625 6.59375 50.703125 
C 8.5 59.21875 14.296875 63.40625 20.40625 63.40625 
C 29.09375 63.40625 34.796875 56.515625 34.796875 47.421875 
C 34.796875 38.734375 29.703125 31.25 24 24.75 
L 4.09375 2.28125 
L 4.09375 0 
L 39.296875 0 
z
" id="CMR17-50"/>
       </defs>
       <use transform="scale(0.996264)" xlink:href="#CMR17-49"/>
       <use transform="translate(45.690477 0)scale(0.996264)" xlink:href="#CMR17-50"/>
      </g>
     </g>
    </g>
    <g id="xtick_5">
     <g id="line2d_35">
      <g>
       <use style="stroke:#000000;stroke-width:0.8;" x="308.77306" xlink:href="#mb11674319e" y="313.28218"/>
      </g>
     </g>
     <g id="text_26">
      <!-- $\mathdefault{14}$ -->
      <g transform="translate(303.791725 327.200678)scale(0.1 -0.1)">
       <defs>
        <path d="M 33.59375 64.40625 
C 33.59375 66.5 33.5 66.5 31.703125 66.5 
L 2 19.59375 
L 2 17 
L 27.796875 17 
L 27.796875 7.140625 
C 27.796875 3.5 27.59375 2.5 20.59375 2.5 
L 18.703125 2.5 
L 18.703125 0 
C 21.90625 0 27.296875 0 30.703125 0 
C 34.09375 0 39.5 0 42.703125 0 
L 42.703125 2.5 
L 40.796875 2.5 
C 33.796875 2.5 33.59375 3.5 33.59375 7.140625 
L 33.59375 17 
L 43.796875 17 
L 43.796875 19.59375 
L 33.59375 19.59375 
z
M 28.09375 57.859375 
L 28.09375 19.59375 
L 4 19.59375 
z
" id="CMR17-52"/>
       </defs>
       <use transform="scale(0.996264)" xlink:href="#CMR17-49"/>
       <use transform="translate(45.690477 0)scale(0.996264)" xlink:href="#CMR17-52"/>
      </g>
     </g>
    </g>
    <g id="text_27">
     <!-- Time [s] -->
     <g transform="translate(168.708572 340.609837)scale(0.1 -0.1)">
      <defs>
       <path d="M 62.203125 67.59375 
L 4.5 67.59375 
L 2.796875 45.59375 
L 4.59375 45.59375 
C 5.90625 62.125 7.296875 65 22.703125 65 
C 24.5 65 27.40625 65 28.203125 64.90625 
C 30.09375 64.609375 30.09375 63.40625 30.09375 61.125 
L 30.09375 7.171875 
C 30.09375 3.59375 29.796875 2.5 21.5 2.5 
L 18.703125 2.5 
L 18.703125 0 
C 23.5 0 28.5 0 33.40625 0 
C 38.296875 0 43.296875 0 48.09375 0 
L 48.09375 2.5 
L 45.296875 2.5 
C 37 2.5 36.703125 3.59375 36.703125 7.171875 
L 36.703125 61.125 
C 36.703125 63.3125 36.703125 64.515625 38.5 64.90625 
C 39.296875 65 42.203125 65 44 65 
C 59.296875 65 60.796875 62.125 62.09375 45.59375 
L 63.90625 45.59375 
z
" id="CMR17-84"/>
       <path d="M 15.5 61.078125 
C 15.5 63.265625 13.703125 65.15625 11.40625 65.15625 
C 9.203125 65.15625 7.296875 63.375 7.296875 61.078125 
C 7.296875 58.890625 9.09375 57 11.40625 57 
C 13.59375 57 15.5 58.796875 15.5 61.078125 
z
M 3.796875 42.28125 
L 3.796875 39.703125 
C 9.40625 39.703125 10.203125 39.09375 10.203125 34.328125 
L 10.203125 6.671875 
C 10.203125 2.875 9.796875 2.390625 3.40625 2.390625 
L 3.40625 -0.203125 
C 5.796875 0 10.09375 0 12.59375 0 
C 15 0 19.09375 0 21.40625 -0.203125 
L 21.40625 2.390625 
C 15.5 2.390625 15.296875 2.984375 15.296875 6.5625 
L 15.296875 43.375 
z
" id="CMR17-105"/>
       <path d="M 67.59375 30.203125 
C 67.59375 35.1875 66.703125 43.59375 54.796875 43.59375 
C 48 43.59375 43.296875 39 41.5 33.609375 
L 41.40625 33.609375 
C 40.203125 41.8125 34.296875 43.59375 28.703125 43.59375 
C 20.796875 43.59375 16.703125 37.5 15.203125 33.5 
L 15.09375 33.5 
L 15.09375 43.59375 
L 3.296875 42.5 
L 3.296875 39.90625 
C 9.203125 39.90625 10.09375 39.296875 10.09375 34.5 
L 10.09375 6.6875 
C 10.09375 2.875 9.703125 2.390625 3.296875 2.390625 
L 3.296875 -0.203125 
C 5.703125 0 10.09375 0 12.703125 0 
C 15.296875 0 19.796875 0 22.203125 -0.203125 
L 22.203125 2.390625 
C 15.796875 2.390625 15.40625 2.78125 15.40625 6.6875 
L 15.40625 25.90625 
C 15.40625 35.109375 21 42 28 42 
C 35.40625 42 36.203125 35.40625 36.203125 30.59375 
L 36.203125 6.6875 
C 36.203125 2.875 35.796875 2.390625 29.40625 2.390625 
L 29.40625 -0.203125 
C 31.796875 0 36.203125 0 38.796875 0 
C 41.40625 0 45.90625 0 48.296875 -0.203125 
L 48.296875 2.390625 
C 41.90625 2.390625 41.5 2.78125 41.5 6.6875 
L 41.5 25.90625 
C 41.5 35.109375 47.09375 42 54.09375 42 
C 61.5 42 62.296875 35.40625 62.296875 30.59375 
L 62.296875 6.6875 
C 62.296875 2.875 61.90625 2.390625 55.5 2.390625 
L 55.5 -0.203125 
C 57.90625 0 62.296875 0 64.90625 0 
C 67.5 0 72 0 74.40625 -0.203125 
L 74.40625 2.390625 
C 68 2.390625 67.59375 2.78125 67.59375 6.6875 
z
" id="CMR17-109"/>
       <path d="M 23.5 -25 
L 23.5 -21.515625 
L 14.09375 -21.515625 
L 14.09375 71 
L 23.5 71 
L 23.5 74.484375 
L 10.59375 74.484375 
L 10.59375 -25 
z
" id="CMR17-91"/>
       <path d="M 30.90625 42.140625 
C 30.90625 43.953125 30.796875 44.046875 30.203125 44.046875 
C 29.796875 44.046875 29.703125 43.953125 28.5 42.453125 
C 28.203125 42.046875 27.296875 41.03125 27 40.640625 
C 23.796875 44.046875 19.296875 44.046875 17.59375 44.046875 
C 6.5 44.046875 2.5 38.234375 2.5 32.4375 
C 2.5 23.40625 12.703125 21.328125 15.59375 20.703125 
C 21.90625 19.421875 24.09375 19.015625 26.203125 17.203125 
C 27.5 16.015625 29.703125 13.8125 29.703125 10.21875 
C 29.703125 6 27.296875 0.59375 18.09375 0.59375 
C 9.40625 0.59375 6.296875 7.1875 4.5 15.953125 
C 4.203125 17.34375 4.203125 17.453125 3.40625 17.453125 
C 2.59375 17.453125 2.5 17.34375 2.5 15.359375 
L 2.5 0.984375 
C 2.5 -0.796875 2.59375 -0.90625 3.203125 -0.90625 
C 3.703125 -0.90625 3.796875 -0.796875 4.296875 0 
C 4.90625 0.890625 6.40625 3.296875 7 4.3125 
C 9 1.609375 12.5 -1 18.09375 -1 
C 28 -1 33.296875 4.421875 33.296875 12.25 
C 33.296875 17.375 30.59375 20.078125 29.296875 21.28125 
C 26.296875 24.390625 22.796875 25.09375 18.59375 25.890625 
C 13.09375 27.109375 6.09375 28.515625 6.09375 34.640625 
C 6.09375 37.234375 7.5 42.765625 17.59375 42.765625 
C 28.296875 42.765625 28.90625 32.71875 29.09375 29.5 
C 29.203125 29 29.703125 28.890625 30 28.890625 
C 30.90625 28.890625 30.90625 29.203125 30.90625 30.90625 
z
" id="CMR17-115"/>
       <path d="M 14.296875 74.484375 
L 1.40625 74.484375 
L 1.40625 71 
L 10.796875 71 
L 10.796875 -21.515625 
L 1.40625 -21.515625 
L 1.40625 -25 
L 14.296875 -25 
z
" id="CMR17-93"/>
      </defs>
      <use transform="scale(0.996264)" xlink:href="#CMR17-84"/>
      <use transform="translate(66.509881 0)scale(0.996264)" xlink:href="#CMR17-105"/>
      <use transform="translate(91.380939 0)scale(0.996264)" xlink:href="#CMR17-109"/>
      <use transform="translate(168.300529 0)scale(0.996264)" xlink:href="#CMR17-101"/>
      <use transform="translate(238.862156 0)scale(0.996264)" xlink:href="#CMR17-91"/>
      <use transform="translate(263.733214 0)scale(0.996264)" xlink:href="#CMR17-115"/>
      <use transform="translate(299.534552 0)scale(0.996264)" xlink:href="#CMR17-93"/>
     </g>
    </g>
   </g>
   <g id="matplotlib.axis_12">
    <g id="ytick_21">
     <g id="line2d_36">
      <g>
       <use style="stroke:#000000;stroke-width:0.8;" x="33.540844" xlink:href="#mc563d3c7ff" y="313.28218"/>
      </g>
     </g>
     <g id="text_28">
      <!-- $\mathdefault{-500}$ -->
      <g transform="translate(3.848094 316.741429)scale(0.1 -0.1)">
       <use transform="scale(0.996264)" xlink:href="#CMSY10-0"/>
       <use transform="translate(77.487468 0)scale(0.996264)" xlink:href="#CMR17-53"/>
       <use transform="translate(123.177945 0)scale(0.996264)" xlink:href="#CMR17-48"/>
       <use transform="translate(168.868422 0)scale(0.996264)" xlink:href="#CMR17-48"/>
      </g>
     </g>
    </g>
    <g id="ytick_22">
     <g id="line2d_37">
      <g>
       <use style="stroke:#000000;stroke-width:0.8;" x="33.540844" xlink:href="#mc563d3c7ff" y="301.078915"/>
      </g>
     </g>
     <g id="text_29">
      <!-- $\mathdefault{-300}$ -->
      <g transform="translate(3.848094 304.538164)scale(0.1 -0.1)">
       <use transform="scale(0.996264)" xlink:href="#CMSY10-0"/>
       <use transform="translate(77.487468 0)scale(0.996264)" xlink:href="#CMR17-51"/>
       <use transform="translate(123.177945 0)scale(0.996264)" xlink:href="#CMR17-48"/>
       <use transform="translate(168.868422 0)scale(0.996264)" xlink:href="#CMR17-48"/>
      </g>
     </g>
    </g>
    <g id="ytick_23">
     <g id="line2d_38">
      <g>
       <use style="stroke:#000000;stroke-width:0.8;" x="33.540844" xlink:href="#mc563d3c7ff" y="288.875649"/>
      </g>
     </g>
     <g id="text_30">
      <!-- $\mathdefault{-100}$ -->
      <g transform="translate(3.848094 292.334898)scale(0.1 -0.1)">
       <use transform="scale(0.996264)" xlink:href="#CMSY10-0"/>
       <use transform="translate(77.487468 0)scale(0.996264)" xlink:href="#CMR17-49"/>
       <use transform="translate(123.177945 0)scale(0.996264)" xlink:href="#CMR17-48"/>
       <use transform="translate(168.868422 0)scale(0.996264)" xlink:href="#CMR17-48"/>
      </g>
     </g>
    </g>
    <g id="ytick_24">
     <g id="line2d_39">
      <g>
       <use style="stroke:#000000;stroke-width:0.8;" x="33.540844" xlink:href="#mc563d3c7ff" y="276.672384"/>
      </g>
     </g>
     <g id="text_31">
      <!-- $\mathdefault{100}$ -->
      <g transform="translate(11.596838 280.131633)scale(0.1 -0.1)">
       <use transform="scale(0.996264)" xlink:href="#CMR17-49"/>
       <use transform="translate(45.690477 0)scale(0.996264)" xlink:href="#CMR17-48"/>
       <use transform="translate(91.380954 0)scale(0.996264)" xlink:href="#CMR17-48"/>
      </g>
     </g>
    </g>
   </g>
   <g id="line2d_40">
    <path clip-path="url(#p8b7c0ecffb)" d="M -1 293.857379 
L 1.346832 295.758554 
L 4.355202 297.864801 
L 7.363257 297.475863 
L 10.483306 293.29927 
L 13.497941 286.783067 
L 16.508358 280.972936 
L 19.516716 276.652735 
L 22.637527 276.574947 
L 25.648028 279.518907 
L 28.658196 283.671565 
L 31.781314 288.48841 
L 37.799386 298.822186 
L 40.811368 301.873852 
L 43.92987 300.527529 
L 46.943596 295.309779 
L 49.951513 288.626034 
L 53.070768 283.653614 
L 56.081953 280.326701 
L 59.108699 278.872672 
L 62.21157 280.889164 
L 65.226492 283.880993 
L 68.239857 287.070283 
L 71.247361 291.851225 
L 74.363998 296.428723 
L 77.377375 299.87531 
L 80.384902 301.084009 
L 83.50533 299.264977 
L 86.515993 296.464625 
L 89.517401 291.911062 
L 92.528531 286.860855 
L 95.654736 282.797951 
L 98.675279 278.202502 
L 101.678476 275.58166 
L 104.799299 276.802326 
L 107.805856 280.428423 
L 113.832771 289.188497 
L 116.94633 293.580502 
L 119.955775 298.612758 
L 122.959291 302.508119 
L 126.090009 302.059345 
L 129.107847 298.062262 
L 132.12481 292.192294 
L 135.22832 287.160038 
L 138.242592 283.857059 
L 141.254888 280.254897 
L 144.262345 277.598153 
L 147.383722 278.298241 
L 150.392732 281.535399 
L 153.412984 285.191414 
L 156.522453 289.786863 
L 159.532291 294.017309 
L 162.544909 298.917925 
L 165.555762 302.795335 
L 168.675005 302.412381 
L 171.685128 298.22382 
L 174.688416 292.377787 
L 177.818308 287.26176 
L 183.839103 280.290799 
L 186.849806 279.171855 
L 190.009947 280.601949 
L 192.982883 283.707467 
L 199.113195 293.837799 
L 202.119215 298.050294 
L 205.125187 301.311388 
L 208.250828 300.730973 
L 211.260808 298.175951 
L 214.276886 294.412231 
L 217.288078 289.218416 
L 220.402725 284.712722 
L 223.42233 281.822615 
L 226.417673 280.003583 
L 229.544405 280.583998 
L 232.559323 283.174922 
L 238.583407 291.306712 
L 241.70007 295.214041 
L 244.711086 300.671136 
L 247.722023 304.66822 
L 250.84462 303.980099 
L 253.854925 299.707768 
L 256.864324 293.616404 
L 259.875206 288.051603 
L 262.993526 284.473375 
L 266.013504 281.523432 
L 269.022363 279.201773 
L 272.132118 279.375299 
L 275.138952 282.151716 
L 278.156123 285.957322 
L 281.274814 290.672445 
L 284.28988 294.759283 
L 287.296011 299.558176 
L 290.309568 303.387717 
L 293.426942 302.741482 
L 296.444186 299.169238 
L 302.56897 288.518328 
L 305.585637 284.790509 
L 308.592502 282.738115 
L 311.602006 282.061961 
L 314.722523 282.809918 
L 317.734609 285.72396 
L 323.888193 294.663544 
L 326.863573 298.864072 
L 329.87396 301.365241 
L 332.888024 300.820728 
L 336.007055 298.768333 
L 339.016114 295.926096 
L 340.354418 293.787427 
L 340.354418 293.787427 
" style="fill:none;stroke:#1f77b4;stroke-linecap:square;stroke-width:0.7;"/>
   </g>
   <g id="line2d_41">
    <path clip-path="url(#p8b7c0ecffb)" d="M -1 291.749503 
L 340.354418 291.749503 
L 340.354418 291.749503 
" style="fill:none;stroke:#ff7f0e;stroke-linecap:square;stroke-width:1.5;"/>
   </g>
   <g id="patch_28">
    <path d="M 33.540844 313.28218 
L 33.540844 270.570751 
" style="fill:none;stroke:#000000;stroke-linecap:square;stroke-linejoin:miter;stroke-width:0.8;"/>
   </g>
   <g id="patch_29">
    <path d="M 339.354418 313.28218 
L 339.354418 270.570751 
" style="fill:none;stroke:#000000;stroke-linecap:square;stroke-linejoin:miter;stroke-width:0.8;"/>
   </g>
   <g id="patch_30">
    <path d="M 33.540844 313.28218 
L 339.354418 313.28218 
" style="fill:none;stroke:#000000;stroke-linecap:square;stroke-linejoin:miter;stroke-width:0.8;"/>
   </g>
   <g id="patch_31">
    <path d="M 33.540844 270.570751 
L 339.354418 270.570751 
" style="fill:none;stroke:#000000;stroke-linecap:square;stroke-linejoin:miter;stroke-width:0.8;"/>
   </g>
  </g>
  <g id="text_32">
   <!-- Force [N] -->
   <g transform="translate(7.47198 184.652141)rotate(-90)scale(0.1 -0.1)">
    <defs>
     <path d="M 20.5 66.40625 
C 19.796875 67.5 19.703125 67.5 17.796875 67.5 
L 5.09375 67.5 
L 5.09375 65 
L 7 65 
C 11 65 12.796875 64.515625 13.09375 64.40625 
L 13.09375 9.53125 
C 13.09375 7.046875 13.09375 2.390625 5.09375 2.390625 
L 5.09375 -0.203125 
C 7.40625 0 11.59375 0 14.09375 0 
C 16.59375 0 20.796875 0 23.09375 -0.203125 
L 23.09375 2.390625 
C 15.09375 2.390625 15.09375 7.046875 15.09375 9.53125 
L 15.09375 63.015625 
C 15.796875 62.421875 15.796875 62.21875 16.5 61.234375 
L 53.59375 1.1875 
C 54.296875 0 54.59375 0 55.09375 0 
C 56.09375 0 56.09375 0.296875 56.09375 2.171875 
L 56.09375 57.890625 
C 56.09375 60.359375 56.09375 65 64.09375 65 
L 64.09375 67.59375 
C 61.796875 67.5 57.59375 67.5 55.09375 67.5 
C 52.59375 67.5 48.40625 67.5 46.09375 67.59375 
L 46.09375 65 
C 54.09375 65 54.09375 60.34375 54.09375 57.859375 
L 54.09375 11.921875 
z
" id="CMR17-78"/>
    </defs>
    <use transform="scale(0.996264)" xlink:href="#CMR17-70"/>
    <use transform="translate(52.176591 0)scale(0.996264)" xlink:href="#CMR17-111"/>
    <use transform="translate(97.867068 0)scale(0.996264)" xlink:href="#CMR17-114"/>
    <use transform="translate(133.147836 0)scale(0.996264)" xlink:href="#CMR17-99"/>
    <use transform="translate(173.633497 0)scale(0.996264)" xlink:href="#CMR17-101"/>
    <use transform="translate(244.195123 0)scale(0.996264)" xlink:href="#CMR17-91"/>
    <use transform="translate(269.066182 0)scale(0.996264)" xlink:href="#CMR17-78"/>
    <use transform="translate(338.138612 0)scale(0.996264)" xlink:href="#CMR17-93"/>
   </g>
  </g>
 </g>
 <defs>
  <clipPath id="pcdf0be0c74">
   <rect height="42.711429" width="305.813574" x="33.540844" y="14.30218"/>
  </clipPath>
  <clipPath id="pbaed10891a">
   <rect height="42.711429" width="305.813574" x="33.540844" y="65.555894"/>
  </clipPath>
  <clipPath id="p9c1e50de5f">
   <rect height="42.711429" width="305.813574" x="33.540844" y="116.809608"/>
  </clipPath>
  <clipPath id="pdad5c6d73e">
   <rect height="42.711429" width="305.813574" x="33.540844" y="168.063323"/>
  </clipPath>
  <clipPath id="p189888317b">
   <rect height="42.711429" width="305.813574" x="33.540844" y="219.317037"/>
  </clipPath>
  <clipPath id="p8b7c0ecffb">
   <rect height="42.711429" width="305.813574" x="33.540844" y="270.570751"/>
  </clipPath>
 </defs>
</svg>
