<?xml version="1.0" encoding="utf-8" standalone="no"?>
<!DOCTYPE svg PUBLIC "-//W3C//DTD SVG 1.1//EN"
  "http://www.w3.org/Graphics/SVG/1.1/DTD/svg11.dtd">
<!-- Created with matplotlib (https://matplotlib.org/) -->
<svg height="432pt" version="1.1" viewBox="0 0 648 432" width="648pt" xmlns="http://www.w3.org/2000/svg" xmlns:xlink="http://www.w3.org/1999/xlink">
 <metadata>
  <rdf:RDF xmlns:cc="http://creativecommons.org/ns#" xmlns:dc="http://purl.org/dc/elements/1.1/" xmlns:rdf="http://www.w3.org/1999/02/22-rdf-syntax-ns#">
   <cc:Work>
    <dc:type rdf:resource="http://purl.org/dc/dcmitype/StillImage"/>
    <dc:date>2020-12-09T20:57:32.563732</dc:date>
    <dc:format>image/svg+xml</dc:format>
    <dc:creator>
     <cc:Agent>
      <dc:title>Matplotlib v3.3.3, https://matplotlib.org/</dc:title>
     </cc:Agent>
    </dc:creator>
   </cc:Work>
  </rdf:RDF>
 </metadata>
 <defs>
  <style type="text/css">*{stroke-linecap:butt;stroke-linejoin:round;}</style>
 </defs>
 <g id="figure_1">
  <g id="patch_1">
   <path d="M 0 432 
L 648 432 
L 648 0 
L 0 0 
z
" style="fill:none;"/>
  </g>
  <g id="axes_1">
   <g id="patch_2">
    <path d="M 81 378 
L 583.2 378 
L 583.2 51.84 
L 81 51.84 
z
" style="fill:#ffffff;"/>
   </g>
   <g id="matplotlib.axis_1">
    <g id="xtick_1">
     <g id="line2d_1">
      <defs>
       <path d="M 0 0 
L 0 3.5 
" id="mf69b59c6f3" style="stroke:#000000;stroke-width:0.8;"/>
      </defs>
      <g>
       <use style="stroke:#000000;stroke-width:0.8;" x="81" xlink:href="#mf69b59c6f3" y="378"/>
      </g>
     </g>
     <g id="text_1">
      <!-- 5 -->
      <g transform="translate(77.81875 392.598437)scale(0.1 -0.1)">
       <defs>
        <path d="M 10.796875 72.90625 
L 49.515625 72.90625 
L 49.515625 64.59375 
L 19.828125 64.59375 
L 19.828125 46.734375 
Q 21.96875 47.46875 24.109375 47.828125 
Q 26.265625 48.1875 28.421875 48.1875 
Q 40.625 48.1875 47.75 41.5 
Q 54.890625 34.8125 54.890625 23.390625 
Q 54.890625 11.625 47.5625 5.09375 
Q 40.234375 -1.421875 26.90625 -1.421875 
Q 22.3125 -1.421875 17.546875 -0.640625 
Q 12.796875 0.140625 7.71875 1.703125 
L 7.71875 11.625 
Q 12.109375 9.234375 16.796875 8.0625 
Q 21.484375 6.890625 26.703125 6.890625 
Q 35.15625 6.890625 40.078125 11.328125 
Q 45.015625 15.765625 45.015625 23.390625 
Q 45.015625 31 40.078125 35.4375 
Q 35.15625 39.890625 26.703125 39.890625 
Q 22.75 39.890625 18.8125 39.015625 
Q 14.890625 38.140625 10.796875 36.28125 
z
" id="DejaVuSans-53"/>
       </defs>
       <use xlink:href="#DejaVuSans-53"/>
      </g>
     </g>
    </g>
    <g id="xtick_2">
     <g id="line2d_2">
      <g>
       <use style="stroke:#000000;stroke-width:0.8;" x="181.44" xlink:href="#mf69b59c6f3" y="378"/>
      </g>
     </g>
     <g id="text_2">
      <!-- 6 -->
      <g transform="translate(178.25875 392.598437)scale(0.1 -0.1)">
       <defs>
        <path d="M 33.015625 40.375 
Q 26.375 40.375 22.484375 35.828125 
Q 18.609375 31.296875 18.609375 23.390625 
Q 18.609375 15.53125 22.484375 10.953125 
Q 26.375 6.390625 33.015625 6.390625 
Q 39.65625 6.390625 43.53125 10.953125 
Q 47.40625 15.53125 47.40625 23.390625 
Q 47.40625 31.296875 43.53125 35.828125 
Q 39.65625 40.375 33.015625 40.375 
z
M 52.59375 71.296875 
L 52.59375 62.3125 
Q 48.875 64.0625 45.09375 64.984375 
Q 41.3125 65.921875 37.59375 65.921875 
Q 27.828125 65.921875 22.671875 59.328125 
Q 17.53125 52.734375 16.796875 39.40625 
Q 19.671875 43.65625 24.015625 45.921875 
Q 28.375 48.1875 33.59375 48.1875 
Q 44.578125 48.1875 50.953125 41.515625 
Q 57.328125 34.859375 57.328125 23.390625 
Q 57.328125 12.15625 50.6875 5.359375 
Q 44.046875 -1.421875 33.015625 -1.421875 
Q 20.359375 -1.421875 13.671875 8.265625 
Q 6.984375 17.96875 6.984375 36.375 
Q 6.984375 53.65625 15.1875 63.9375 
Q 23.390625 74.21875 37.203125 74.21875 
Q 40.921875 74.21875 44.703125 73.484375 
Q 48.484375 72.75 52.59375 71.296875 
z
" id="DejaVuSans-54"/>
       </defs>
       <use xlink:href="#DejaVuSans-54"/>
      </g>
     </g>
    </g>
    <g id="xtick_3">
     <g id="line2d_3">
      <g>
       <use style="stroke:#000000;stroke-width:0.8;" x="281.88" xlink:href="#mf69b59c6f3" y="378"/>
      </g>
     </g>
     <g id="text_3">
      <!-- 7 -->
      <g transform="translate(278.69875 392.598437)scale(0.1 -0.1)">
       <defs>
        <path d="M 8.203125 72.90625 
L 55.078125 72.90625 
L 55.078125 68.703125 
L 28.609375 0 
L 18.3125 0 
L 43.21875 64.59375 
L 8.203125 64.59375 
z
" id="DejaVuSans-55"/>
       </defs>
       <use xlink:href="#DejaVuSans-55"/>
      </g>
     </g>
    </g>
    <g id="xtick_4">
     <g id="line2d_4">
      <g>
       <use style="stroke:#000000;stroke-width:0.8;" x="382.32" xlink:href="#mf69b59c6f3" y="378"/>
      </g>
     </g>
     <g id="text_4">
      <!-- 8 -->
      <g transform="translate(379.13875 392.598437)scale(0.1 -0.1)">
       <defs>
        <path d="M 31.78125 34.625 
Q 24.75 34.625 20.71875 30.859375 
Q 16.703125 27.09375 16.703125 20.515625 
Q 16.703125 13.921875 20.71875 10.15625 
Q 24.75 6.390625 31.78125 6.390625 
Q 38.8125 6.390625 42.859375 10.171875 
Q 46.921875 13.96875 46.921875 20.515625 
Q 46.921875 27.09375 42.890625 30.859375 
Q 38.875 34.625 31.78125 34.625 
z
M 21.921875 38.8125 
Q 15.578125 40.375 12.03125 44.71875 
Q 8.5 49.078125 8.5 55.328125 
Q 8.5 64.0625 14.71875 69.140625 
Q 20.953125 74.21875 31.78125 74.21875 
Q 42.671875 74.21875 48.875 69.140625 
Q 55.078125 64.0625 55.078125 55.328125 
Q 55.078125 49.078125 51.53125 44.71875 
Q 48 40.375 41.703125 38.8125 
Q 48.828125 37.15625 52.796875 32.3125 
Q 56.78125 27.484375 56.78125 20.515625 
Q 56.78125 9.90625 50.3125 4.234375 
Q 43.84375 -1.421875 31.78125 -1.421875 
Q 19.734375 -1.421875 13.25 4.234375 
Q 6.78125 9.90625 6.78125 20.515625 
Q 6.78125 27.484375 10.78125 32.3125 
Q 14.796875 37.15625 21.921875 38.8125 
z
M 18.3125 54.390625 
Q 18.3125 48.734375 21.84375 45.5625 
Q 25.390625 42.390625 31.78125 42.390625 
Q 38.140625 42.390625 41.71875 45.5625 
Q 45.3125 48.734375 45.3125 54.390625 
Q 45.3125 60.0625 41.71875 63.234375 
Q 38.140625 66.40625 31.78125 66.40625 
Q 25.390625 66.40625 21.84375 63.234375 
Q 18.3125 60.0625 18.3125 54.390625 
z
" id="DejaVuSans-56"/>
       </defs>
       <use xlink:href="#DejaVuSans-56"/>
      </g>
     </g>
    </g>
    <g id="xtick_5">
     <g id="line2d_5">
      <g>
       <use style="stroke:#000000;stroke-width:0.8;" x="482.76" xlink:href="#mf69b59c6f3" y="378"/>
      </g>
     </g>
     <g id="text_5">
      <!-- 9 -->
      <g transform="translate(479.57875 392.598437)scale(0.1 -0.1)">
       <defs>
        <path d="M 10.984375 1.515625 
L 10.984375 10.5 
Q 14.703125 8.734375 18.5 7.8125 
Q 22.3125 6.890625 25.984375 6.890625 
Q 35.75 6.890625 40.890625 13.453125 
Q 46.046875 20.015625 46.78125 33.40625 
Q 43.953125 29.203125 39.59375 26.953125 
Q 35.25 24.703125 29.984375 24.703125 
Q 19.046875 24.703125 12.671875 31.3125 
Q 6.296875 37.9375 6.296875 49.421875 
Q 6.296875 60.640625 12.9375 67.421875 
Q 19.578125 74.21875 30.609375 74.21875 
Q 43.265625 74.21875 49.921875 64.515625 
Q 56.59375 54.828125 56.59375 36.375 
Q 56.59375 19.140625 48.40625 8.859375 
Q 40.234375 -1.421875 26.421875 -1.421875 
Q 22.703125 -1.421875 18.890625 -0.6875 
Q 15.09375 0.046875 10.984375 1.515625 
z
M 30.609375 32.421875 
Q 37.25 32.421875 41.125 36.953125 
Q 45.015625 41.5 45.015625 49.421875 
Q 45.015625 57.28125 41.125 61.84375 
Q 37.25 66.40625 30.609375 66.40625 
Q 23.96875 66.40625 20.09375 61.84375 
Q 16.21875 57.28125 16.21875 49.421875 
Q 16.21875 41.5 20.09375 36.953125 
Q 23.96875 32.421875 30.609375 32.421875 
z
" id="DejaVuSans-57"/>
       </defs>
       <use xlink:href="#DejaVuSans-57"/>
      </g>
     </g>
    </g>
    <g id="xtick_6">
     <g id="line2d_6">
      <g>
       <use style="stroke:#000000;stroke-width:0.8;" x="583.2" xlink:href="#mf69b59c6f3" y="378"/>
      </g>
     </g>
     <g id="text_6">
      <!-- 10 -->
      <g transform="translate(576.8375 392.598437)scale(0.1 -0.1)">
       <defs>
        <path d="M 12.40625 8.296875 
L 28.515625 8.296875 
L 28.515625 63.921875 
L 10.984375 60.40625 
L 10.984375 69.390625 
L 28.421875 72.90625 
L 38.28125 72.90625 
L 38.28125 8.296875 
L 54.390625 8.296875 
L 54.390625 0 
L 12.40625 0 
z
" id="DejaVuSans-49"/>
        <path d="M 31.78125 66.40625 
Q 24.171875 66.40625 20.328125 58.90625 
Q 16.5 51.421875 16.5 36.375 
Q 16.5 21.390625 20.328125 13.890625 
Q 24.171875 6.390625 31.78125 6.390625 
Q 39.453125 6.390625 43.28125 13.890625 
Q 47.125 21.390625 47.125 36.375 
Q 47.125 51.421875 43.28125 58.90625 
Q 39.453125 66.40625 31.78125 66.40625 
z
M 31.78125 74.21875 
Q 44.046875 74.21875 50.515625 64.515625 
Q 56.984375 54.828125 56.984375 36.375 
Q 56.984375 17.96875 50.515625 8.265625 
Q 44.046875 -1.421875 31.78125 -1.421875 
Q 19.53125 -1.421875 13.0625 8.265625 
Q 6.59375 17.96875 6.59375 36.375 
Q 6.59375 54.828125 13.0625 64.515625 
Q 19.53125 74.21875 31.78125 74.21875 
z
" id="DejaVuSans-48"/>
       </defs>
       <use xlink:href="#DejaVuSans-49"/>
       <use x="63.623047" xlink:href="#DejaVuSans-48"/>
      </g>
     </g>
    </g>
   </g>
   <g id="matplotlib.axis_2">
    <g id="ytick_1">
     <g id="line2d_7">
      <defs>
       <path d="M 0 0 
L -3.5 0 
" id="m94dd79af28" style="stroke:#000000;stroke-width:0.8;"/>
      </defs>
      <g>
       <use style="stroke:#000000;stroke-width:0.8;" x="81" xlink:href="#m94dd79af28" y="378"/>
      </g>
     </g>
     <g id="text_7">
      <!-- 20 -->
      <g transform="translate(61.275 381.799219)scale(0.1 -0.1)">
       <defs>
        <path d="M 19.1875 8.296875 
L 53.609375 8.296875 
L 53.609375 0 
L 7.328125 0 
L 7.328125 8.296875 
Q 12.9375 14.109375 22.625 23.890625 
Q 32.328125 33.6875 34.8125 36.53125 
Q 39.546875 41.84375 41.421875 45.53125 
Q 43.3125 49.21875 43.3125 52.78125 
Q 43.3125 58.59375 39.234375 62.25 
Q 35.15625 65.921875 28.609375 65.921875 
Q 23.96875 65.921875 18.8125 64.3125 
Q 13.671875 62.703125 7.8125 59.421875 
L 7.8125 69.390625 
Q 13.765625 71.78125 18.9375 73 
Q 24.125 74.21875 28.421875 74.21875 
Q 39.75 74.21875 46.484375 68.546875 
Q 53.21875 62.890625 53.21875 53.421875 
Q 53.21875 48.921875 51.53125 44.890625 
Q 49.859375 40.875 45.40625 35.40625 
Q 44.1875 33.984375 37.640625 27.21875 
Q 31.109375 20.453125 19.1875 8.296875 
z
" id="DejaVuSans-50"/>
       </defs>
       <use xlink:href="#DejaVuSans-50"/>
       <use x="63.623047" xlink:href="#DejaVuSans-48"/>
      </g>
     </g>
    </g>
    <g id="ytick_2">
     <g id="line2d_8">
      <g>
       <use style="stroke:#000000;stroke-width:0.8;" x="81" xlink:href="#m94dd79af28" y="323.64"/>
      </g>
     </g>
     <g id="text_8">
      <!-- 30 -->
      <g transform="translate(61.275 327.439219)scale(0.1 -0.1)">
       <defs>
        <path d="M 40.578125 39.3125 
Q 47.65625 37.796875 51.625 33 
Q 55.609375 28.21875 55.609375 21.1875 
Q 55.609375 10.40625 48.1875 4.484375 
Q 40.765625 -1.421875 27.09375 -1.421875 
Q 22.515625 -1.421875 17.65625 -0.515625 
Q 12.796875 0.390625 7.625 2.203125 
L 7.625 11.71875 
Q 11.71875 9.328125 16.59375 8.109375 
Q 21.484375 6.890625 26.8125 6.890625 
Q 36.078125 6.890625 40.9375 10.546875 
Q 45.796875 14.203125 45.796875 21.1875 
Q 45.796875 27.640625 41.28125 31.265625 
Q 36.765625 34.90625 28.71875 34.90625 
L 20.21875 34.90625 
L 20.21875 43.015625 
L 29.109375 43.015625 
Q 36.375 43.015625 40.234375 45.921875 
Q 44.09375 48.828125 44.09375 54.296875 
Q 44.09375 59.90625 40.109375 62.90625 
Q 36.140625 65.921875 28.71875 65.921875 
Q 24.65625 65.921875 20.015625 65.03125 
Q 15.375 64.15625 9.8125 62.3125 
L 9.8125 71.09375 
Q 15.4375 72.65625 20.34375 73.4375 
Q 25.25 74.21875 29.59375 74.21875 
Q 40.828125 74.21875 47.359375 69.109375 
Q 53.90625 64.015625 53.90625 55.328125 
Q 53.90625 49.265625 50.4375 45.09375 
Q 46.96875 40.921875 40.578125 39.3125 
z
" id="DejaVuSans-51"/>
       </defs>
       <use xlink:href="#DejaVuSans-51"/>
       <use x="63.623047" xlink:href="#DejaVuSans-48"/>
      </g>
     </g>
    </g>
    <g id="ytick_3">
     <g id="line2d_9">
      <g>
       <use style="stroke:#000000;stroke-width:0.8;" x="81" xlink:href="#m94dd79af28" y="269.28"/>
      </g>
     </g>
     <g id="text_9">
      <!-- 40 -->
      <g transform="translate(61.275 273.079219)scale(0.1 -0.1)">
       <defs>
        <path d="M 37.796875 64.3125 
L 12.890625 25.390625 
L 37.796875 25.390625 
z
M 35.203125 72.90625 
L 47.609375 72.90625 
L 47.609375 25.390625 
L 58.015625 25.390625 
L 58.015625 17.1875 
L 47.609375 17.1875 
L 47.609375 0 
L 37.796875 0 
L 37.796875 17.1875 
L 4.890625 17.1875 
L 4.890625 26.703125 
z
" id="DejaVuSans-52"/>
       </defs>
       <use xlink:href="#DejaVuSans-52"/>
       <use x="63.623047" xlink:href="#DejaVuSans-48"/>
      </g>
     </g>
    </g>
    <g id="ytick_4">
     <g id="line2d_10">
      <g>
       <use style="stroke:#000000;stroke-width:0.8;" x="81" xlink:href="#m94dd79af28" y="214.92"/>
      </g>
     </g>
     <g id="text_10">
      <!-- 50 -->
      <g transform="translate(61.275 218.719219)scale(0.1 -0.1)">
       <use xlink:href="#DejaVuSans-53"/>
       <use x="63.623047" xlink:href="#DejaVuSans-48"/>
      </g>
     </g>
    </g>
    <g id="ytick_5">
     <g id="line2d_11">
      <g>
       <use style="stroke:#000000;stroke-width:0.8;" x="81" xlink:href="#m94dd79af28" y="160.56"/>
      </g>
     </g>
     <g id="text_11">
      <!-- 60 -->
      <g transform="translate(61.275 164.359219)scale(0.1 -0.1)">
       <use xlink:href="#DejaVuSans-54"/>
       <use x="63.623047" xlink:href="#DejaVuSans-48"/>
      </g>
     </g>
    </g>
    <g id="ytick_6">
     <g id="line2d_12">
      <g>
       <use style="stroke:#000000;stroke-width:0.8;" x="81" xlink:href="#m94dd79af28" y="106.2"/>
      </g>
     </g>
     <g id="text_12">
      <!-- 70 -->
      <g transform="translate(61.275 109.999219)scale(0.1 -0.1)">
       <use xlink:href="#DejaVuSans-55"/>
       <use x="63.623047" xlink:href="#DejaVuSans-48"/>
      </g>
     </g>
    </g>
    <g id="ytick_7">
     <g id="line2d_13">
      <g>
       <use style="stroke:#000000;stroke-width:0.8;" x="81" xlink:href="#m94dd79af28" y="51.84"/>
      </g>
     </g>
     <g id="text_13">
      <!-- 80 -->
      <g transform="translate(61.275 55.639219)scale(0.1 -0.1)">
       <use xlink:href="#DejaVuSans-56"/>
       <use x="63.623047" xlink:href="#DejaVuSans-48"/>
      </g>
     </g>
    </g>
    <g id="text_14">
     <!-- Position [mm] -->
     <g transform="translate(55.195312 249.615312)rotate(-90)scale(0.1 -0.1)">
      <defs>
       <path d="M 19.671875 64.796875 
L 19.671875 37.40625 
L 32.078125 37.40625 
Q 38.96875 37.40625 42.71875 40.96875 
Q 46.484375 44.53125 46.484375 51.125 
Q 46.484375 57.671875 42.71875 61.234375 
Q 38.96875 64.796875 32.078125 64.796875 
z
M 9.8125 72.90625 
L 32.078125 72.90625 
Q 44.34375 72.90625 50.609375 67.359375 
Q 56.890625 61.8125 56.890625 51.125 
Q 56.890625 40.328125 50.609375 34.8125 
Q 44.34375 29.296875 32.078125 29.296875 
L 19.671875 29.296875 
L 19.671875 0 
L 9.8125 0 
z
" id="DejaVuSans-80"/>
       <path d="M 30.609375 48.390625 
Q 23.390625 48.390625 19.1875 42.75 
Q 14.984375 37.109375 14.984375 27.296875 
Q 14.984375 17.484375 19.15625 11.84375 
Q 23.34375 6.203125 30.609375 6.203125 
Q 37.796875 6.203125 41.984375 11.859375 
Q 46.1875 17.53125 46.1875 27.296875 
Q 46.1875 37.015625 41.984375 42.703125 
Q 37.796875 48.390625 30.609375 48.390625 
z
M 30.609375 56 
Q 42.328125 56 49.015625 48.375 
Q 55.71875 40.765625 55.71875 27.296875 
Q 55.71875 13.875 49.015625 6.21875 
Q 42.328125 -1.421875 30.609375 -1.421875 
Q 18.84375 -1.421875 12.171875 6.21875 
Q 5.515625 13.875 5.515625 27.296875 
Q 5.515625 40.765625 12.171875 48.375 
Q 18.84375 56 30.609375 56 
z
" id="DejaVuSans-111"/>
       <path d="M 44.28125 53.078125 
L 44.28125 44.578125 
Q 40.484375 46.53125 36.375 47.5 
Q 32.28125 48.484375 27.875 48.484375 
Q 21.1875 48.484375 17.84375 46.4375 
Q 14.5 44.390625 14.5 40.28125 
Q 14.5 37.15625 16.890625 35.375 
Q 19.28125 33.59375 26.515625 31.984375 
L 29.59375 31.296875 
Q 39.15625 29.25 43.1875 25.515625 
Q 47.21875 21.78125 47.21875 15.09375 
Q 47.21875 7.46875 41.1875 3.015625 
Q 35.15625 -1.421875 24.609375 -1.421875 
Q 20.21875 -1.421875 15.453125 -0.5625 
Q 10.6875 0.296875 5.421875 2 
L 5.421875 11.28125 
Q 10.40625 8.6875 15.234375 7.390625 
Q 20.0625 6.109375 24.8125 6.109375 
Q 31.15625 6.109375 34.5625 8.28125 
Q 37.984375 10.453125 37.984375 14.40625 
Q 37.984375 18.0625 35.515625 20.015625 
Q 33.0625 21.96875 24.703125 23.78125 
L 21.578125 24.515625 
Q 13.234375 26.265625 9.515625 29.90625 
Q 5.8125 33.546875 5.8125 39.890625 
Q 5.8125 47.609375 11.28125 51.796875 
Q 16.75 56 26.8125 56 
Q 31.78125 56 36.171875 55.265625 
Q 40.578125 54.546875 44.28125 53.078125 
z
" id="DejaVuSans-115"/>
       <path d="M 9.421875 54.6875 
L 18.40625 54.6875 
L 18.40625 0 
L 9.421875 0 
z
M 9.421875 75.984375 
L 18.40625 75.984375 
L 18.40625 64.59375 
L 9.421875 64.59375 
z
" id="DejaVuSans-105"/>
       <path d="M 18.3125 70.21875 
L 18.3125 54.6875 
L 36.8125 54.6875 
L 36.8125 47.703125 
L 18.3125 47.703125 
L 18.3125 18.015625 
Q 18.3125 11.328125 20.140625 9.421875 
Q 21.96875 7.515625 27.59375 7.515625 
L 36.8125 7.515625 
L 36.8125 0 
L 27.59375 0 
Q 17.1875 0 13.234375 3.875 
Q 9.28125 7.765625 9.28125 18.015625 
L 9.28125 47.703125 
L 2.6875 47.703125 
L 2.6875 54.6875 
L 9.28125 54.6875 
L 9.28125 70.21875 
z
" id="DejaVuSans-116"/>
       <path d="M 54.890625 33.015625 
L 54.890625 0 
L 45.90625 0 
L 45.90625 32.71875 
Q 45.90625 40.484375 42.875 44.328125 
Q 39.84375 48.1875 33.796875 48.1875 
Q 26.515625 48.1875 22.3125 43.546875 
Q 18.109375 38.921875 18.109375 30.90625 
L 18.109375 0 
L 9.078125 0 
L 9.078125 54.6875 
L 18.109375 54.6875 
L 18.109375 46.1875 
Q 21.34375 51.125 25.703125 53.5625 
Q 30.078125 56 35.796875 56 
Q 45.21875 56 50.046875 50.171875 
Q 54.890625 44.34375 54.890625 33.015625 
z
" id="DejaVuSans-110"/>
       <path id="DejaVuSans-32"/>
       <path d="M 8.59375 75.984375 
L 29.296875 75.984375 
L 29.296875 69 
L 17.578125 69 
L 17.578125 -6.203125 
L 29.296875 -6.203125 
L 29.296875 -13.1875 
L 8.59375 -13.1875 
z
" id="DejaVuSans-91"/>
       <path d="M 52 44.1875 
Q 55.375 50.25 60.0625 53.125 
Q 64.75 56 71.09375 56 
Q 79.640625 56 84.28125 50.015625 
Q 88.921875 44.046875 88.921875 33.015625 
L 88.921875 0 
L 79.890625 0 
L 79.890625 32.71875 
Q 79.890625 40.578125 77.09375 44.375 
Q 74.3125 48.1875 68.609375 48.1875 
Q 61.625 48.1875 57.5625 43.546875 
Q 53.515625 38.921875 53.515625 30.90625 
L 53.515625 0 
L 44.484375 0 
L 44.484375 32.71875 
Q 44.484375 40.625 41.703125 44.40625 
Q 38.921875 48.1875 33.109375 48.1875 
Q 26.21875 48.1875 22.15625 43.53125 
Q 18.109375 38.875 18.109375 30.90625 
L 18.109375 0 
L 9.078125 0 
L 9.078125 54.6875 
L 18.109375 54.6875 
L 18.109375 46.1875 
Q 21.1875 51.21875 25.484375 53.609375 
Q 29.78125 56 35.6875 56 
Q 41.65625 56 45.828125 52.96875 
Q 50 49.953125 52 44.1875 
z
" id="DejaVuSans-109"/>
       <path d="M 30.421875 75.984375 
L 30.421875 -13.1875 
L 9.71875 -13.1875 
L 9.71875 -6.203125 
L 21.390625 -6.203125 
L 21.390625 69 
L 9.71875 69 
L 9.71875 75.984375 
z
" id="DejaVuSans-93"/>
      </defs>
      <use xlink:href="#DejaVuSans-80"/>
      <use x="56.677734" xlink:href="#DejaVuSans-111"/>
      <use x="117.859375" xlink:href="#DejaVuSans-115"/>
      <use x="169.958984" xlink:href="#DejaVuSans-105"/>
      <use x="197.742188" xlink:href="#DejaVuSans-116"/>
      <use x="236.951172" xlink:href="#DejaVuSans-105"/>
      <use x="264.734375" xlink:href="#DejaVuSans-111"/>
      <use x="325.916016" xlink:href="#DejaVuSans-110"/>
      <use x="389.294922" xlink:href="#DejaVuSans-32"/>
      <use x="421.082031" xlink:href="#DejaVuSans-91"/>
      <use x="460.095703" xlink:href="#DejaVuSans-109"/>
      <use x="557.507812" xlink:href="#DejaVuSans-109"/>
      <use x="654.919922" xlink:href="#DejaVuSans-93"/>
     </g>
    </g>
   </g>
   <g id="line2d_14">
    <path clip-path="url(#pe470ea5427)" d="M 80.491437 327.9888 
L 81.326654 326.358 
L 82.151953 323.64 
L 83.403292 326.9016 
L 85.012589 324.1836 
L 85.476948 325.2708 
L 86.356128 325.8144 
L 87.19105 323.64 
L 88.281376 325.8144 
L 89.132569 325.8144 
L 89.966621 322.0092 
L 91.162822 323.64 
L 92.032157 323.64 
L 92.878384 323.0964 
L 94.059629 322.5528 
L 94.90936 320.922 
L 95.757842 327.4452 
L 96.942992 320.922 
L 97.799449 319.8348 
L 98.639277 322.0092 
L 99.823559 320.3784 
L 100.658 318.204 
L 101.497693 319.2912 
L 102.693353 318.7476 
L 103.53204 319.2912 
L 104.368925 318.204 
L 105.581155 316.0296 
L 106.434292 319.2912 
L 107.279669 317.1168 
L 108.46507 316.5732 
L 109.31157 319.8348 
L 110.167158 314.9424 
L 111.338773 314.3988 
L 112.176928 313.8552 
L 113.018716 314.3988 
L 114.222171 313.8552 
L 115.081035 312.768 
L 115.921378 311.1372 
L 117.100191 312.2244 
L 118.811556 311.1372 
L 119.992968 309.5064 
L 120.840442 310.5936 
L 121.696127 309.5064 
L 122.872418 310.05 
L 124.602455 306.7884 
L 125.754173 307.332 
L 126.619151 307.8756 
L 127.462092 305.7012 
L 128.633798 306.2448 
L 129.489262 305.1576 
L 130.659302 305.7012 
L 131.520307 305.7012 
L 132.365252 302.4396 
L 133.55173 304.0704 
L 134.386542 304.0704 
L 135.284245 302.4396 
L 136.427818 303.5268 
L 137.281443 301.896 
L 138.128448 303.5268 
L 140.164186 300.8088 
L 141.010116 300.8088 
L 142.183121 300.2652 
L 143.04501 299.178 
L 143.927276 305.1576 
L 145.06655 299.178 
L 145.924075 299.178 
L 146.769535 299.7216 
L 147.948368 298.0908 
L 148.801501 292.6548 
L 149.713903 297.0036 
L 150.830879 297.0036 
L 151.687825 293.742 
L 152.532475 295.9164 
L 153.715346 294.2856 
L 154.611484 297.5472 
L 155.431762 294.2856 
L 156.598453 291.5676 
L 157.448627 292.6548 
L 158.301334 294.8292 
L 159.451533 293.1984 
L 161.178387 292.1112 
L 162.358163 291.024 
L 163.219621 290.4804 
L 164.059862 290.4804 
L 165.250991 294.2856 
L 166.091384 289.9368 
L 166.949639 287.2188 
L 168.117745 288.306 
L 168.974778 288.8496 
L 169.821102 288.8496 
L 170.992973 286.6752 
L 171.858278 286.6752 
L 172.690287 287.7624 
L 173.861716 286.6752 
L 174.732965 285.0444 
L 176.743555 285.0444 
L 177.578399 284.5008 
L 178.769831 283.4136 
L 179.620233 282.87 
L 180.470234 281.7828 
L 181.653264 282.87 
L 182.498468 281.7828 
L 183.339042 283.4136 
L 184.545551 281.7828 
L 185.378343 280.152 
L 186.219367 280.6956 
L 187.414813 279.6084 
L 188.268967 279.6084 
L 189.140111 283.9572 
L 190.298764 278.5212 
L 192.00855 275.2596 
L 193.182563 276.8904 
L 194.043705 274.716 
L 194.8864 275.8032 
L 196.069566 275.2596 
L 196.912887 275.2596 
L 197.800104 274.716 
L 198.962267 273.0852 
L 199.814743 279.0648 
L 200.67115 273.6288 
L 201.834882 273.0852 
L 202.676895 271.4544 
L 203.526102 268.7364 
L 204.726063 270.3672 
L 205.568379 272.5416 
L 206.41526 270.3672 
L 207.59613 270.3672 
L 209.312741 269.28 
L 210.472452 268.1928 
L 211.323106 267.6492 
L 212.16764 266.0184 
L 213.385748 264.9312 
L 214.615749 266.562 
L 215.428318 268.1928 
L 216.3209 264.3876 
L 217.142121 266.0184 
L 217.963216 264.3876 
L 219.972205 264.3876 
L 220.853906 264.9312 
L 222.004312 263.3004 
L 222.907534 262.2132 
L 223.698163 262.2132 
L 224.891473 262.7568 
L 225.744823 261.126 
L 227.351618 265.4748 
L 228.16247 260.5824 
L 228.749577 260.0388 
L 230.654314 260.0388 
L 231.492635 257.3208 
L 232.682631 258.408 
L 233.541322 257.3208 
L 234.409921 258.408 
L 235.55543 257.3208 
L 236.427751 256.2336 
L 237.25436 255.69 
L 238.646649 255.69 
L 239.463238 254.0592 
L 240.275432 258.408 
L 241.370309 254.6028 
L 242.231323 252.4284 
L 243.000546 251.3412 
L 244.191799 252.972 
L 245.8917 250.7976 
L 247.103965 250.7976 
L 247.937236 252.4284 
L 249.129379 250.254 
L 250.005654 250.254 
L 250.923292 255.1464 
L 251.793684 248.6232 
L 252.835259 246.9924 
L 253.740248 246.4488 
L 254.554541 246.9924 
L 256.577349 246.9924 
L 257.435621 245.3616 
L 258.612967 250.7976 
L 260.159926 244.818 
L 261.089848 243.7308 
L 261.610044 244.2744 
L 262.515503 243.7308 
L 263.262608 241.0128 
L 264.364016 243.1872 
L 265.22649 243.1872 
L 266.083032 244.2744 
L 267.261723 241.5564 
L 268.133115 242.1 
L 268.928446 244.818 
L 270.138761 240.4692 
L 271.056253 239.9256 
L 271.896949 236.1204 
L 273.062137 239.382 
L 273.934985 237.2076 
L 275.040076 239.382 
L 275.896483 238.2948 
L 276.815971 235.0332 
L 277.9196 236.1204 
L 278.777513 236.1204 
L 279.602681 236.664 
L 280.813204 236.1204 
L 281.675231 234.4896 
L 283.765153 234.4896 
L 284.612659 232.3152 
L 285.471096 235.0332 
L 286.575035 232.8588 
L 287.468556 232.3152 
L 288.276168 230.1408 
L 289.443765 231.228 
L 290.310561 230.1408 
L 291.168676 230.6844 
L 292.337715 229.5972 
L 294.327708 229.5972 
L 295.30756 226.8792 
L 296.153288 231.228 
L 298.129614 225.792 
L 298.957789 225.2484 
L 300.979822 227.9664 
L 301.809767 225.2484 
L 302.719165 224.1612 
L 303.850683 224.1612 
L 304.706508 223.6176 
L 305.559392 223.6176 
L 307.809119 220.356 
L 308.700068 222.5304 
L 310.131205 219.8124 
L 310.48585 220.8996 
L 311.322121 220.356 
L 312.504582 220.356 
L 313.357867 218.7252 
L 314.203378 218.7252 
L 315.384528 218.1816 
L 316.253051 217.638 
L 319.116227 217.638 
L 320.28819 218.7252 
L 321.16582 216.5508 
L 322.207137 216.5508 
L 323.257106 215.4636 
L 324.126908 214.3764 
L 325.048741 215.4636 
L 326.057066 214.92 
L 326.9348 212.7456 
L 327.760759 212.7456 
L 328.941497 213.2892 
L 329.80712 212.7456 
L 330.640081 208.9404 
L 331.818833 212.202 
L 332.682366 210.5712 
L 334.702012 210.5712 
L 336.196646 210.0276 
L 336.701104 210.0276 
L 337.635608 208.3968 
L 338.549166 208.3968 
L 339.28037 208.9404 
L 340.467298 206.2224 
L 341.318642 206.766 
L 342.186215 206.2224 
L 343.349856 205.1352 
L 344.214975 205.6788 
L 345.048347 205.1352 
L 346.234062 205.6788 
L 347.223397 204.048 
L 348.04172 203.5044 
L 349.159082 204.5916 
L 349.981862 202.4172 
L 350.837662 201.33 
L 351.977562 200.2428 
L 352.844966 201.33 
L 353.701415 199.6992 
L 354.872935 200.7864 
L 355.728879 199.1556 
L 356.561608 199.6992 
L 357.762406 199.1556 
L 358.584817 196.9812 
L 359.455377 195.3504 
L 360.667615 197.5248 
L 361.795049 198.612 
L 362.795608 197.5248 
L 363.613113 195.3504 
L 364.470312 201.33 
L 365.569138 195.3504 
L 366.418665 195.3504 
L 367.262475 199.1556 
L 368.423648 194.8068 
L 370.11024 192.6324 
L 371.331006 193.7196 
L 372.295865 192.0888 
L 373.195117 193.176 
L 374.28593 191.5452 
L 375.118083 191.5452 
L 375.9964 190.458 
L 377.072711 190.458 
L 377.911517 189.3708 
L 378.775575 189.3708 
L 379.95506 188.8272 
L 380.804044 188.8272 
L 381.668102 187.74 
L 382.921127 187.1964 
L 383.794227 186.1092 
L 384.645786 186.6528 
L 385.7678 186.1092 
L 386.582485 185.022 
L 387.421952 185.5656 
L 388.59052 191.0016 
L 389.43534 184.4784 
L 390.325376 182.8476 
L 391.488313 183.9348 
L 392.337349 178.4988 
L 394.411225 182.304 
L 396.166196 181.2168 
L 397.229343 181.2168 
L 398.078869 180.6732 
L 398.942767 177.9552 
L 400.120159 179.586 
L 400.971818 178.4988 
L 402.146798 177.4116 
L 403.009582 177.4116 
L 403.861556 176.868 
L 405.031375 176.3244 
L 405.879293 176.3244 
L 406.719008 179.586 
L 407.91016 175.2372 
L 408.76282 174.6936 
L 409.599858 175.2372 
L 410.794507 174.15 
L 411.664143 173.0628 
L 412.480775 173.6064 
L 413.676548 173.0628 
L 414.521183 173.0628 
L 415.390955 171.9756 
L 416.580638 175.7808 
L 417.405532 171.432 
L 418.25399 171.9756 
L 419.441417 169.2576 
L 420.281683 169.8012 
L 421.122907 169.8012 
L 422.336339 170.3448 
L 423.188915 169.2576 
L 423.994881 168.714 
L 425.207168 168.1704 
L 426.045473 167.6268 
L 426.890526 167.6268 
L 428.080347 167.0832 
L 428.924145 166.5396 
L 429.766119 164.9088 
L 431.004624 165.4524 
L 431.820889 164.9088 
L 432.674539 164.9088 
L 433.861829 164.3652 
L 434.692681 164.3652 
L 435.533247 163.8216 
L 436.742496 163.278 
L 437.572962 161.6472 
L 438.417424 159.4728 
L 439.600309 162.1908 
L 440.466601 160.0164 
L 441.640149 161.1036 
L 442.524831 161.1036 
L 443.349942 159.4728 
L 444.52227 160.0164 
L 445.527053 158.3856 
L 446.207686 158.9292 
L 447.417128 158.3856 
L 448.251919 156.7548 
L 449.109183 160.56 
L 450.293529 156.7548 
L 451.142477 156.2112 
L 451.993909 156.2112 
L 453.173305 155.6676 
L 454.03103 155.124 
L 454.886342 155.124 
L 456.053955 154.0368 
L 456.90155 158.3856 
L 457.787911 153.4932 
L 458.924882 152.406 
L 460.640625 153.4932 
L 461.809793 151.3188 
L 462.66879 152.406 
L 463.527704 151.3188 
L 464.712676 150.2316 
L 466.369478 149.1444 
L 467.580486 149.1444 
L 468.474194 148.6008 
L 469.298466 147.5136 
L 470.470437 146.97 
L 471.314045 148.0572 
L 472.185944 146.97 
L 473.340421 146.97 
L 474.173875 146.4264 
L 475.011726 145.3392 
L 476.230107 144.7956 
L 477.081739 144.252 
L 477.909005 149.1444 
L 479.103419 143.1648 
L 479.98805 142.6212 
L 480.796511 143.7084 
L 481.979738 138.816 
L 482.814463 140.9904 
L 484.012208 140.4468 
L 484.856304 140.4468 
L 485.725467 139.9032 
L 486.889716 139.3596 
L 487.746212 139.3596 
L 488.586743 138.2724 
L 489.793259 138.2724 
L 490.623401 136.6416 
L 491.483617 138.816 
L 492.671174 136.098 
L 493.512689 135.5544 
L 494.362923 136.098 
L 495.53586 135.0108 
L 496.385165 134.4672 
L 497.225942 135.0108 
L 498.416289 133.38 
L 499.26097 129.0312 
L 500.127006 132.8364 
L 501.305681 133.38 
L 502.211595 132.8364 
L 504.203382 130.1184 
L 505.041616 130.662 
L 505.862164 130.662 
L 507.055558 130.1184 
L 507.914777 130.1184 
L 508.758344 129.5748 
L 509.937043 133.9236 
L 510.789937 127.944 
L 511.62148 127.4004 
L 512.845569 132.2928 
L 513.65878 126.8568 
L 514.549513 125.7696 
L 515.6995 125.7696 
L 516.568422 125.226 
L 517.39346 124.1388 
L 518.58317 124.6824 
L 519.428673 123.0516 
L 520.264585 123.5952 
L 521.485967 122.508 
L 522.314052 121.9644 
L 523.183154 119.79 
L 524.348106 121.4208 
L 525.235223 120.8772 
L 526.379061 120.8772 
L 527.228292 120.3336 
L 528.069131 121.4208 
L 529.26157 118.7028 
L 530.110105 119.2464 
L 530.982313 118.7028 
L 532.165279 117.6156 
L 533.007501 116.5284 
L 533.862109 120.8772 
L 535.028317 116.5284 
L 535.890537 114.8976 
L 536.714588 113.8104 
L 537.916884 115.4412 
L 538.76732 115.9848 
L 539.59226 114.354 
L 540.78632 113.2668 
L 541.638465 112.1796 
L 542.477749 112.7232 
L 543.665245 112.1796 
L 544.549973 113.8104 
L 545.377897 112.1796 
L 546.567686 110.5488 
L 547.395816 112.7232 
L 548.233821 110.5488 
L 549.428735 111.0924 
L 550.29117 110.0052 
L 551.142804 109.4616 
L 552.325482 113.8104 
L 553.158396 108.3744 
L 554.024497 107.8308 
L 555.210493 108.3744 
L 556.03992 106.7436 
L 556.874223 106.7436 
L 558.07521 105.6564 
L 558.913944 105.6564 
L 559.754695 105.1128 
L 560.991875 105.1128 
L 561.816886 104.0256 
L 562.63715 104.5692 
L 563.844949 103.482 
L 564.74615 103.482 
L 565.51737 102.3948 
L 566.715891 102.3948 
L 567.565582 99.1332 
L 568.752133 101.8512 
L 569.626816 102.3948 
L 570.458774 100.2204 
L 571.635195 99.6768 
L 572.489333 98.5896 
L 573.338782 96.4152 
L 574.535609 98.5896 
L 575.375159 97.5024 
L 576.215881 98.046 
L 577.393685 97.5024 
L 578.24135 97.5024 
L 579.084025 96.9588 
L 580.277274 95.8716 
L 581.166895 95.8716 
L 581.961929 95.328 
L 583.155302 93.1536 
L 584.021364 94.7844 
L 584.021364 94.7844 
" style="fill:none;stroke:#1f77b4;stroke-linecap:square;stroke-width:0.7;"/>
   </g>
   <g id="line2d_15">
    <path clip-path="url(#pe470ea5427)" d="M 80.491437 319.2912 
L 88.281376 319.2912 
L 89.132569 301.896 
L 127.462092 301.896 
L 128.633798 282.3264 
L 166.949639 282.3264 
L 168.117745 260.5824 
L 213.385748 260.5824 
L 214.615749 238.2948 
L 263.262608 238.2948 
L 264.364016 214.92 
L 313.357867 214.92 
L 314.203378 191.5452 
L 363.613113 191.5452 
L 364.470312 168.714 
L 414.521183 168.714 
L 415.390955 147.5136 
L 458.924882 147.5136 
L 459.784607 127.4004 
L 499.26097 127.4004 
L 500.127006 109.4616 
L 539.59226 109.4616 
L 540.78632 94.2408 
L 569.626816 94.2408 
L 570.458774 82.2816 
L 584.021364 82.2816 
L 584.021364 82.2816 
" style="fill:none;stroke:#ff7f0e;stroke-linecap:square;stroke-width:0.7;"/>
   </g>
   <g id="patch_3">
    <path d="M 81 378 
L 81 51.84 
" style="fill:none;stroke:#000000;stroke-linecap:square;stroke-linejoin:miter;stroke-width:0.8;"/>
   </g>
   <g id="patch_4">
    <path d="M 583.2 378 
L 583.2 51.84 
" style="fill:none;stroke:#000000;stroke-linecap:square;stroke-linejoin:miter;stroke-width:0.8;"/>
   </g>
   <g id="patch_5">
    <path d="M 81 378 
L 583.2 378 
" style="fill:none;stroke:#000000;stroke-linecap:square;stroke-linejoin:miter;stroke-width:0.8;"/>
   </g>
   <g id="patch_6">
    <path d="M 81 51.84 
L 583.2 51.84 
" style="fill:none;stroke:#000000;stroke-linecap:square;stroke-linejoin:miter;stroke-width:0.8;"/>
   </g>
   <g id="text_15">
    <!-- Motor 1 -->
    <g transform="translate(309.0375 45.84)scale(0.12 -0.12)">
     <defs>
      <path d="M 9.8125 72.90625 
L 24.515625 72.90625 
L 43.109375 23.296875 
L 61.8125 72.90625 
L 76.515625 72.90625 
L 76.515625 0 
L 66.890625 0 
L 66.890625 64.015625 
L 48.09375 14.015625 
L 38.1875 14.015625 
L 19.390625 64.015625 
L 19.390625 0 
L 9.8125 0 
z
" id="DejaVuSans-77"/>
      <path d="M 41.109375 46.296875 
Q 39.59375 47.171875 37.8125 47.578125 
Q 36.03125 48 33.890625 48 
Q 26.265625 48 22.1875 43.046875 
Q 18.109375 38.09375 18.109375 28.8125 
L 18.109375 0 
L 9.078125 0 
L 9.078125 54.6875 
L 18.109375 54.6875 
L 18.109375 46.1875 
Q 20.953125 51.171875 25.484375 53.578125 
Q 30.03125 56 36.53125 56 
Q 37.453125 56 38.578125 55.875 
Q 39.703125 55.765625 41.0625 55.515625 
z
" id="DejaVuSans-114"/>
     </defs>
     <use xlink:href="#DejaVuSans-77"/>
     <use x="86.279297" xlink:href="#DejaVuSans-111"/>
     <use x="147.460938" xlink:href="#DejaVuSans-116"/>
     <use x="186.669922" xlink:href="#DejaVuSans-111"/>
     <use x="247.851562" xlink:href="#DejaVuSans-114"/>
     <use x="288.964844" xlink:href="#DejaVuSans-32"/>
     <use x="320.751953" xlink:href="#DejaVuSans-49"/>
    </g>
   </g>
   <g id="legend_1">
    <g id="patch_7">
     <path d="M 248.391406 435.294125 
L 419.808594 435.294125 
Q 421.808594 435.294125 421.808594 433.294125 
L 421.808594 419.616 
Q 421.808594 417.616 419.808594 417.616 
L 248.391406 417.616 
Q 246.391406 417.616 246.391406 419.616 
L 246.391406 433.294125 
Q 246.391406 435.294125 248.391406 435.294125 
z
" style="fill:#4c4c4c;opacity:0.5;stroke:#4c4c4c;stroke-linejoin:miter;"/>
    </g>
    <g id="patch_8">
     <path d="M 246.391406 433.294125 
L 417.808594 433.294125 
Q 419.808594 433.294125 419.808594 431.294125 
L 419.808594 417.616 
Q 419.808594 415.616 417.808594 415.616 
L 246.391406 415.616 
Q 244.391406 415.616 244.391406 417.616 
L 244.391406 431.294125 
Q 244.391406 433.294125 246.391406 433.294125 
z
" style="fill:#ffffff;stroke:#cccccc;stroke-linejoin:miter;"/>
    </g>
    <g id="line2d_16">
     <path d="M 248.391406 423.714438 
L 268.391406 423.714438 
" style="fill:none;stroke:#1f77b4;stroke-linecap:square;stroke-width:0.7;"/>
    </g>
    <g id="line2d_17"/>
    <g id="text_16">
     <!-- Position sensor -->
     <g transform="translate(276.391406 427.214438)scale(0.1 -0.1)">
      <defs>
       <path d="M 56.203125 29.59375 
L 56.203125 25.203125 
L 14.890625 25.203125 
Q 15.484375 15.921875 20.484375 11.0625 
Q 25.484375 6.203125 34.421875 6.203125 
Q 39.59375 6.203125 44.453125 7.46875 
Q 49.3125 8.734375 54.109375 11.28125 
L 54.109375 2.78125 
Q 49.265625 0.734375 44.1875 -0.34375 
Q 39.109375 -1.421875 33.890625 -1.421875 
Q 20.796875 -1.421875 13.15625 6.1875 
Q 5.515625 13.8125 5.515625 26.8125 
Q 5.515625 40.234375 12.765625 48.109375 
Q 20.015625 56 32.328125 56 
Q 43.359375 56 49.78125 48.890625 
Q 56.203125 41.796875 56.203125 29.59375 
z
M 47.21875 32.234375 
Q 47.125 39.59375 43.09375 43.984375 
Q 39.0625 48.390625 32.421875 48.390625 
Q 24.90625 48.390625 20.390625 44.140625 
Q 15.875 39.890625 15.1875 32.171875 
z
" id="DejaVuSans-101"/>
      </defs>
      <use xlink:href="#DejaVuSans-80"/>
      <use x="56.677734" xlink:href="#DejaVuSans-111"/>
      <use x="117.859375" xlink:href="#DejaVuSans-115"/>
      <use x="169.958984" xlink:href="#DejaVuSans-105"/>
      <use x="197.742188" xlink:href="#DejaVuSans-116"/>
      <use x="236.951172" xlink:href="#DejaVuSans-105"/>
      <use x="264.734375" xlink:href="#DejaVuSans-111"/>
      <use x="325.916016" xlink:href="#DejaVuSans-110"/>
      <use x="389.294922" xlink:href="#DejaVuSans-32"/>
      <use x="421.082031" xlink:href="#DejaVuSans-115"/>
      <use x="473.181641" xlink:href="#DejaVuSans-101"/>
      <use x="534.705078" xlink:href="#DejaVuSans-110"/>
      <use x="598.083984" xlink:href="#DejaVuSans-115"/>
      <use x="650.183594" xlink:href="#DejaVuSans-111"/>
      <use x="711.365234" xlink:href="#DejaVuSans-114"/>
     </g>
    </g>
    <g id="line2d_18">
     <path d="M 371.636719 423.714438 
L 391.636719 423.714438 
" style="fill:none;stroke:#ff7f0e;stroke-linecap:square;stroke-width:0.7;"/>
    </g>
    <g id="line2d_19"/>
    <g id="text_17">
     <!-- Ref -->
     <g transform="translate(399.636719 427.214438)scale(0.1 -0.1)">
      <defs>
       <path d="M 44.390625 34.1875 
Q 47.5625 33.109375 50.5625 29.59375 
Q 53.5625 26.078125 56.59375 19.921875 
L 66.609375 0 
L 56 0 
L 46.6875 18.703125 
Q 43.0625 26.03125 39.671875 28.421875 
Q 36.28125 30.8125 30.421875 30.8125 
L 19.671875 30.8125 
L 19.671875 0 
L 9.8125 0 
L 9.8125 72.90625 
L 32.078125 72.90625 
Q 44.578125 72.90625 50.734375 67.671875 
Q 56.890625 62.453125 56.890625 51.90625 
Q 56.890625 45.015625 53.6875 40.46875 
Q 50.484375 35.9375 44.390625 34.1875 
z
M 19.671875 64.796875 
L 19.671875 38.921875 
L 32.078125 38.921875 
Q 39.203125 38.921875 42.84375 42.21875 
Q 46.484375 45.515625 46.484375 51.90625 
Q 46.484375 58.296875 42.84375 61.546875 
Q 39.203125 64.796875 32.078125 64.796875 
z
" id="DejaVuSans-82"/>
       <path d="M 37.109375 75.984375 
L 37.109375 68.5 
L 28.515625 68.5 
Q 23.6875 68.5 21.796875 66.546875 
Q 19.921875 64.59375 19.921875 59.515625 
L 19.921875 54.6875 
L 34.71875 54.6875 
L 34.71875 47.703125 
L 19.921875 47.703125 
L 19.921875 0 
L 10.890625 0 
L 10.890625 47.703125 
L 2.296875 47.703125 
L 2.296875 54.6875 
L 10.890625 54.6875 
L 10.890625 58.5 
Q 10.890625 67.625 15.140625 71.796875 
Q 19.390625 75.984375 28.609375 75.984375 
z
" id="DejaVuSans-102"/>
      </defs>
      <use xlink:href="#DejaVuSans-82"/>
      <use x="64.982422" xlink:href="#DejaVuSans-101"/>
      <use x="126.505859" xlink:href="#DejaVuSans-102"/>
     </g>
    </g>
   </g>
  </g>
 </g>
 <defs>
  <clipPath id="pe470ea5427">
   <rect height="326.16" width="502.2" x="81" y="51.84"/>
  </clipPath>
 </defs>
</svg>
