<?xml version="1.0" encoding="UTF-8" standalone="no"?><svg xmlns="http://www.w3.org/2000/svg" xmlns:xlink="http://www.w3.org/1999/xlink" contentScriptType="application/ecmascript" contentStyleType="text/css" height="479px" preserveAspectRatio="none" style="width:811px;height:479px;" version="1.1" viewBox="0 0 811 479" width="811px" zoomAndPan="magnify"><defs><filter height="300%" id="f18dwxt0tl65ud" width="300%" x="-1" y="-1"><feGaussianBlur result="blurOut" stdDeviation="2.0"/><feColorMatrix in="blurOut" result="blurOut2" type="matrix" values="0 0 0 0 0 0 0 0 0 0 0 0 0 0 0 0 0 0 .4 0"/><feOffset dx="4.0" dy="4.0" in="blurOut2" result="blurOut3"/><feBlend in="SourceGraphic" in2="blurOut3" mode="normal"/></filter></defs><g><!--MD5=[c80fd05985c13756049729d78ea7813f]
cluster Computer--><rect fill="#FFFFFF" filter="url(#f18dwxt0tl65ud)" height="388" style="stroke:#000000;stroke-width:1.5;" width="717" x="7" y="7"/><line style="stroke:#000000;stroke-width:1.5;" x1="7" x2="724" y1="27.4883" y2="27.4883"/><text fill="#000000" font-family="sans-serif" font-size="14" font-weight="bold" lengthAdjust="spacingAndGlyphs" textLength="71" x="330" y="22.5352">Computer</text><!--MD5=[beb5ad5244d3d849df9473931f7c2e5e]
entity GUI--><rect fill="#F8F8F8" filter="url(#f18dwxt0tl65ud)" height="38.9766" style="stroke:#000000;stroke-width:1.5;" width="113" x="401.5" y="42"/><text fill="#000000" font-family="sans-serif" font-size="14" font-weight="bold" lengthAdjust="spacingAndGlyphs" textLength="90" x="411.5" y="58.5352">MATLAB GUI</text><text fill="#000000" font-family="sans-serif" font-size="14" lengthAdjust="spacingAndGlyphs" textLength="93" x="411.5" y="75.0234">App Designer</text><!--MD5=[48eabb6b7d14effaa014c977e15500c7]
entity OpenSim--><rect fill="#F8F8F8" filter="url(#f18dwxt0tl65ud)" height="55.4648" style="stroke:#000000;stroke-width:1.5;" width="209" x="23.5" y="220"/><text fill="#000000" font-family="sans-serif" font-size="14" font-weight="bold" lengthAdjust="spacingAndGlyphs" textLength="65" x="33.5" y="236.5352">OpenSim</text><text fill="#000000" font-family="sans-serif" font-size="14" lengthAdjust="spacingAndGlyphs" textLength="185" x="33.5" y="253.0234">Opensim MATLAB scripting</text><text fill="#000000" font-family="sans-serif" font-size="14" lengthAdjust="spacingAndGlyphs" textLength="127" x="37.5" y="269.5117">(not implemented)</text><!--MD5=[72b9613ec06edad905e1b467ba1a9608]
entity Simulink--><rect fill="#F8F8F8" filter="url(#f18dwxt0tl65ud)" height="38.9766" style="stroke:#000000;stroke-width:1.5;" width="204" x="268" y="228"/><text fill="#000000" font-family="sans-serif" font-size="14" font-weight="bold" lengthAdjust="spacingAndGlyphs" textLength="64" x="278" y="244.5352">Simulink</text><text fill="#000000" font-family="sans-serif" font-size="14" lengthAdjust="spacingAndGlyphs" textLength="184" x="278" y="261.0234">Simulink model interaction</text><!--MD5=[ccb74f78b8ccc9f16ee66f2f062c013b]
entity Python--><rect fill="#F8F8F8" filter="url(#f18dwxt0tl65ud)" height="38.9766" style="stroke:#000000;stroke-width:1.5;" width="164" x="544" y="228"/><text fill="#000000" font-family="sans-serif" font-size="14" font-weight="bold" lengthAdjust="spacingAndGlyphs" textLength="59" x="554" y="244.5352">Python3</text><text fill="#000000" font-family="sans-serif" font-size="14" lengthAdjust="spacingAndGlyphs" textLength="0" x="617" y="244.5352"/><text fill="#000000" font-family="sans-serif" font-size="14" lengthAdjust="spacingAndGlyphs" textLength="144" x="554" y="261.0234">(virtual environment)</text><!--MD5=[33c0991a8851763f97139b7ade4f6f84]
entity OS--><rect fill="#F8F8F8" filter="url(#f18dwxt0tl65ud)" height="22.4883" style="stroke:#000000;stroke-width:1.5;" width="40" x="509" y="357"/><text fill="#000000" font-family="sans-serif" font-size="14" font-weight="bold" lengthAdjust="spacingAndGlyphs" textLength="20" x="519" y="373.5352">OS</text><!--MD5=[1a28c205b0ae5d1c676deea23e88dd41]
entity Arduino--><rect fill="#F8F8F8" filter="url(#f18dwxt0tl65ud)" height="22.4883" style="stroke:#000000;stroke-width:1.5;" width="77" x="632.5" y="445"/><text fill="#000000" font-family="sans-serif" font-size="14" font-weight="bold" lengthAdjust="spacingAndGlyphs" textLength="57" x="642.5" y="461.5352">Arduino</text><!--MD5=[c4dc4aaae18b6f8ebbd24b623cc4eb25]
link GUI to OpenSim--><path d="M419.93,83.72 C360.87,116.66 247.03,180.13 180.3,217.34 " fill="none" id="GUI-OpenSim" style="stroke:#383838;stroke-width:1.0;stroke-dasharray:7.0,7.0;"/><polygon fill="#383838" points="175.57,219.97,185.38,219.0958,179.9408,217.5418,181.4948,212.1026,175.57,219.97" style="stroke:#383838;stroke-width:1.0;"/><polygon fill="#383838" points="424.54,81.16,414.7322,82.0586,420.1753,83.5991,418.6348,89.0422,424.54,81.16" style="stroke:#383838;stroke-width:1.0;"/><!--MD5=[b7091b2f72c14999b4fff1be1d71721b]
link GUI to Python--><path d="M481.88,84.88 C490.29,92.96 499.71,102.25 508,111 C544.4,149.41 584.38,196.42 607.21,223.76 " fill="none" id="GUI-Python" style="stroke:#383838;stroke-width:1.0;stroke-dasharray:7.0,7.0;"/><polygon fill="#383838" points="610.45,227.65,607.7647,218.1743,607.2505,223.8077,601.617,223.2935,610.45,227.65" style="stroke:#383838;stroke-width:1.0;"/><polygon fill="#383838" points="477.85,81.01,481.5889,90.1216,481.4632,84.4661,487.1187,84.3404,477.85,81.01" style="stroke:#383838;stroke-width:1.0;"/><text fill="#000000" font-family="sans-serif" font-size="13" lengthAdjust="spacingAndGlyphs" textLength="136" x="551" y="155.5684">Execute Python script</text><!--MD5=[c5364c398269ad425e4fb6959c9317ce]
link GUI to Simulink--><path d="M446.8,85.92 C429.88,121.3 398,187.96 381.13,223.24 " fill="none" id="GUI-Simulink" style="stroke:#383838;stroke-width:1.0;stroke-dasharray:7.0,7.0;"/><polygon fill="#383838" points="378.95,227.8,386.4395,221.4041,381.1058,223.2886,379.2213,217.9549,378.95,227.8" style="stroke:#383838;stroke-width:1.0;"/><polygon fill="#383838" points="449.08,81.16,441.5905,87.5559,446.9242,85.6714,448.8087,91.0051,449.08,81.16" style="stroke:#383838;stroke-width:1.0;"/><!--MD5=[86139925ecf06c0360a8f25d4f0c3181]
link Python to Arduino--><path d="M637.02,271.94 C641.33,281.94 645.96,293.85 649,305 C662.11,353.09 667.86,412.11 669.97,439.58 " fill="none" id="Python-Arduino" style="stroke:#383838;stroke-width:1.0;stroke-dasharray:7.0,7.0;"/><polygon fill="#383838" points="670.34,444.64,673.6603,435.3677,669.9685,439.6538,665.6824,435.962,670.34,444.64" style="stroke:#383838;stroke-width:1.0;"/><polygon fill="#383838" points="634.94,267.2,634.9085,277.0488,636.9561,271.7755,642.2294,273.8231,634.94,267.2" style="stroke:#383838;stroke-width:1.0;"/><text fill="#000000" font-family="sans-serif" font-size="13" lengthAdjust="spacingAndGlyphs" textLength="136" x="667" y="365.5684">Serial communication</text><text fill="#000000" font-family="sans-serif" font-size="13" lengthAdjust="spacingAndGlyphs" textLength="64" x="703" y="380.8789">tx/rx data</text><!--MD5=[ad7107fc1ed7cee909afb232aa6ab8a1]
link Python to OS--><path d="M584.59,269.96 C570.54,279.06 555.91,290.87 546,305 C536.15,319.04 532,338.55 530.26,351.91 " fill="none" id="Python-OS" style="stroke:#383838;stroke-width:1.0;stroke-dasharray:7.0,7.0;"/><polygon fill="#383838" points="529.68,356.89,534.6816,348.4056,530.251,351.9227,526.7339,347.4921,529.68,356.89" style="stroke:#383838;stroke-width:1.0;"/><polygon fill="#383838" points="588.92,267.22,579.1748,268.6452,584.6929,269.8905,583.4476,275.4086,588.92,267.22" style="stroke:#383838;stroke-width:1.0;"/><text fill="#000000" font-family="sans-serif" font-size="13" lengthAdjust="spacingAndGlyphs" textLength="97" x="547" y="318.5684">Write/read files</text><!--MD5=[dac43ef9def8897a97e88e99db832bad]
link GUI to OS--><path d="M463.5,86.07 C477.45,145.93 513.97,302.55 525.48,351.89 " fill="none" id="GUI-OS" style="stroke:#383838;stroke-width:1.0;stroke-dasharray:7.0,7.0;"/><polygon fill="#383838" points="526.63,356.84,528.4955,347.1694,525.5015,351.969,520.702,348.975,526.63,356.84" style="stroke:#383838;stroke-width:1.0;"/><polygon fill="#383838" points="462.33,81.09,460.4977,90.7669,463.4752,85.9571,468.285,88.9346,462.33,81.09" style="stroke:#383838;stroke-width:1.0;"/><!--MD5=[d59bd751f6c81ff2e77d1de5846bb98a]
@startuml
skinparam monochrome true
skinparam packageStyle frame

card "Computer" {
card "<b>MATLAB GUI</b>\nApp Designer" as GUI
card "<b>OpenSim</b>\nOpensim MATLAB scripting \n (not implemented)" as OpenSim
card "<b>Simulink</b>\nSimulink model interaction" as Simulink
card "<b>Python3</b> \n(virtual environment)" as Python
card "<b>OS</b>" as OS
}
card "<b>Arduino</b>" as Arduino

GUI <.- -> OpenSim 
GUI <.- -> Python : Execute Python script
GUI <.- -> Simulink
Python <.- -> Arduino : Serial communication\ntx/rx data
Python <.-> OS : Write/read files
GUI <.- -> OS
@enduml

PlantUML version 1.2020.22(Sun Dec 06 10:36:27 CET 2020)
(GPL source distribution)
Java Runtime: Java(TM) SE Runtime Environment
JVM: Java HotSpot(TM) 64-Bit Server VM
Default Encoding: UTF-8
Language: sv
Country: SE
--></g></svg>